<svg width="1024" height="1024" viewBox="0 0 1024 1024" fill="none" xmlns="http://www.w3.org/2000/svg">
<path d="M544.8 457.5L538.5 467.2L524.1 466.6C501.3 465.7 500.9 466.7 515.1 487.6L522 497.7L519.8 502.6C518.6 505.3 516 512.2 513.9 518C511.9 523.7 509.6 528.8 508.9 529.1C508.1 529.5 501.2 530.8 493.6 532C485.9 533.2 478.8 534.6 477.8 535.1C476.8 535.7 476 537.2 476 538.8C476 541 478.6 544.1 489.3 554.5L502.7 567.5L503.3 579.5C504 593.9 506.6 604.6 512 615.5C517.3 626.2 523.5 633.8 531 638.9C539.1 644.3 546.3 646.3 555.2 645.8L562.2 645.4L561.7 668C561.4 680.9 560.5 694.8 559.6 700.5C556 722.9 546.9 753.8 537.4 775.5C532.8 785.9 532.2 788.8 534.2 790.8C536.1 792.7 538.3 792.3 548.7 788.1C588.4 772.2 626.7 748 652.2 722.7C672 703 685.9 682.1 699.1 652.5C704.3 640.7 713.4 614.9 715.9 604.5C716.9 600.7 717.3 600.4 723.2 598.2C726.7 597 730.2 596 731.2 596C734.3 596 747.6 605.9 754.8 613.4C758.7 617.6 762.5 621 763.3 621C766.8 621 769.1 615.7 771.5 601.6C775.7 576.8 770.9 556.5 757 541.7C751 535.3 739.5 528 735.1 528C734.2 528 729 526.4 723.5 524.4C700.9 516.5 682.4 519.5 643.5 537.7C593.4 561.1 579.9 567.2 579.4 566.7C578.6 565.9 580.6 550.9 583.1 538.8C586.7 520.6 593.9 502.5 604.5 484.5C607.5 479.3 610 474.6 610 473.9C610 473.296 609.7 473.203 609.162 473.533C605.958 475.496 594.293 492.471 587.1 506C578.7 521.9 572.8 542.3 569.9 564.8C568.5 575.8 569.3 579 573.6 579C576.4 579 589.6 573.2 633.5 552.5C661.2 539.5 674.8 534 685.7 531.4C693.2 529.6 705.5 529.1 711.2 530.3L714.8 531.1L709.9 535.7C700.8 544.2 694.8 560.5 697 570.5C699 579.6 701.2 582.2 711 587.4C716.6 590.4 716.9 590.8 714.8 591.5C713.6 591.9 704 592.6 693.5 593C681.3 593.6 672.4 594.4 668.5 595.5C662.4 597.2 642.7 605 643.2 605.6C643.4 605.7 646.6 605 650.4 604C662.3 600.6 676.4 599.5 688.7 600.8C694.6 601.5 701.2 602 703.3 602C705.3 602 707 602.1 707 602.2C707 602.4 705.5 607.4 703.6 613.5C696.7 636.2 687.2 658.3 676.7 676.2C655.2 712.8 619.8 743.5 571 768C563.2 771.9 547.4 779 546.4 779C546.2 779 547 776.6 548.2 773.7C556.9 752.3 564.4 726.5 567.9 705.9C570.3 691.8 572.4 661.3 571.7 650.7L571.2 642.9L580.3 638.5C588.7 634.5 617.6 618 614 619.3C613.2 619.6 607.6 622 601.5 624.5C595.5 627 585.3 630.7 579 632.7C568.9 635.9 566.2 636.3 556.5 636.4C546.9 636.5 544.9 636.2 540.7 634.2C531.5 629.6 522.9 619.1 517.7 605.9C514.8 598.8 511.7 582.7 512.2 578L512.5 575.1L519.3 580.2C527.1 586 530.3 586.6 533.5 582.6C539.9 574.6 546.3 561.1 548 551.9C549.2 545.8 549.3 532 548.2 530.3C546.8 528 542.4 527.4 530.7 528C524.1 528.3 518.7 528.3 518.5 528C518.2 527.3 524.3 508 525.6 505.7C526.5 504.1 527.2 504.5 531.6 509.7C548 529.2 548.8 529.4 558.8 519.1C569.7 507.9 576.5 494.4 577.7 481.5C578.5 473.1 577.9 472.7 559 470C558.942 469.991 558.885 469.982 558.828 469.974C550.403 468.685 543.299 467.599 543.1 467.4C542.8 467.1 545.8 461.6 550.9 452.8C552.3 450.6 552.7 448.9 552.1 448.5C551.5 448.2 548.2 452.3 544.8 457.5ZM547 477.1C551.7 477.6 558.6 478.5 562.3 479.1L569.2 480.2L568.5 483.9C566.7 494.4 561 505 553.1 512.5L548.9 516.5L544.9 512C534.3 499.8 518 477.9 518 475.7C518 474.7 532 475.4 547 477.1ZM540.1 538.2C540.3 543.8 539.7 549.6 538.4 554.8C536.7 561.1 530.2 574 528.2 574.7C526.2 575.5 511.8 564.2 495.8 549.1C492.1 545.6 489 542.4 489 542C489 540.5 519.3 536.7 535.8 536.1C539.5 536 540 536.3 540.1 538.2ZM738.7 539.1C744 541.3 751.9 548.7 756.1 555.1C762.6 565.2 765.1 580 763.1 595.5C762.4 600.4 761.6 604.8 761.4 605.2C761.1 605.7 758.3 603.7 755.2 600.9C747.2 593.5 740.5 589.5 728.1 584.6C707.9 576.4 706 574.7 706 565.1C706 556 711 546.1 718.5 540.4C724.5 535.8 730.3 535.4 738.7 539.1Z" fill="#161616"/>
<path d="M609.162 473.533C605.958 475.496 594.293 492.471 587.1 506C578.7 521.9 572.8 542.3 569.9 564.8C568.5 575.8 569.3 579 573.6 579C576.4 579 589.6 573.2 633.5 552.5C661.2 539.5 674.8 534 685.7 531.4C693.2 529.6 705.5 529.1 711.2 530.3L714.8 531.1L709.9 535.7C700.8 544.2 694.8 560.5 697 570.5C699 579.6 701.2 582.2 711 587.4C716.6 590.4 716.9 590.8 714.8 591.5C713.6 591.9 704 592.6 693.5 593C681.3 593.6 672.4 594.4 668.5 595.5C662.4 597.2 642.7 605 643.2 605.6C643.4 605.7 646.6 605 650.4 604C662.3 600.6 676.4 599.5 688.7 600.8C694.6 601.5 701.2 602 703.3 602C705.3 602 707 602.1 707 602.2C707 602.4 705.5 607.4 703.6 613.5C696.7 636.2 687.2 658.3 676.7 676.2C655.2 712.8 619.8 743.5 571 768C563.2 771.9 547.4 779 546.4 779C546.2 779 547 776.6 548.2 773.7C556.9 752.3 564.4 726.5 567.9 705.9C570.3 691.8 572.4 661.3 571.7 650.7L571.2 642.9L580.3 638.5C588.7 634.5 617.6 618 614 619.3C613.2 619.6 607.6 622 601.5 624.5C595.5 627 585.3 630.7 579 632.7C568.9 635.9 566.2 636.3 556.5 636.4C546.9 636.5 544.9 636.2 540.7 634.2C531.5 629.6 522.9 619.1 517.7 605.9C514.8 598.8 511.7 582.7 512.2 578L512.5 575.1L519.3 580.2C527.1 586 530.3 586.6 533.5 582.6C539.9 574.6 546.3 561.1 548 551.9C549.2 545.8 549.3 532 548.2 530.3C546.8 528 542.4 527.4 530.7 528C524.1 528.3 518.7 528.3 518.5 528C518.2 527.3 524.3 508 525.6 505.7C526.5 504.1 527.2 504.5 531.6 509.7C548 529.2 548.8 529.4 558.8 519.1C569.7 507.9 576.5 494.4 577.7 481.5C578.5 473.1 577.9 472.7 559 470L558.828 469.974C550.403 468.685 543.299 467.599 543.1 467.4C542.8 467.1 545.8 461.6 550.9 452.8C552.3 450.6 552.7 448.9 552.1 448.5L609.162 473.533Z" fill="#5C658D"/>
<path d="M738.7 539.1C744 541.3 751.9 548.7 756.1 555.1C762.6 565.2 765.1 580 763.1 595.5C762.4 600.4 761.6 604.8 761.4 605.2C761.1 605.7 758.3 603.7 755.2 600.9C747.2 593.5 740.5 589.5 728.1 584.6C707.9 576.4 706 574.7 706 565.1C706 556 711 546.1 718.5 540.4C724.5 535.8 730.3 535.4 738.7 539.1Z" fill="white"/>
<path d="M540.1 538.2C540.3 543.8 539.7 549.6 538.4 554.8C536.7 561.1 530.2 574 528.2 574.7C526.2 575.5 511.8 564.2 495.8 549.1C492.1 545.6 489 542.4 489 542C489 540.5 519.3 536.7 535.8 536.1C539.5 536 540 536.3 540.1 538.2Z" fill="white"/>
<path d="M547 477.1C551.7 477.6 558.6 478.5 562.3 479.1L569.2 480.2L568.5 483.9C566.7 494.4 561 505 553.1 512.5L548.9 516.5L544.9 512C534.3 499.8 518 477.9 518 475.7C518 474.7 532 475.4 547 477.1Z" fill="white"/>
</svg>
