<svg width="1024" height="1024" viewBox="0 0 1024 1024" fill="none" xmlns="http://www.w3.org/2000/svg">
<path d="M570.319 426.604L559.027 424.097L554.549 410.398C547.412 388.725 546.336 388.7 531.727 409.317L524.681 419.316L519.321 418.97C516.372 418.791 508.998 418.77 502.83 418.833C496.791 418.954 491.208 418.585 490.682 418.034C490.028 417.425 486.395 411.416 482.611 404.717C478.792 397.924 474.995 391.763 474.177 391.001C473.265 390.274 471.58 390.05 470.081 390.61C468.02 391.38 466.026 394.9 460.029 408.564L452.541 425.666L441.51 430.428C428.266 436.124 419.153 442.304 410.832 451.178C402.664 459.887 397.714 468.355 395.562 477.166C393.338 486.643 393.985 494.088 397.568 502.25L400.393 508.667L379.047 516.109C366.858 520.343 353.522 524.365 347.868 525.516C325.625 529.984 293.494 532.274 269.842 530.97C258.489 530.301 255.563 530.754 254.389 533.328C253.274 535.772 254.419 537.693 261.993 545.965C290.783 577.59 326.857 604.997 359.481 620.03C384.865 631.682 409.308 637.388 441.656 639.394C454.53 640.135 481.883 639.629 492.5 638.331C496.41 637.938 496.831 638.208 500.957 642.965C503.306 645.823 505.467 648.752 505.817 649.689C506.902 652.593 502.284 668.516 497.778 677.886C495.208 683.009 493.353 687.759 493.633 688.508C494.858 691.787 500.628 692.086 514.676 689.4C539.378 684.654 556.714 673.053 565.713 654.852C569.608 646.992 572.422 633.664 570.882 629.542C570.567 628.699 570.245 623.268 570.194 617.416C569.684 593.48 560.399 577.201 529.736 547.131C490.281 508.389 479.842 497.878 480.135 497.235C480.604 496.205 495.356 492.829 507.565 490.936C525.874 487.938 545.349 488.348 565.921 491.978C571.842 492.968 577.12 493.665 577.775 493.42C578.341 493.209 578.324 492.895 577.827 492.507C574.865 490.192 554.881 485.206 539.691 483.203C521.857 480.899 500.682 482.512 478.59 487.671C467.796 490.209 465.078 492.079 466.583 496.107C467.563 498.73 477.616 509.065 512.372 542.943C534.244 564.341 544.156 575.156 550.407 584.457C554.718 590.852 559.491 602.199 560.362 607.959L560.873 611.611L554.849 608.631C543.701 603.082 526.332 603.166 517.735 608.727C509.91 613.785 508.245 616.756 506.804 627.756C505.953 634.052 505.684 634.473 504.293 632.751C503.498 631.767 499.483 623.019 495.433 613.323C490.601 602.105 486.737 594.048 484.341 590.779C480.614 585.66 466.412 569.936 466.025 570.614C466.001 570.837 467.777 573.589 470.044 576.799C477.394 586.756 483.359 599.58 486.446 611.557C487.856 617.328 489.697 623.686 490.432 625.653C491.132 627.527 491.633 629.154 491.54 629.189C491.352 629.259 486.144 629.604 479.764 629.959C456.085 631.44 432.058 630.276 411.615 626.705C369.805 619.375 328.657 596.959 288.627 559.82C282.244 553.878 270.063 541.563 269.713 540.626C269.643 540.439 272.171 540.348 275.308 540.457C298.399 541.117 325.192 539.113 345.714 535.182C359.762 532.495 389.068 523.787 398.753 519.421L405.885 516.223L413.191 523.208C419.878 529.676 445.45 550.974 442.972 548.056C442.411 547.412 438.203 543.006 433.726 538.167C429.284 533.421 422.248 525.161 418.169 519.96C411.637 511.619 410.317 509.229 406.829 500.178C403.375 491.22 402.956 489.242 403.36 484.607C404.449 474.379 411.275 462.648 421.82 453.157C427.456 447.956 441.452 439.417 446.03 438.24L448.852 437.506L446.454 445.661C443.751 454.998 444.309 458.205 449.176 459.803C458.91 462.998 473.796 464.268 483.009 462.641C489.143 461.63 502.106 456.894 503.313 455.268C504.978 453.152 504 448.82 499.343 438.07C496.752 431.993 494.862 426.934 495.073 426.642C495.623 426.116 515.838 425.075 518.447 425.488C520.261 425.771 520.131 426.567 516.8 432.508C504.273 454.696 504.366 455.515 517.515 461.278C531.821 467.569 546.847 469.214 559.351 465.823C567.5 463.632 567.665 462.93 563.579 444.281C563.567 444.224 563.555 444.167 563.543 444.11C561.802 435.767 560.333 428.732 560.45 428.476C560.626 428.09 566.828 428.976 576.856 430.673C579.407 431.215 581.14 430.994 581.304 430.292C581.375 429.625 576.38 427.969 570.319 426.604ZM552.728 435.525C553.905 440.102 555.477 446.881 556.21 450.557L557.594 457.405L553.883 458.045C543.417 460.034 531.493 458.404 521.702 453.629L516.485 451.094L519.301 445.772C527.019 431.573 541.829 408.639 543.89 407.869C544.827 407.519 549.071 420.878 552.728 435.525ZM493.078 450.446C487.902 452.593 482.259 454.061 476.933 454.663C470.436 455.276 456.077 453.702 454.721 452.073C453.272 450.48 458.817 433.035 467.362 412.763C469.346 408.072 471.259 404.048 471.633 403.908C473.038 403.383 487.203 430.436 493.54 445.683C494.929 449.114 494.823 449.687 493.078 450.446ZM561.744 636.8C561.538 642.534 557.371 652.525 552.845 658.699C545.659 668.323 532.67 675.845 517.451 679.396C512.616 680.455 508.214 681.246 507.769 681.198C507.196 681.092 508.089 677.77 509.627 673.886C513.759 663.802 515.161 656.125 515.411 642.795C516.023 621.002 516.95 618.628 525.943 615.268C534.468 612.083 545.491 613.302 553.456 618.332C559.865 622.343 562.27 627.636 561.744 636.8Z" fill="black"/>
<path fill-rule="evenodd" clip-rule="evenodd" d="M478.59 487.671C500.682 482.512 521.857 480.899 539.691 483.203V467.242C532.402 466.515 524.863 464.509 517.515 461.278C504.366 455.515 504.273 454.696 516.8 432.508C520.131 426.567 520.261 425.771 518.447 425.488C515.838 425.075 495.623 426.116 495.073 426.642C494.862 426.934 496.752 431.993 499.343 438.07C504 448.82 504.978 453.152 503.313 455.268C502.106 456.894 489.143 461.63 483.009 462.641C473.796 464.268 458.91 462.998 449.176 459.803C444.309 458.205 443.751 454.998 446.454 445.661L448.852 437.506L446.03 438.24C441.452 439.417 427.456 447.956 421.82 453.157C411.275 462.648 404.449 474.379 403.36 484.607C402.956 489.242 403.375 491.22 406.829 500.178C410.317 509.229 411.637 511.619 418.169 519.96C422.248 525.161 429.284 533.421 433.726 538.167C436.272 540.919 438.732 543.532 440.483 545.391C441.81 546.801 442.73 547.778 442.972 548.056C445.45 550.974 419.878 529.676 413.191 523.208L405.885 516.223L398.753 519.421C389.068 523.787 359.762 532.495 345.714 535.182C325.192 539.113 298.399 541.117 275.308 540.457C272.171 540.348 269.643 540.439 269.713 540.626C270.063 541.563 282.244 553.878 288.627 559.82C328.657 596.959 369.805 619.375 411.615 626.705C432.058 630.276 456.085 631.44 479.764 629.959C486.144 629.604 491.352 629.259 491.54 629.189C491.633 629.154 491.132 627.527 490.432 625.653C489.697 623.686 487.856 617.328 486.446 611.557C483.359 599.58 477.394 586.756 470.044 576.799C467.777 573.589 466.001 570.837 466.025 570.614C466.412 569.936 480.614 585.66 484.341 590.779C486.737 594.048 490.601 602.105 495.433 613.323C499.483 623.019 503.498 631.767 504.293 632.751C505.684 634.473 505.953 634.052 506.804 627.756C508.245 616.756 509.91 613.785 517.735 608.727C526.332 603.166 543.701 603.082 554.849 608.631L560.873 611.611L560.362 607.959C559.491 602.199 554.718 590.852 550.407 584.457C544.156 575.156 534.244 564.341 512.372 542.943C477.616 509.065 467.563 498.73 466.583 496.107C465.078 492.079 467.796 490.209 478.59 487.671Z" fill="#5C658D"/>
<path d="M561.744 636.8C561.538 642.534 557.371 652.525 552.845 658.699C545.659 668.323 532.67 675.845 517.451 679.396C512.616 680.455 508.214 681.246 507.769 681.198C507.196 681.092 508.089 677.77 509.627 673.886C513.759 663.802 515.161 656.125 515.411 642.795C516.023 621.002 516.95 618.628 525.943 615.268C534.468 612.083 545.491 613.302 553.456 618.332C559.865 622.343 562.27 627.636 561.744 636.8Z" fill="white"/>
<path d="M493.078 450.446C487.902 452.593 482.259 454.061 476.933 454.663C470.436 455.276 456.077 453.702 454.721 452.073C453.272 450.48 458.817 433.035 467.362 412.763C469.346 408.072 471.259 404.048 471.633 403.908C473.038 403.383 487.203 430.436 493.54 445.683C494.929 449.114 494.823 449.687 493.078 450.446Z" fill="white"/>
<path d="M552.728 435.525C553.905 440.102 555.477 446.881 556.21 450.557L557.594 457.405L553.883 458.045C543.417 460.034 531.493 458.404 521.702 453.629L516.485 451.094L519.301 445.772C527.019 431.573 541.829 408.639 543.89 407.869C544.827 407.519 549.071 420.878 552.728 435.525Z" fill="white"/>
</svg>
