<svg width="1024" height="1024" viewBox="0 0 1024 1024" fill="none" xmlns="http://www.w3.org/2000/svg">
<path d="M540.7 23.4326C467.9 28.9326 393.4 66.1326 356.4 115.433C339.5 137.933 332.6 163.533 337.9 184.333C343 204.633 356.9 219.633 380.1 229.533C398.9 237.633 415.2 240.733 440.9 240.933L458.3 241.133L461.7 249.533C474.4 280.933 487.1 326.933 493.4 364.933C496.6 384.033 500.5 422.433 499.3 422.433C499.1 422.433 495.7 420.633 491.7 418.533C472.7 408.033 431.9 391.033 405.4 382.433C339.9 361.233 281.2 355.433 229.3 365.033C200.6 370.333 168.7 381.233 136.3 396.933C120.3 404.733 117.7 406.933 120.2 410.633C120.9 411.733 141.1 424.233 165 438.533C198.5 458.533 209.1 464.433 211 464.033C212.4 463.733 220.4 459.933 228.8 455.533C237.2 451.033 244.5 447.433 244.9 447.433C245.4 447.433 245.5 455.933 245.2 466.233L244.7 485.133L247.6 487.133C249.2 488.233 291.7 513.133 342 542.433C392.3 571.733 437.6 598.133 442.7 601.033L451.8 606.433L443.5 623.733C433.5 644.633 425.1 665.333 421.1 679.433C409.8 719.133 409.2 761.033 419.5 801.933C421.5 809.833 422.4 815.133 421.8 815.533C420.4 816.433 403.9 818.233 386 819.533C367.2 820.933 334 820.133 317.5 817.933C277.1 812.533 246.7 801.533 223.1 783.633C215.1 777.633 201.7 764.533 196.2 757.633L192.9 753.533L199.2 750.333C216.3 741.833 233.3 727.733 244.3 712.933C254 699.933 267.6 669.533 266.8 662.633C266.3 658.033 262.2 658.533 252.5 664.433C240.5 671.633 217.4 682.633 205.1 686.833C192.9 691.133 178.7 694.133 166.8 695.033L158.3 695.733L153.2 682.833C150.5 675.733 147.9 668.833 147.5 667.433C147.1 666.033 145.9 662.533 144.8 659.633C143.1 655.033 142.5 654.433 140 654.433C138.1 654.433 136.7 655.133 136 656.333C135.4 657.533 135 666.733 135 679.233V700.133L124.7 703.333C99.9 711.133 69.5 712.233 34.8 706.833C23.2 704.933 21 705.433 21 709.833C21 712.533 32.6 725.733 43 734.933C68 757.033 93.4 766.533 132.8 768.333L147.1 768.933L150.9 778.933C160.8 805.033 174.7 826.133 196.5 848.033C243 894.833 315.8 929.433 399 944.333C440.6 951.733 503.8 956.433 545 955.133C562.7 954.533 563.8 954.633 571.5 956.933C593.1 963.633 615.7 966.833 640.5 966.833C660.3 966.833 666.1 966.233 689.6 961.733L703.7 959.133L762.1 970.833L820.5 982.533L832 987.833C853.4 997.833 869.9 1001.53 883.4 999.433C893.9 997.833 900.2 994.533 908 986.533C928.2 966.033 935.7 924.533 924.5 894.833C923 890.833 922 886.133 922 883.033V877.833L930.6 876.633C942.5 875.033 948.8 871.933 957 863.533C977.2 843.033 984.7 801.533 973.5 771.833C971.5 766.533 971 763.333 971 756.033C971 746.533 968.7 729.533 966.9 726.333C964.7 722.133 961.3 724.733 948.7 739.833L946.3 742.833L945 738.833C942.6 731.333 935.3 716.733 933.6 716.133C932.7 715.733 931.3 715.733 930.5 716.033C928.8 716.733 922.4 728.133 919 736.633C917.5 740.233 916 742.433 915.1 742.433C914.2 742.433 912 739.633 910 735.833C904.3 725.133 901.8 725.033 897.1 735.433C893.8 742.933 890 753.633 890 755.633C890 756.333 888.2 759.533 886.1 762.833C884 766.033 881.4 770.433 880.4 772.633L878.6 776.633L873.1 775.933C870 775.533 867.4 775.133 867.4 775.133C867.3 775.033 867.7 772.033 868.3 768.433C868.9 764.733 869.4 748.233 869.4 729.933C869.4 702.233 869.1 695.633 867.2 680.933C864.4 660.633 860.1 637.933 855.4 619.233C853.5 611.733 852 605.333 852 605.133C852 604.933 855.1 604.433 858.9 604.133C862.7 603.833 869.1 602.433 873.2 601.033C877.3 599.633 881.4 598.433 882.2 598.433C885.3 598.433 898.7 608.333 905.8 615.833C909.7 620.033 913.5 623.433 914.3 623.433C917.8 623.433 920.1 618.133 922.5 604.033C926.7 579.233 921.9 558.933 908 544.133C903.6 539.433 899.7 536.433 894.8 533.933C890.9 532.033 887.1 530.433 886.3 530.433C885.5 530.433 880 528.733 874.2 526.633C864 523.133 862.9 522.933 852 523.033C844.4 523.133 838 523.833 832.9 525.133L825.3 527.133L820 514.533C817 507.633 811.8 496.133 808.3 489.033C804.8 481.933 802.1 476.033 802.3 475.833C802.5 475.633 807.2 474.133 812.8 472.433C824.8 468.933 835.4 464.733 844.8 460.033C862.2 451.333 882.8 434.533 899.1 416.033L908.3 405.533L912 408.533C918.4 413.733 920.1 412.833 929.1 399.433C951.9 365.933 969.7 330.933 981.1 297.433C990.1 271.033 1000.4 224.633 1002.6 200.333L1003.2 192.733L996.4 186.833C970.3 164.433 925.6 134.933 891.2 117.533C846.1 94.7326 807.5 82.8326 759 76.5326C735.1 73.4326 718.1 72.4326 686.8 72.4326H658.1L654.9 66.1326C652.8 62.1326 648.6 56.9326 643 51.4326C636.1 44.5326 632.6 41.9326 624.5 37.7326C619 34.9326 610.7 31.4326 606 29.9326C588.2 24.4326 562.5 21.8326 540.7 23.4326ZM588.1 34.4326C610.2 38.6326 625.4 45.8326 637.1 57.4326C649.3 69.5326 653.8 81.0326 652.7 97.4326C651 122.833 633.2 150.833 603.6 174.633C589.8 185.733 590.5 185.633 582.3 180.133C551.4 159.533 533.5 123.833 535.3 86.5326C536.2 68.4326 541.2 51.8326 550.3 36.5326L553.5 31.1326L565.5 31.7326C572.2 32.1326 582.3 33.3326 588.1 34.4326ZM542 32.8326C542 33.0326 540 37.4326 537.5 42.6326C523.8 71.5326 522.9 104.833 534.9 134.933C543 155.133 558.8 174.733 576.2 186.433L582 190.233L574.2 194.833C553.9 206.733 521.7 219.933 500.4 225.033L490.2 227.433L478.4 221.533C449.5 207.033 430.4 183.633 421.9 152.533C419.2 142.733 418.2 120.633 420 109.633C421.6 99.6326 425.4 87.6326 429.6 79.3326C433 72.5326 440.9 60.5326 443.2 58.6326C445.2 57.1326 462.2 50.0326 473.7 46.0326C486.4 41.6326 509.5 35.9326 522 34.0326C531 32.7326 542 32.0326 542 32.8326ZM425 68.9326C425 69.2325 424.4 70.5326 423.6 71.7326C422.8 72.9326 420.7 77.5326 419 81.8326C397.2 136.333 417.1 195.733 467 225.333L475.2 230.233L468.4 231.133C464.6 231.533 451.8 231.933 440 231.833C422 231.833 416.9 231.433 408.9 229.633C396.3 226.933 388.2 224.133 378.5 219.433C367.6 214.033 360 207.833 354 199.233C347.4 189.833 344.9 181.733 344.9 169.933C344.8 148.233 354.6 128.233 375.8 106.233C388.3 93.3326 396.3 86.6326 411.8 76.3326C422.9 68.9326 425 67.7325 425 68.9326ZM719.5 81.4326C759.8 83.8326 796.2 90.0326 823.7 99.0326L831.5 101.533L866.2 140.433C885.3 161.833 901.1 179.733 901.2 180.233C901.4 180.733 891.3 195.533 878.8 213.133C866.2 230.833 856 246.133 856 247.233C856 251.933 856.6 251.933 897.8 249.833C925.3 248.333 936.8 248.133 937.7 248.833C938.3 249.433 944.7 264.333 952 281.933C961.9 305.933 965 314.633 964.6 316.733C962.6 326.733 931.9 382.033 917.9 400.733C917.6 401.233 913 398.433 907.7 394.633C881.5 375.633 853.6 362.533 828.5 357.533C802.7 352.433 771.6 352.233 667.1 356.933C638.3 358.233 635.5 358.433 633.7 360.233C631.8 362.233 631.8 362.333 636.4 377.833C638.9 386.433 641 393.833 641 394.233C641 395.333 615.1 401.833 602 404.033C587.4 406.533 556 407.033 542.5 405.033C530.1 403.233 508.2 398.133 507.1 396.833C506.7 396.333 505.5 389.633 504.6 381.933C499.8 343.333 487.8 294.933 473.7 257.433C470.7 249.433 468 242.233 467.6 241.333C467 240.033 467.9 239.633 472.7 239.033C475.9 238.633 483.9 237.233 490.5 235.933C563.3 221.233 628 179.033 652.6 130.233C659.4 116.633 661.5 108.233 661.5 93.7326V81.5326L666 81.1326C676 80.3326 703.5 80.5326 719.5 81.4326ZM859.7 112.133C883.4 122.033 921.8 143.333 948 161.233C959.7 169.233 983.2 186.733 991 193.333L994.4 196.233L993.1 206.533C991.3 221.833 987.5 241.833 983 259.933C978.9 276.833 971 302.433 970.1 302.433C969.8 302.433 963.9 288.633 957 271.833C947.3 248.033 944 240.933 942.3 240.133C940.7 239.433 929.7 239.633 905.6 240.933C886.7 241.833 870.7 242.533 870.1 242.333C869.4 242.033 877.9 229.233 889.9 212.233C903.8 192.833 911 181.833 911 180.133C911 177.733 908.7 175.033 860.8 121.633C854.2 114.433 849.3 108.433 849.8 108.433C850.4 108.433 854.8 110.133 859.7 112.133ZM811.5 363.433C832 365.833 846.7 370.233 866.5 379.933C879.2 386.133 897.7 397.133 899.8 399.733C901.2 401.433 884.1 420.733 872.1 430.933C845.5 453.533 811.7 468.733 769.5 477.133C755.3 479.933 751.8 481.433 759.6 481.433C764.2 481.433 781.7 479.333 789.4 477.933L792.9 477.233L798.3 488.033C824.3 539.933 846.2 606.333 855.5 660.933C859.1 682.633 859.6 681.833 849.1 672.633C834.6 659.833 821.6 652.233 808 648.833C797.6 646.233 780.3 647.333 767.5 651.433C749.2 657.333 729.2 668.533 709.8 683.633L700.2 691.233L699.6 684.133C689.6 561.933 676.4 486.033 648.1 387.433C644.9 376.133 642.3 366.833 642.4 366.733C642.6 366.533 686.9 364.533 713.5 363.533C745.4 362.333 801.4 362.333 811.5 363.433ZM309.5 370.533C363 375.133 432.7 397.133 490.7 427.633L500 432.633V440.733C500 451.733 498.3 473.633 496.4 486.433C493.3 507.933 486.4 531.633 476.7 554.533C471.1 567.533 456.3 598.433 455.7 598.433C454.8 598.433 255.6 482.233 254.3 481.033C253.5 480.233 253.4 474.833 253.9 460.433C254.7 440.133 254.2 436.333 250.8 435.633C249.8 435.433 240.3 439.833 229.7 445.333L210.3 455.433L171.4 432.333C150 419.633 132.3 409.033 132.1 408.833C131.5 408.233 152.7 398.433 167 392.633C217.5 372.233 257.7 366.033 309.5 370.533ZM646.9 415.633C647 417.533 641 419.633 623 423.833C601.4 428.833 591.9 429.933 568.5 429.833C548.5 429.833 545.4 429.633 534 427.133C527.1 425.633 518.6 423.633 515 422.633L508.5 420.733L507.9 414.333C507.5 410.833 507.4 407.733 507.5 407.533C507.7 407.433 512.7 408.433 518.7 409.833C538.7 414.533 548.4 415.733 567.5 415.733C588.8 415.633 606.4 413.333 628.8 407.633L643.5 403.833L645.2 408.933C646.1 411.633 646.9 414.733 646.9 415.633ZM651 430.633C653.5 439.633 653.6 439.433 643 442.633C629.6 446.533 606.5 451.133 593.2 452.533C586.3 453.233 574.6 453.433 563.7 453.133C544.2 452.533 533.5 450.833 517.1 445.633L508.5 442.833L508.2 436.533C507.9 430.933 508.1 430.333 509.7 430.833C516.3 432.833 534.2 436.733 543.5 438.033C558.5 440.233 589.4 439.533 606.9 436.533C619.1 434.433 640.4 429.433 645.1 427.533C649.1 425.933 649.9 426.333 651 430.633ZM659.4 464.633C672.1 520.433 681.2 578.333 687.4 643.433C689.7 667.633 690.5 677.733 692.9 713.933C693.3 720.533 694 726.633 694.3 727.433C694.8 728.533 692.8 730.233 686.7 733.633C682.2 736.333 677.3 739.133 675.9 740.033C673.4 741.633 672.9 741.633 666.4 739.033C662.6 737.533 655.7 735.233 651 734.033L642.5 731.833L633 713.533C621.9 692.333 619.5 688.833 616.2 689.833C613.5 690.733 607.2 702.733 599.9 720.833L595.1 732.733L586.7 735.433C576.2 738.833 564.3 745.133 554.3 752.633C538.6 764.333 513.8 791.433 518.7 791.433C519 791.433 523.4 787.533 528.4 782.633C546.4 765.333 569 750.433 586.8 744.333C591.8 742.633 592.1 742.633 591.6 744.233C588.2 756.133 588.6 757.633 596.2 759.833C611.4 764.233 624.8 764.233 638 759.833C649.5 755.933 650.7 754.333 648 746.633C647 743.833 646.3 741.433 646.5 741.433C648.1 741.433 663 746.733 663.5 747.433C663.8 747.933 662 749.733 659.5 751.533C653.7 755.633 653 758.333 656.2 763.233C664.3 775.333 677.3 785.233 690.9 789.833C701.4 793.233 703.3 792.833 705.6 786.833C707.2 782.533 707.5 782.333 708.7 784.033C712.2 788.733 717.5 801.733 724.8 823.433C734.3 851.533 736.8 857.733 742.6 867.033C747.7 875.333 758.3 885.733 766.4 890.333L772 893.633L768 898.233C762.3 904.633 757.6 912.733 755 920.433C752.4 928.133 751.3 944.733 752.8 953.933C753.3 957.233 753.7 960.033 753.6 960.133C753.4 960.333 742 958.133 728.2 955.333L703.1 950.333L690.8 952.833C668 957.533 655.4 958.733 634 958.133C599 957.133 571 950.333 539.5 935.033C477.7 905.133 438.6 854.833 425.1 787.933C421.8 771.333 420.7 756.733 421.3 736.033C422.5 694.333 429.2 672.633 461.5 606.433C481.1 566.233 483.8 560.433 490.4 543.133C499.8 518.833 505.6 491.433 507.6 462.833L508.3 452.833L518.4 455.633C536.8 460.833 549.7 462.633 569.5 462.633C594.9 462.733 621.3 458.833 645.1 451.533C650.3 449.933 654.8 448.633 655.1 448.533C655.4 448.533 657.4 455.733 659.4 464.633ZM864.5 533.033C865.3 533.333 864 535.233 860.9 538.133C851.8 546.633 845.8 562.933 848 572.933C850 582.033 852.2 584.633 862 589.833L868.3 593.233L863.1 594.333C860.2 594.933 855.9 595.433 853.5 595.433C849.2 595.433 849 595.333 848 591.433C846.3 585.033 837.1 557.733 832.9 546.533C830.8 540.833 829 536.033 829 535.833C829 535.533 842 532.733 846.5 532.033C849.8 531.533 862.5 532.333 864.5 533.033ZM889.7 541.533C895 543.733 902.9 551.133 907.1 557.533C913.6 567.633 916.1 582.433 914.1 597.933C913.4 602.833 912.6 607.233 912.4 607.633C912.1 608.133 909.3 606.133 906.2 603.333C898.2 595.933 891.5 591.933 879.1 587.033C858.9 578.833 857 577.133 857 567.533C857 558.433 862 548.533 869.5 542.833C875.5 538.233 881.3 537.833 889.7 541.533ZM810.4 658.433C824.6 663.333 842.3 675.833 853 688.533L857.2 693.533L850.3 701.133C831.3 722.133 820 737.833 809.5 757.733C806.4 763.633 803.6 768.433 803.4 768.433C803.1 768.433 798.1 763.733 792.2 758.033C768 734.433 749.3 721.033 720.3 706.333L705.1 698.633L707.8 696.233C712 692.333 725.8 682.133 733.7 677.133C749.1 667.333 768.9 658.833 782.1 656.533C790.1 655.033 803.5 655.933 810.4 658.433ZM254.5 675.633C252.9 680.833 243.9 698.433 239.2 705.533C230 719.233 211.7 734.633 194.3 743.333C190.9 745.033 187.9 746.433 187.6 746.433C186.1 746.433 163 707.333 163 704.833C163 704.133 166.4 703.533 171.8 703.133C182.2 702.333 199.6 698.133 213.5 692.933C223 689.333 250.4 676.333 252.5 674.333C254.1 672.733 255.2 673.333 254.5 675.633ZM149 694.933C158.2 716.533 170.4 737.933 183.2 754.833C189.8 763.633 189.9 763.933 187.7 764.833C175.8 769.633 173.6 771.033 168 777.133C161.2 784.633 161.9 785.133 156.7 769.433C152 755.233 148.2 737.933 146 720.433C144.2 705.833 142.5 681.633 143.4 682.433C143.6 682.733 146.1 688.333 149 694.933ZM626 718.433C631.9 730.333 640.4 749.433 639.8 749.933C639.6 750.033 637.3 750.933 634.5 751.833C627.5 754.233 614 754.933 606 753.233C599.5 751.833 599.5 751.733 599.8 748.533C600.1 744.433 607.6 723.533 613 711.933C617.9 701.333 617.1 700.933 626 718.433ZM859.1 725.033C836.6 752.033 823.7 771.933 812.1 797.733C809.7 803.133 807.4 807.333 807 807.233C806.6 807.033 801.5 801.733 795.7 795.333C775.6 773.233 755.3 755.733 731.3 739.833C717.7 730.833 717.1 730.233 717.6 727.533C718.3 724.133 716.6 720.433 714.2 720.433C713.3 720.433 710.6 721.133 708.2 722.133C705.3 723.233 703.6 723.433 702.9 722.733C702.3 722.133 701.6 718.233 701.3 714.033L700.7 706.433L709.1 710.233C738.4 723.733 762 740.433 788.2 766.233C799.8 777.733 803.3 780.533 805.2 780.233C807 780.033 808.9 777.233 814.9 765.933C826.8 743.233 838.5 726.533 853.7 710.333L860.5 703.133L861.1 712.533C861.7 721.633 861.7 722.033 859.1 725.033ZM137 718.933C137.6 724.433 139.5 735.633 141.1 743.833C142.7 752.033 143.8 758.933 143.5 759.333C142.5 760.333 122.8 759.433 112.2 757.833C90.7 754.733 73.5 747.733 58 736.033C49.3 729.433 34.2 714.733 37.2 715.733C42 717.433 65.9 718.633 83.3 718.133C103.6 717.533 114.7 715.833 128.5 711.133C132.4 709.733 135.6 708.733 135.7 708.833C135.7 708.833 136.3 713.433 137 718.933ZM935.8 735.233C937.5 739.533 939.8 746.233 940.9 750.133C943.1 758.333 943.3 758.133 934.1 759.033C929.3 759.533 920 758.133 920 756.933C920 756.733 921.1 752.933 922.5 748.433C925.7 738.633 930.6 727.433 931.8 727.433C932.3 727.433 934.1 730.933 935.8 735.233ZM707.5 738.133C706.6 745.533 701.5 770.333 699.5 777.133C698.4 780.733 697.4 782.433 696.3 782.433C695.4 782.433 690.9 780.633 686.3 778.433C680 775.333 676.3 772.633 671 767.333C667.2 763.433 664 759.833 664 759.333C664 757.333 704 732.533 707.4 732.433C707.8 732.433 707.9 735.033 707.5 738.133ZM964.7 750.833L965.3 761.733L959.1 761.233C952.2 760.733 950.4 759.533 949.5 754.433C948.8 750.633 951.2 746.233 958.7 737.533L962.4 733.133L963.2 736.533C963.7 738.433 964.3 744.833 964.7 750.833ZM862 737.633C862 745.033 859.4 769.833 857.5 780.933C850.1 824.433 832.9 862.333 809.4 887.233L801.5 895.633L792.1 892.533C777.2 887.633 767.6 882.033 758.9 873.433C748.8 863.333 744.1 853.933 733.9 823.233C725.1 797.033 720.5 785.933 714.2 776.833L710.2 770.933L712.7 758.433C714 751.533 715.4 744.633 715.8 743.033L716.5 740.233L729.2 748.733C751.9 763.933 777.4 786.733 797.4 809.933C801.7 814.833 805.8 819.333 806.6 819.733C808.7 820.933 812 819.533 813 817.133C825.3 787.633 838.8 763.933 854.4 744.233C860.4 736.533 862 735.233 862 737.633ZM911.1 753.533C913.3 758.833 915 763.633 915 764.233C915 765.833 904.3 767.733 899.3 766.933L894.8 766.233L895.4 761.433C896 756.733 899.5 745.633 902 740.133L903.3 737.433L905.3 740.633C906.4 742.433 909 748.233 911.1 753.533ZM951 765.933C953.3 766.733 956.8 767.433 958.7 767.433C961.9 767.433 962.3 767.833 964.6 772.833C968.8 782.133 970.2 791.333 969.7 805.933C968.9 828.233 962.3 846.333 950.9 857.733C943.4 865.133 937.7 867.733 928.6 867.833L921.6 867.933L920.3 859.633C918.8 850.133 917.7 847.433 915.1 847.433C913.3 847.433 907.2 853.433 901.9 860.233C899.1 863.833 896.6 863.833 895.4 860.133C895 858.933 892.8 853.833 890.5 848.833C884.6 836.233 882.2 835.633 876.8 845.533C875 848.833 872.9 851.433 872 851.433C869.8 851.333 848 846.733 847.5 846.233C847.2 846.033 848.9 841.333 851.1 835.833C856.1 823.533 861.2 807.033 863.8 794.133C864.9 788.633 866 784.133 866.2 784.033C866.4 783.933 868.6 783.933 871.2 784.233L876 784.633L875.2 788.833C874.3 794.233 874.3 819.033 875.3 820.033C876.6 821.333 876.9 820.033 878 810.333C879.4 796.733 881.8 787.533 885.9 779.233C889.2 772.633 889.7 771.933 892 772.433C893.4 772.733 898.6 772.933 903.5 772.933C910.6 772.933 913.5 772.433 917.3 770.733C919.9 769.533 922 767.933 922 767.133C922 766.033 923.4 765.833 928.8 766.133C932.5 766.433 937.1 766.233 939 765.633C944 764.133 946.2 764.233 951 765.933ZM208.8 783.633C209 784.133 208.3 784.433 207.3 784.433C206.3 784.433 202.3 785.933 198.5 787.833C190.6 791.533 183.3 798.633 179.8 805.833C178.6 808.333 177.3 810.433 176.9 810.433C176.5 810.433 174 806.733 171.4 802.333L166.7 794.233L168.5 790.733C173.5 781.433 180.9 775.733 191.3 773.033L196.5 771.633L202.5 777.333C205.8 780.433 208.7 783.233 208.8 783.633ZM226 796.133L233 800.833L227.8 803.633C215.3 810.433 205.1 821.333 200.3 832.933C199.3 835.433 198.2 837.333 197.9 837.133C196.3 836.533 184.9 822.633 184.4 820.633C183.5 817.333 187.5 808.233 192.2 802.933C196.5 798.033 201.8 794.833 209 792.833C216.5 790.733 218.4 791.133 226 796.133ZM250.4 809.433C282.4 823.733 331 830.933 379.2 828.433C394.3 827.633 419.9 825.233 425.3 824.133C425.7 824.033 427.5 827.533 429.3 831.933C449.3 879.933 483.7 916.533 531.8 941.033L542.5 946.433H523.5C492 946.433 452.9 943.633 422.5 939.333C334.8 926.933 263 896.533 209.6 849.233L204.8 844.933L207.3 838.733C210.5 830.733 217 821.633 222.3 817.333C226.5 813.933 240.5 806.433 242.6 806.433C243.3 806.433 246.8 807.733 250.4 809.433ZM886.8 858.233C888.5 862.533 890.8 869.233 891.9 873.133C894.1 881.333 894.3 881.133 885.1 882.033C880.3 882.533 871 881.133 871 879.933C871 879.733 872.1 875.933 873.5 871.433C876.7 861.633 881.6 850.433 882.8 850.433C883.3 850.433 885.1 853.933 886.8 858.233ZM848.7 855.733C848.8 855.933 847.5 859.833 845.6 864.533C843.8 869.133 841.9 874.533 841.5 876.433C841.1 878.333 839.1 882.633 837 885.933C834.9 889.233 832.3 893.633 831.3 895.833L829.5 899.633L823 899.033C819.4 898.633 815.5 898.033 814.2 897.733C811.9 897.233 811.9 897.133 815.7 893.033C824.4 883.933 836.3 867.233 840.6 858.133C842.3 854.633 842.7 854.333 845.4 854.833C847 855.233 848.5 855.633 848.7 855.733ZM915.7 873.833L916.3 884.733L910.1 884.233C903.2 883.733 901.4 882.533 900.5 877.433C899.8 873.633 902.2 869.233 909.7 860.533L913.4 856.133L914.2 859.533C914.7 861.433 915.3 867.833 915.7 873.833ZM866.8 859.033C869.6 859.633 869.8 859.833 868.8 862.533C867.4 866.533 864.8 866.233 862.7 861.933C860.9 858.133 861.1 857.933 866.8 859.033ZM862.1 876.533C864.3 881.833 866 886.633 866 887.233C866 888.833 855.3 890.733 850.3 889.933L845.8 889.233L846.4 884.433C847 879.733 850.5 868.633 853 863.133L854.3 860.433L856.3 863.633C857.4 865.433 860 871.233 862.1 876.533ZM902 888.933C904.3 889.733 907.8 890.433 909.7 890.433C912.9 890.433 913.3 890.833 915.6 895.833C919.8 905.133 921.2 914.333 920.7 928.933C919.9 951.233 913.3 969.333 901.9 980.733C893.3 989.333 889 990.933 875.5 990.833C862.2 990.733 852.3 988.033 835.5 980.033C827.6 976.233 821.8 974.233 815.2 972.933C808.9 971.733 805.6 970.633 805 969.533C804.5 968.633 803.7 963.333 803 957.833C801 939.333 804.6 925.733 815 912.633C818.9 907.733 819.6 907.333 822.9 907.633C826.5 907.933 826.5 907.933 826 911.933C825.2 918.133 825.4 942.133 826.3 943.033C827.6 944.333 827.9 943.033 829 933.333C830.4 919.733 832.8 910.533 836.9 902.233C840.2 895.633 840.7 894.933 843 895.433C844.4 895.733 849.6 895.933 854.5 895.933C861.6 895.933 864.5 895.433 868.3 893.733C870.9 892.533 873 890.933 873 890.133C873 889.033 874.4 888.833 879.8 889.133C883.5 889.433 888.1 889.233 890 888.633C895 887.133 897.2 887.233 902 888.933ZM786.2 899.533L789.8 900.733L785.3 906.833C782.8 910.133 780 914.533 779 916.433C773.7 926.933 771.5 940.533 772.9 954.433C773.5 959.633 773.8 964.033 773.6 964.133C773.4 964.333 771 963.933 768.2 963.333C762.3 962.133 762.3 962.133 761.1 949.833C760.4 941.333 760.9 931.333 762.5 924.933C764.6 916.333 778.4 896.533 781.4 897.833C782 898.133 784.099 898.832 786.199 899.532L786.2 899.533ZM805.8 904.933C807.5 905.333 809 905.833 809 906.133C809 906.433 807.7 908.333 806.1 910.333C802.7 914.733 798.9 922.033 796.4 929.433C794.9 933.733 794.5 937.833 794.5 948.433C794.5 955.833 794.8 963.433 795.2 965.133C796.1 968.933 795.8 969.033 788.1 967.333C783.118 966.336 783.1 966.233 782.309 961.682C782.306 961.666 782.303 961.649 782.3 961.633C781.9 959.033 781.5 951.733 781.5 945.433C781.5 936.133 782 932.633 783.8 927.233C787.3 917.233 797.7 902.933 800.9 903.833C801.8 904.133 804 904.533 805.8 904.933Z" fill="black"/>
<path d="M659.4 464.633C672.1 520.433 681.2 578.333 687.4 643.433C689.7 667.633 690.5 677.733 692.9 713.933C693.3 720.533 694 726.633 694.3 727.433C694.8 728.533 692.8 730.233 686.7 733.633C682.2 736.333 677.3 739.133 675.9 740.033C673.4 741.633 672.9 741.633 666.4 739.033C662.6 737.533 655.7 735.233 651 734.033L642.5 731.833L633 713.533C621.9 692.333 619.5 688.833 616.2 689.833C613.5 690.733 607.2 702.733 599.9 720.833L595.1 732.733L586.7 735.433C576.2 738.833 564.3 745.133 554.3 752.633C538.6 764.333 513.8 791.433 518.7 791.433C519 791.433 523.4 787.533 528.4 782.633C546.4 765.333 569 750.433 586.8 744.333C591.8 742.633 592.1 742.633 591.6 744.233C588.2 756.133 588.6 757.633 596.2 759.833C611.4 764.233 624.8 764.233 638 759.833C649.5 755.933 650.7 754.333 648 746.633C647 743.833 646.3 741.433 646.5 741.433C648.1 741.433 663 746.733 663.5 747.433C663.8 747.933 662 749.733 659.5 751.533C653.7 755.633 653 758.333 656.2 763.233C664.3 775.333 677.3 785.233 690.9 789.833C701.4 793.233 703.3 792.833 705.6 786.833C707.2 782.533 707.5 782.333 708.7 784.033C712.2 788.733 717.5 801.733 724.8 823.433C734.3 851.533 736.8 857.733 742.6 867.033C747.7 875.333 758.3 885.733 766.4 890.333L772 893.633L768 898.233C762.3 904.633 757.6 912.733 755 920.433C752.4 928.133 751.3 944.733 752.8 953.933C753.3 957.233 753.7 960.033 753.6 960.133C753.4 960.333 742 958.133 728.2 955.333L703.1 950.333L690.8 952.833C668 957.533 655.4 958.733 634 958.133C599 957.133 571 950.333 539.5 935.033C477.7 905.133 438.6 854.833 425.1 787.933C421.8 771.333 420.7 756.733 421.3 736.033C422.5 694.333 429.2 672.633 461.5 606.433C481.1 566.233 483.8 560.433 490.4 543.133C499.8 518.833 505.6 491.433 507.6 462.833L508.3 452.833L518.4 455.633C536.8 460.833 549.7 462.633 569.5 462.633C594.9 462.733 621.3 458.833 645.1 451.533C650.3 449.933 654.8 448.633 655.1 448.533C655.4 448.533 657.4 455.733 659.4 464.633Z" fill="#5C658D"/>
<path d="M811.5 363.433C832 365.833 846.7 370.233 866.5 379.933C879.2 386.133 897.7 397.133 899.8 399.733C901.2 401.433 884.1 420.733 872.1 430.933C845.5 453.533 811.7 468.733 769.5 477.133C755.3 479.933 751.8 481.433 759.6 481.433C764.2 481.433 781.7 479.333 789.4 477.933L792.9 477.233L798.3 488.033C824.3 539.933 846.2 606.333 855.5 660.933C859.1 682.633 859.6 681.833 849.1 672.633C834.6 659.833 821.6 652.233 808 648.833C797.6 646.233 780.3 647.333 767.5 651.433C749.2 657.333 729.2 668.533 709.8 683.633L700.2 691.233L699.6 684.133C689.6 561.933 676.4 486.033 648.1 387.433C644.9 376.133 642.3 366.833 642.4 366.733C642.6 366.533 686.9 364.533 713.5 363.533C745.4 362.333 801.4 362.333 811.5 363.433Z" fill="#D65C3B"/>
<path d="M810.4 658.433C824.6 663.333 842.3 675.833 853 688.533L857.2 693.533L850.3 701.133C831.3 722.133 820 737.833 809.5 757.733C806.4 763.633 803.6 768.433 803.4 768.433C803.1 768.433 798.1 763.733 792.2 758.033C768 734.433 749.3 721.033 720.3 706.333L705.1 698.633L707.8 696.233C712 692.333 725.8 682.133 733.7 677.133C749.1 667.333 768.9 658.833 782.1 656.533C790.1 655.033 803.5 655.933 810.4 658.433Z" fill="#FFD84C"/>
<path d="M859.1 725.033C836.6 752.033 823.7 771.933 812.1 797.733C809.7 803.133 807.4 807.333 807 807.233C806.6 807.033 801.5 801.733 795.7 795.333C775.6 773.233 755.3 755.733 731.3 739.833C717.7 730.833 717.1 730.233 717.6 727.533C718.3 724.133 716.6 720.433 714.2 720.433C713.3 720.433 710.6 721.133 708.2 722.133C705.3 723.233 703.6 723.433 702.9 722.733C702.3 722.133 701.6 718.233 701.3 714.033L700.7 706.433L709.1 710.233C738.4 723.733 762 740.433 788.2 766.233C799.8 777.733 803.3 780.533 805.2 780.233C807 780.033 808.9 777.233 814.9 765.933C826.8 743.233 838.5 726.533 853.7 710.333L860.5 703.133L861.1 712.533C861.7 721.633 861.7 722.033 859.1 725.033Z" fill="#5C658D"/>
<path d="M862 737.633C862 745.033 859.4 769.833 857.5 780.933C850.1 824.433 832.9 862.333 809.4 887.233L801.5 895.633L792.1 892.533C777.2 887.633 767.6 882.033 758.9 873.433C748.8 863.333 744.1 853.933 733.9 823.233C725.1 797.033 720.5 785.933 714.2 776.833L710.2 770.933L712.7 758.433C714 751.533 715.4 744.633 715.8 743.033L716.5 740.233L729.2 748.733C751.9 763.933 777.4 786.733 797.4 809.933C801.7 814.833 805.8 819.333 806.6 819.733C808.7 820.933 812 819.533 813 817.133C825.3 787.633 838.8 763.933 854.4 744.233C860.4 736.533 862 735.233 862 737.633Z" fill="#5C658D"/>
<path d="M902 888.933C904.3 889.733 907.8 890.433 909.7 890.433C912.9 890.433 913.3 890.833 915.6 895.833C919.8 905.133 921.2 914.333 920.7 928.933C919.9 951.233 913.3 969.333 901.9 980.733C893.3 989.333 889 990.933 875.5 990.833C862.2 990.733 852.3 988.033 835.5 980.033C827.6 976.233 821.8 974.233 815.2 972.933C808.9 971.733 805.6 970.633 805 969.533C804.5 968.633 803.7 963.333 803 957.833C801 939.333 804.6 925.733 815 912.633C818.9 907.733 819.6 907.333 822.9 907.633C826.5 907.933 826.5 907.933 826 911.933C825.2 918.133 825.4 942.133 826.3 943.033C827.6 944.333 827.9 943.033 829 933.333C830.4 919.733 832.8 910.533 836.9 902.233C840.2 895.633 840.7 894.933 843 895.433C844.4 895.733 849.6 895.933 854.5 895.933C861.6 895.933 864.5 895.433 868.3 893.733C870.9 892.533 873 890.933 873 890.133C873 889.033 874.4 888.833 879.8 889.133C883.5 889.433 888.1 889.233 890 888.633C895 887.133 897.2 887.233 902 888.933Z" fill="#5C658D"/>
<path d="M805.8 904.933C807.5 905.333 809 905.833 809 906.133C809 906.433 807.7 908.333 806.1 910.333C802.7 914.733 798.9 922.033 796.4 929.433C794.9 933.733 794.5 937.833 794.5 948.433C794.5 955.833 794.8 963.433 795.2 965.133C796.1 968.933 795.8 969.033 788.1 967.333C783.118 966.336 783.1 966.233 782.309 961.682L782.3 961.633C781.9 959.033 781.5 951.733 781.5 945.433C781.5 936.133 782 932.633 783.8 927.233C787.3 917.233 797.7 902.933 800.9 903.833C801.8 904.133 804 904.533 805.8 904.933Z" fill="#5C658D"/>
<path d="M786.2 899.533L789.8 900.733L785.3 906.833C782.8 910.133 780 914.533 779 916.433C773.7 926.933 771.5 940.533 772.9 954.433C773.5 959.633 773.8 964.033 773.6 964.133C773.4 964.333 771 963.933 768.2 963.333C762.3 962.133 762.3 962.133 761.1 949.833C760.4 941.333 760.9 931.333 762.5 924.933C764.6 916.333 778.4 896.533 781.4 897.833C782 898.133 784.099 898.832 786.199 899.532L786.2 899.533Z" fill="#5C658D"/>
<path d="M862.1 876.533C864.3 881.833 866 886.633 866 887.233C866 888.833 855.3 890.733 850.3 889.933L845.8 889.233L846.4 884.433C847 879.733 850.5 868.633 853 863.133L854.3 860.433L856.3 863.633C857.4 865.433 860 871.233 862.1 876.533Z" fill="white"/>
<path d="M886.8 858.233C888.5 862.533 890.8 869.233 891.9 873.133C894.1 881.333 894.3 881.133 885.1 882.033C880.3 882.533 871 881.133 871 879.933C871 879.733 872.1 875.933 873.5 871.433C876.7 861.633 881.6 850.433 882.8 850.433C883.3 850.433 885.1 853.933 886.8 858.233Z" fill="white"/>
<path d="M915.7 873.833L916.3 884.733L910.1 884.233C903.2 883.733 901.4 882.533 900.5 877.433C899.8 873.633 902.2 869.233 909.7 860.533L913.4 856.133L914.2 859.533C914.7 861.433 915.3 867.833 915.7 873.833Z" fill="white"/>
<path d="M707.5 738.133C706.6 745.533 701.5 770.333 699.5 777.133C698.4 780.733 697.4 782.433 696.3 782.433C695.4 782.433 690.9 780.633 686.3 778.433C680 775.333 676.3 772.633 671 767.333C667.2 763.433 664 759.833 664 759.333C664 757.333 704 732.533 707.4 732.433C707.8 732.433 707.9 735.033 707.5 738.133Z" fill="white"/>
<path d="M626 718.433C631.9 730.333 640.4 749.433 639.8 749.933C639.6 750.033 637.3 750.933 634.5 751.833C627.5 754.233 614 754.933 606 753.233C599.5 751.833 599.5 751.733 599.8 748.533C600.1 744.433 607.6 723.533 613 711.933C617.9 701.333 617.1 700.933 626 718.433Z" fill="white"/>
<path d="M250.4 809.433C282.4 823.733 331 830.933 379.2 828.433C394.3 827.633 419.9 825.233 425.3 824.133C425.7 824.033 427.5 827.533 429.3 831.933C449.3 879.933 483.7 916.533 531.8 941.033L542.5 946.433H523.5C492 946.433 452.9 943.633 422.5 939.333C334.8 926.933 263 896.533 209.6 849.233L204.8 844.933L207.3 838.733C210.5 830.733 217 821.633 222.3 817.333C226.5 813.933 240.5 806.433 242.6 806.433C243.3 806.433 246.8 807.733 250.4 809.433Z" fill="#5C658D"/>
<path d="M226 796.133L233 800.833L227.8 803.633C215.3 810.433 205.1 821.333 200.3 832.933C199.3 835.433 198.2 837.333 197.9 837.133C196.3 836.533 184.9 822.633 184.4 820.633C183.5 817.333 187.5 808.233 192.2 802.933C196.5 798.033 201.8 794.833 209 792.833C216.5 790.733 218.4 791.133 226 796.133Z" fill="#5C658D"/>
<path d="M208.8 783.633C209 784.133 208.3 784.433 207.3 784.433C206.3 784.433 202.3 785.933 198.5 787.833C190.6 791.533 183.3 798.633 179.8 805.833C178.6 808.333 177.3 810.433 176.9 810.433C176.5 810.433 174 806.733 171.4 802.333L166.7 794.233L168.5 790.733C173.5 781.433 180.9 775.733 191.3 773.033L196.5 771.633L202.5 777.333C205.8 780.433 208.7 783.233 208.8 783.633Z" fill="#5C658D"/>
<path d="M149 694.933C158.2 716.533 170.4 737.933 183.2 754.833C189.8 763.633 189.9 763.933 187.7 764.833C175.8 769.633 173.6 771.033 168 777.133C161.2 784.633 161.9 785.133 156.7 769.433C152 755.233 148.2 737.933 146 720.433C144.2 705.833 142.5 681.633 143.4 682.433C143.6 682.733 146.1 688.333 149 694.933Z" fill="#5C658D"/>
<path d="M254.5 675.633C252.9 680.833 243.9 698.433 239.2 705.533C230 719.233 211.7 734.633 194.3 743.333C190.9 745.033 187.9 746.433 187.6 746.433C186.1 746.433 163 707.333 163 704.833C163 704.133 166.4 703.533 171.8 703.133C182.2 702.333 199.6 698.133 213.5 692.933C223 689.333 250.4 676.333 252.5 674.333C254.1 672.733 255.2 673.333 254.5 675.633Z" fill="#5C658D"/>
<path d="M137 718.933C137.6 724.433 139.5 735.633 141.1 743.833C142.7 752.033 143.8 758.933 143.5 759.333C142.5 760.333 122.8 759.433 112.2 757.833C90.7 754.733 73.5 747.733 58 736.033C49.3 729.433 34.2 714.733 37.2 715.733C42 717.433 65.9 718.633 83.3 718.133C103.6 717.533 114.7 715.833 128.5 711.133C132.4 709.733 135.6 708.733 135.7 708.833C135.7 708.833 136.3 713.433 137 718.933Z" fill="#5C658D"/>
<path d="M309.5 370.533C363 375.133 432.7 397.133 490.7 427.633L500 432.633V440.733C500 451.733 498.3 473.633 496.4 486.433C493.3 507.933 486.4 531.633 476.7 554.533C471.1 567.533 456.3 598.433 455.7 598.433C454.8 598.433 255.6 482.233 254.3 481.033C253.5 480.233 253.4 474.833 253.9 460.433C254.7 440.133 254.2 436.333 250.8 435.633C249.8 435.433 240.3 439.833 229.7 445.333L210.3 455.433L171.4 432.333C150 419.633 132.3 409.033 132.1 408.833C131.5 408.233 152.7 398.433 167 392.633C217.5 372.233 257.7 366.033 309.5 370.533Z" fill="#5C658D"/>
<path d="M651 430.633C653.5 439.633 653.6 439.433 643 442.633C629.6 446.533 606.5 451.133 593.2 452.533C586.3 453.233 574.6 453.433 563.7 453.133C544.2 452.533 533.5 450.833 517.1 445.633L508.5 442.833L508.2 436.533C507.9 430.933 508.1 430.333 509.7 430.833C516.3 432.833 534.2 436.733 543.5 438.033C558.5 440.233 589.4 439.533 606.9 436.533C619.1 434.433 640.4 429.433 645.1 427.533C649.1 425.933 649.9 426.333 651 430.633Z" fill="#5C658D"/>
<path d="M646.9 415.633C647 417.533 641 419.633 623 423.833C601.4 428.833 591.9 429.933 568.5 429.833C548.5 429.833 545.4 429.633 534 427.133C527.1 425.633 518.6 423.633 515 422.633L508.5 420.733L507.9 414.333C507.5 410.833 507.4 407.733 507.5 407.533C507.7 407.433 512.7 408.433 518.7 409.833C538.7 414.533 548.4 415.733 567.5 415.733C588.8 415.633 606.4 413.333 628.8 407.633L643.5 403.833L645.2 408.933C646.1 411.633 646.9 414.733 646.9 415.633Z" fill="#5C658D"/>
<path d="M719.5 81.4326C759.8 83.8326 796.2 90.0326 823.7 99.0326L831.5 101.533L866.2 140.433C885.3 161.833 901.1 179.733 901.2 180.233C901.4 180.733 891.3 195.533 878.8 213.133C866.2 230.833 856 246.133 856 247.233C856 251.933 856.6 251.933 897.8 249.833C925.3 248.333 936.8 248.133 937.7 248.833C938.3 249.433 944.7 264.333 952 281.933C961.9 305.933 965 314.633 964.6 316.733C962.6 326.733 931.9 382.033 917.9 400.733C917.6 401.233 913 398.433 907.7 394.633C881.5 375.633 853.6 362.533 828.5 357.533C802.7 352.433 771.6 352.233 667.1 356.933C638.3 358.233 635.5 358.433 633.7 360.233C631.8 362.233 631.8 362.333 636.4 377.833C638.9 386.433 641 393.833 641 394.233C641 395.333 615.1 401.833 602 404.033C587.4 406.533 556 407.033 542.5 405.033C530.1 403.233 508.2 398.133 507.1 396.833C506.7 396.333 505.5 389.633 504.6 381.933C499.8 343.333 487.8 294.933 473.7 257.433C470.7 249.433 468 242.233 467.6 241.333C467 240.033 467.9 239.633 472.7 239.033C475.9 238.633 483.9 237.233 490.5 235.933C563.3 221.233 628 179.033 652.6 130.233C659.4 116.633 661.5 108.233 661.5 93.7326V81.5326L666 81.1326C676 80.3326 703.5 80.5326 719.5 81.4326Z" fill="#5C658D"/>
<path d="M588.1 34.4326C610.2 38.6326 625.4 45.8326 637.1 57.4326C649.3 69.5326 653.8 81.0326 652.7 97.4326C651 122.833 633.2 150.833 603.6 174.633C589.8 185.733 590.5 185.633 582.3 180.133C551.4 159.533 533.5 123.833 535.3 86.5326C536.2 68.4326 541.2 51.8326 550.3 36.5326L553.5 31.1326L565.5 31.7326C572.2 32.1326 582.3 33.3326 588.1 34.4326Z" fill="#5C658D"/>
<path d="M542 32.8326C542 33.0326 540 37.4326 537.5 42.6326C523.8 71.5326 522.9 104.833 534.9 134.933C543 155.133 558.8 174.733 576.2 186.433L582 190.233L574.2 194.833C553.9 206.733 521.7 219.933 500.4 225.033L490.2 227.433L478.4 221.533C449.5 207.033 430.4 183.633 421.9 152.533C419.2 142.733 418.2 120.633 420 109.633C421.6 99.6326 425.4 87.6326 429.6 79.3326C433 72.5326 440.9 60.5326 443.2 58.6326C445.2 57.1326 462.2 50.0326 473.7 46.0326C486.4 41.6326 509.5 35.9326 522 34.0326C531 32.7326 542 32.0326 542 32.8326Z" fill="#5C658D"/>
<path d="M425 68.9326C425 69.2325 424.4 70.5326 423.6 71.7326C422.8 72.9326 420.7 77.5326 419 81.8326C397.2 136.333 417.1 195.733 467 225.333L475.2 230.233L468.4 231.133C464.6 231.533 451.8 231.933 440 231.833C422 231.833 416.9 231.433 408.9 229.633C396.3 226.933 388.2 224.133 378.5 219.433C367.6 214.033 360 207.833 354 199.233C347.4 189.833 344.9 181.733 344.9 169.933C344.8 148.233 354.6 128.233 375.8 106.233C388.3 93.3326 396.3 86.6326 411.8 76.3326C422.9 68.9326 425 67.7325 425 68.9326Z" fill="#5C658D"/>
<path d="M859.7 112.133C883.4 122.033 921.8 143.333 948 161.233C959.7 169.233 983.2 186.733 991 193.333L994.4 196.233L993.1 206.533C991.3 221.833 987.5 241.833 983 259.933C978.9 276.833 971 302.433 970.1 302.433C969.8 302.433 963.9 288.633 957 271.833C947.3 248.033 944 240.933 942.3 240.133C940.7 239.433 929.7 239.633 905.6 240.933C886.7 241.833 870.7 242.533 870.1 242.333C869.4 242.033 877.9 229.233 889.9 212.233C903.8 192.833 911 181.833 911 180.133C911 177.733 908.7 175.033 860.8 121.633C854.2 114.433 849.3 108.433 849.8 108.433C850.4 108.433 854.8 110.133 859.7 112.133Z" fill="#FFD84C"/>
<path d="M951 765.933C953.3 766.733 956.8 767.433 958.7 767.433C961.9 767.433 962.3 767.833 964.6 772.833C968.8 782.133 970.2 791.333 969.7 805.933C968.9 828.233 962.3 846.333 950.9 857.733C943.4 865.133 937.7 867.733 928.6 867.833L921.6 867.933L920.3 859.633C918.8 850.133 917.7 847.433 915.1 847.433C913.3 847.433 907.2 853.433 901.9 860.233C899.1 863.833 896.6 863.833 895.4 860.133C895 858.933 892.8 853.833 890.5 848.833C884.6 836.233 882.2 835.633 876.8 845.533C875 848.833 872.9 851.433 872 851.433C869.8 851.333 848 846.733 847.5 846.233C847.2 846.033 848.9 841.333 851.1 835.833C856.1 823.533 861.2 807.033 863.8 794.133C864.9 788.633 866 784.133 866.2 784.033C866.4 783.933 868.6 783.933 871.2 784.233L876 784.633L875.2 788.833C874.3 794.233 874.3 819.033 875.3 820.033C876.6 821.333 876.9 820.033 878 810.333C879.4 796.733 881.8 787.533 885.9 779.233C889.2 772.633 889.7 771.933 892 772.433C893.4 772.733 898.6 772.933 903.5 772.933C910.6 772.933 913.5 772.433 917.3 770.733C919.9 769.533 922 767.933 922 767.133C922 766.033 923.4 765.833 928.8 766.133C932.5 766.433 937.1 766.233 939 765.633C944 764.133 946.2 764.233 951 765.933Z" fill="#3D4156"/>
<path d="M964.7 750.833L965.3 761.733L959.1 761.233C952.2 760.733 950.4 759.533 949.5 754.433C948.8 750.633 951.2 746.233 958.7 737.533L962.4 733.133L963.2 736.533C963.7 738.433 964.3 744.833 964.7 750.833Z" fill="#7F7F7F"/>
<path d="M911.1 753.533C913.3 758.833 915 763.633 915 764.233C915 765.833 904.3 767.733 899.3 766.933L894.8 766.233L895.4 761.433C896 756.733 899.5 745.633 902 740.133L903.3 737.433L905.3 740.633C906.4 742.433 909 748.233 911.1 753.533Z" fill="#7F7F7F"/>
<path d="M935.8 735.233C937.5 739.533 939.8 746.233 940.9 750.133C943.1 758.333 943.3 758.133 934.1 759.033C929.3 759.533 920 758.133 920 756.933C920 756.733 921.1 752.933 922.5 748.433C925.7 738.633 930.6 727.433 931.8 727.433C932.3 727.433 934.1 730.933 935.8 735.233Z" fill="#7F7F7F"/>
<path d="M864.5 533.033C865.3 533.333 864 535.233 860.9 538.133C851.8 546.633 845.8 562.933 848 572.933C850 582.033 852.2 584.633 862 589.833L868.3 593.233L863.1 594.333C860.2 594.933 855.9 595.433 853.5 595.433C849.2 595.433 849 595.333 848 591.433C846.3 585.033 837.1 557.733 832.9 546.533C830.8 540.833 829 536.033 829 535.833C829 535.533 842 532.733 846.5 532.033C849.8 531.533 862.5 532.333 864.5 533.033Z" fill="#3D4156"/>
<path d="M889.7 541.533C895 543.733 902.9 551.133 907.1 557.533C913.6 567.633 916.1 582.433 914.1 597.933C913.4 602.833 912.6 607.233 912.4 607.633C912.1 608.133 909.3 606.133 906.2 603.333C898.2 595.933 891.5 591.933 879.1 587.033C858.9 578.833 857 577.133 857 567.533C857 558.433 862 548.533 869.5 542.833C875.5 538.233 881.3 537.833 889.7 541.533Z" fill="#7F7F7F"/>
<path d="M872.1 430.933C845.5 453.533 811.7 468.733 769.5 477.133C755.3 479.933 751.8 481.433 759.6 481.433C764.2 481.433 781.7 479.333 789.4 477.933L792.9 477.233L798.3 488.033C802.55 496.517 806.691 505.388 810.685 514.533C770.938 518.138 744.985 508.677 694.5 477.133C783.874 470.319 825.497 461.739 872.1 430.933Z" fill="#812731"/>
<path d="M490.7 427.633L500 432.633V440.733C500 451.733 498.3 473.633 496.4 486.433C493.3 507.933 486.4 531.633 476.7 554.533C471.1 567.533 456.3 598.433 455.7 598.433C455.381 598.433 430.073 583.79 397.5 564.847C433.297 519.934 446.258 487.66 447.792 424C447.919 418.734 447.968 413.253 447.945 407.533C454.042 410.089 460.09 412.747 466.061 415.5C474.449 419.366 482.686 423.418 490.7 427.633Z" fill="#3D4156"/>
<path d="M473.7 257.433C470.7 249.433 468 242.233 467.6 241.333C467 240.033 467.9 239.633 472.7 239.033C475.9 238.633 483.9 237.233 490.5 235.933C563.3 221.233 628 179.033 652.6 130.233C623.277 225.455 587.367 261.298 484.776 290.5C481.315 278.938 477.587 267.771 473.7 257.433Z" fill="#3D4156"/>
<path d="M439.545 202.958C447.29 211.524 456.478 219.091 467 225.333L475.2 230.233L468.4 231.133C464.6 231.533 451.8 231.933 440 231.833C422 231.833 416.9 231.433 408.9 229.633C396.3 226.933 388.2 224.133 378.5 219.433C367.6 214.033 360 207.833 354 199.233C347.4 189.833 344.9 181.733 344.9 169.933C359.403 199.037 396.211 207.468 439.545 202.958Z" fill="#3D4156"/>
<path d="M555.32 167.76C561.677 175.04 568.793 181.452 576.2 186.433L582 190.233L574.2 194.833C553.9 206.733 521.7 219.933 500.4 225.033L490.2 227.433L478.4 221.533C467.603 216.115 458.174 209.456 450.155 201.617C484.504 196.538 522.013 184.05 555.32 167.76Z" fill="#3D4156"/>
<path d="M652.7 97.4326C651 122.833 633.2 150.833 603.6 174.633C589.8 185.733 590.5 185.633 582.3 180.133C575.232 175.42 568.843 169.918 563.216 163.787C608.932 140.116 645.221 109.533 651.757 82C652.793 86.7125 653.079 91.7816 652.7 97.4326Z" fill="#3D4156"/>
<path d="M809.4 887.233L801.5 895.633L792.1 892.533C777.2 887.633 767.6 882.033 758.9 873.433C753.578 868.111 749.756 862.984 745.838 854.833C772.914 868.107 809.197 890.634 831.038 857.634C824.644 868.808 817.386 878.771 809.4 887.233Z" fill="#3D4156"/>
<path d="M901.9 980.733C893.3 989.333 889 990.933 875.5 990.833C862.2 990.733 852.3 988.033 835.5 980.033C827.6 976.233 821.8 974.233 815.2 972.933C808.9 971.733 805.6 970.633 805 969.533C804.5 968.633 803.7 963.333 803 957.833C802.694 954.999 802.519 952.281 802.479 949.661L823 953.933C854.5 986.533 885.08 991.089 910 970.192C907.656 974.153 904.95 977.683 901.9 980.733Z" fill="#3D4156"/>
<path d="M794.5 948C794.5 948.143 794.5 948.287 794.5 948.433C794.5 955.833 794.8 963.433 795.2 965.133C796.1 968.933 795.8 969.033 788.1 967.333C783.118 966.336 783.1 966.233 782.309 961.682L782.3 961.633C781.9 959.033 781.5 951.733 781.5 945.433C781.5 945.386 781.5 945.34 781.5 945.294L794.5 948Z" fill="#3D4156"/>
<path d="M772.539 943.429C772.409 947.04 772.527 950.726 772.9 954.433C773.5 959.633 773.8 964.033 773.6 964.133C773.4 964.333 771 963.933 768.2 963.333C762.3 962.133 762.3 962.133 761.1 949.833C760.866 946.988 760.766 943.974 760.797 940.984L772.539 943.429Z" fill="#3D4156"/>
<path d="M752.222 939.2C751.99 944.615 752.153 949.963 752.8 953.933C753.3 957.233 753.7 960.033 753.6 960.133C753.4 960.333 742 958.133 728.2 955.333L703.1 950.333L690.8 952.833C668 957.533 655.4 958.733 634 958.133C599 957.133 571 950.333 539.5 935.033C477.7 905.133 438.6 854.833 425.1 787.933C421.8 771.333 420.7 756.733 421.3 736.033C436.5 867.033 534.251 934.121 702.9 928.933L752.222 939.2Z" fill="#3D4156"/>
<path d="M425.3 824.133C425.7 824.033 427.5 827.533 429.3 831.933C449.3 879.933 483.7 916.533 531.8 941.033L542.5 946.433H523.5C492 946.433 452.9 943.633 422.5 939.333C334.8 926.933 263 896.533 209.6 849.233L204.8 844.933L207.3 838.733C209.9 832.234 214.677 825.009 219.219 820.221C269.718 866.39 341.069 892.71 429.3 910C409.753 889.49 394.325 871.379 388.5 849.276C386.743 842.611 385.86 835.582 386 828.016C401.007 826.993 420.648 825.08 425.3 824.133Z" fill="#3D4156"/>
<path d="M213.138 814.466C207.495 819.98 203.027 826.344 200.3 832.933C199.3 835.433 198.2 837.333 197.9 837.133C196.3 836.533 184.9 822.633 184.4 820.633C183.5 817.333 187.5 808.233 192.2 802.933C193.889 801.008 195.733 799.345 197.785 797.914C202.645 803.688 207.764 809.2 213.138 814.466Z" fill="#3D4156"/>
<path d="M192.481 791.375C187.041 795.254 182.384 800.516 179.8 805.833C178.6 808.333 177.3 810.433 176.9 810.433C176.5 810.433 174 806.733 171.4 802.333L166.7 794.233L168.5 790.733C171.842 784.516 176.256 779.909 181.922 776.73C185.276 781.782 188.797 786.662 192.481 791.375Z" fill="#3D4156"/>
<path d="M177.281 769.455C173.513 771.489 171.373 773.458 168 777.133C161.2 784.633 161.9 785.133 156.7 769.433C152 755.233 148.2 737.933 146 720.433C144.241 706.166 142.578 682.732 143.342 682.416C150.692 715.917 162.098 744.676 177.281 769.455Z" fill="#3D4156"/>
<path d="M137 718.933C137.6 724.433 139.5 735.633 141.1 743.833C142.7 752.033 143.8 758.933 143.5 759.333C142.5 760.333 122.8 759.433 112.2 757.833C90.7 754.733 73.5 747.733 58 736.033C49.8732 729.867 36.162 716.635 36.8357 715.733C36.8357 715.733 63.2063 732.212 82 738C98.4441 743.065 125.5 747.5 125.5 747.5C121.45 732.99 121.769 725.058 121.5 713.318C123.794 712.673 126.106 711.948 128.5 711.133C132.4 709.733 135.6 708.733 135.7 708.833C135.7 708.833 136.3 713.433 137 718.933Z" fill="#3D4156"/>
<path d="M239.2 705.533C243.9 698.433 252.9 680.833 254.5 675.633C255.2 673.333 254.1 672.733 252.5 674.333C251.597 675.192 246.021 678.084 239.2 681.388C236 699.5 222.5 722 187.6 746.433C187.9 746.433 190.9 745.033 194.3 743.333C211.7 734.633 230 719.233 239.2 705.533Z" fill="#9F95DA"/>
<path d="M183.2 754.833C170.4 737.933 158.2 716.533 149 694.933C146.1 688.333 143.6 682.733 143.4 682.433C143.395 682.428 143.39 682.424 143.385 682.422C143.37 682.413 143.356 682.411 143.342 682.417C155.892 715.616 167.407 743.586 183.325 766.634C184.624 766.083 186.071 765.49 187.7 764.833C189.9 763.933 189.8 763.633 183.2 754.833Z" fill="#9F95DA"/>
<path d="M207.3 784.433C208.3 784.433 209 784.133 208.8 783.633C208.7 783.233 205.8 780.433 202.5 777.333L196.5 771.633L191.3 773.033C190.366 773.275 189.456 773.542 188.57 773.833C192.139 778.476 195.931 782.9 199.995 787.11C203.296 785.566 206.431 784.433 207.3 784.433Z" fill="#9F95DA"/>
<path d="M233 800.833L226 796.133C218.4 791.133 216.5 790.733 209 792.833C208.185 793.059 207.394 793.301 206.626 793.559C211.663 798.158 217.1 802.473 223.014 806.508C224.565 805.484 226.163 804.523 227.8 803.633L233 800.833Z" fill="#9F95DA"/>
<path d="M379.2 828.433C331 830.933 282.4 823.733 250.4 809.433C246.8 807.733 243.3 806.433 242.6 806.433C241.384 806.433 236.177 808.948 231.194 811.725C265.082 831.921 313.548 844.215 388.5 849.276C386.743 842.611 385.86 835.583 386 828.016C383.586 828.18 381.292 828.322 379.2 828.433Z" fill="#9F95DA"/>
<path d="M167 392.633C152.7 398.433 131.5 408.233 132.1 408.833C250.8 361.976 338 381.933 447.792 424C447.919 418.734 447.968 413.253 447.945 407.533C400.631 387.698 350.344 374.044 309.5 370.533C257.7 366.033 217.5 372.233 167 392.633Z" fill="#9F95DA"/>
<path d="M423.6 71.7327C424.4 70.5327 425 69.2326 425 68.9326C425 67.7326 422.9 68.9326 411.8 76.3326C396.3 86.6326 388.3 93.3327 375.8 106.233C368.466 113.843 362.496 121.215 357.829 128.5C377.326 109.147 398.013 93.5261 419.207 81.3122C420.867 77.1679 422.832 72.8844 423.6 71.7327Z" fill="#9F95DA"/>
<path d="M537.5 42.6326C540 37.4326 542 33.0326 542 32.8326C542 32.0326 531 32.7327 522 34.0327C509.5 35.9327 486.4 41.6327 473.7 46.0327C462.2 50.0327 445.2 57.1326 443.2 58.6326C441.415 60.107 436.258 67.6632 432.449 74.1519C466.878 56.732 502.259 47.9748 535.746 46.5187C536.305 45.215 536.89 43.9195 537.5 42.6326Z" fill="#9F95DA"/>
<path d="M637.1 57.4326C625.4 45.8326 610.2 38.6326 588.1 34.4326C582.3 33.3326 572.2 32.1327 565.5 31.7327L553.5 31.1326L550.3 36.5327C548.398 39.7312 546.674 42.9865 545.13 46.3004C584.428 46.1859 620.68 56.1783 649.127 74.0001C649.116 73.9757 649.105 73.9518 649.094 73.9274C646.531 68.2155 642.597 62.885 637.1 57.4326Z" fill="#9F95DA"/>
<path d="M823.7 99.0327C796.2 90.0327 759.8 83.8326 719.5 81.4326C703.5 80.5326 676 80.3326 666 81.1326L661.5 81.5327V93.7327C740.116 91.2694 800.966 104.029 851.468 123.917L831.5 101.533L823.7 99.0327Z" fill="#9F95DA"/>
<path d="M964.6 316.733C964.802 315.672 964.112 312.93 962.105 307.385C952.288 337.146 938.591 367.179 917.9 400.733C931.9 382.033 962.6 326.733 964.6 316.733Z" fill="#9F95DA"/>
<path d="M702 791.665V791.665C713.98 800.4 715.81 869.208 766.226 900.318C766.805 899.606 767.397 898.91 768 898.233L772 893.633L766.4 890.333C758.3 885.733 747.7 875.333 742.6 867.033C736.8 857.733 734.3 851.533 724.8 823.433C717.5 801.733 712.2 788.733 708.7 784.033C707.5 782.333 707.2 782.533 705.6 786.833C704.582 789.489 703.642 791.047 702 791.665Z" fill="#9F95DA"/>
<path d="M789.8 900.733L786.2 899.533L786.199 899.532C784.099 898.832 782 898.133 781.4 897.833C780.179 897.304 777.168 900.27 773.886 904.555C777.042 906.111 780.367 907.528 783.87 908.789C784.348 908.114 784.829 907.454 785.3 906.833L789.8 900.733Z" fill="#9F95DA"/>
<path d="M809 906.133C809 905.833 807.5 905.333 805.8 904.933C804 904.533 801.8 904.133 800.9 903.833C799.299 903.382 795.893 906.739 792.452 911.459C796.029 912.406 799.771 913.201 803.69 913.828C804.501 912.53 805.311 911.353 806.1 910.333C807.7 908.333 809 906.433 809 906.133Z" fill="#9F95DA"/>
<path d="M822.9 907.633C819.6 907.333 818.9 907.733 815 912.633C814.379 913.415 813.783 914.198 813.21 914.985C817.211 915.324 821.379 915.5 825.721 915.5C825.721 915.497 825.721 915.494 825.721 915.491C825.795 914.029 825.888 912.805 826 911.933C826.5 907.933 826.5 907.933 822.9 907.633Z" fill="#9F95DA"/>
<path d="M948 161.233C921.8 143.333 883.4 122.033 859.7 112.133C854.8 110.133 850.4 108.433 849.8 108.433C849.3 108.433 854.2 114.433 860.8 121.633C863.979 125.177 866.957 128.497 869.747 131.61C914.422 151.624 950.946 176.935 985.279 201.04C980.281 234.394 974.977 264.305 966.27 294.004C968.506 299.218 969.955 302.433 970.1 302.433C971 302.433 978.9 276.833 983 259.933C987.5 241.833 991.3 221.833 993.1 206.533L994.4 196.233L991 193.333C989.915 192.414 988.526 191.285 986.907 190L986.854 189.958C976.824 181.999 958.055 168.108 948 161.233Z" fill="#FBE183" fill-opacity="0.6"/>
<path fill-rule="evenodd" clip-rule="evenodd" d="M627.8 246.333C625.7 249.233 626.2 250.833 633 264.933C650.2 300.233 672.5 320.233 702.5 327.533C719.9 331.633 740.7 329.433 757.5 321.533C779.7 311.133 794.5 295.533 807.7 268.833C814.9 254.233 816.4 248.233 813.4 246.633C812.2 246.033 776.7 245.333 720.4 244.933L629.3 244.233L627.8 246.333ZM665.7 253.433H654.5C648.3 253.433 641.8 253.133 640 252.833C637 252.133 636.8 252.233 637.5 254.533C638.7 258.733 648.1 275.733 652.8 282.433C668.8 305.133 690.2 318.333 715 321.033C718.6 321.433 721.3 321.433 721 321.133C720.7 320.833 716.4 317.933 711.3 314.533C700.5 307.233 689.1 296.333 681.9 286.233C676.5 278.633 668.7 263.633 666.8 257.233L665.7 253.433ZM742.6 295.333C736 288.133 731.4 275.333 730.1 260.933L729.5 253.933L702.2 253.633L674.9 253.433L675.5 255.633C677 260.933 683.3 273.033 688.1 279.933C694 288.433 707.9 302.233 716.2 307.733C719.4 309.833 725.7 313.333 730.3 315.533L738.7 319.533L745 317.433C768.4 309.533 786.2 292.833 799.4 266.633C801.5 262.533 803.5 258.133 804 256.833L805 254.433H794.5H784.1L783.5 260.133C782 273.733 776.7 288.633 771.2 295.133C767.2 299.733 761.9 302.433 756.8 302.433C750.8 302.433 747.5 300.833 742.6 295.333ZM769.4 281.433C772.2 275.333 775 262.833 775 256.833V253.433H756.4H737.8L738.5 259.633C739.4 268.433 742.7 280.133 745.5 285.033C748.6 290.333 753.4 294.433 756.6 294.433C760.2 294.433 766.4 288.233 769.4 281.433Z" fill="black"/>
<path d="M654.5 253.433H665.7L666.8 257.233C668.7 263.633 676.5 278.633 681.9 286.233C689.1 296.333 700.5 307.233 711.3 314.533C716.4 317.933 720.7 320.833 721 321.133C721.3 321.433 718.6 321.433 715 321.033C690.2 318.333 668.8 305.133 652.8 282.433C648.1 275.733 638.7 258.733 637.5 254.533C636.8 252.233 637 252.133 640 252.833C641.8 253.133 648.3 253.433 654.5 253.433Z" fill="black"/>
<path d="M775 256.833C775 262.833 772.2 275.333 769.4 281.433C766.4 288.233 760.2 294.433 756.6 294.433C753.4 294.433 748.6 290.333 745.5 285.033C742.7 280.133 739.4 268.433 738.5 259.633L737.8 253.433H756.4H775V256.833Z" fill="black"/>
<path d="M730.1 260.933C731.4 275.333 736 288.133 742.6 295.333C747.5 300.833 750.8 302.433 756.8 302.433C761.9 302.433 767.2 299.733 771.2 295.133C776.7 288.633 782 273.733 783.5 260.133L784.1 254.433H794.5H805L804 256.833C803.5 258.133 801.5 262.533 799.4 266.633C786.2 292.833 768.4 309.533 745 317.433L738.7 319.533L730.3 315.533C725.7 313.333 719.4 309.833 716.2 307.733C707.9 302.233 694 288.433 688.1 279.933C683.3 273.033 677 260.933 675.5 255.633L674.9 253.433L702.2 253.633L729.5 253.933L730.1 260.933Z" fill="#FFD84C"/>
<circle cx="771" cy="263" r="6" fill="white"/>
</svg>
