<svg width="1024" height="1024" viewBox="0 0 1024 1024" fill="none" xmlns="http://www.w3.org/2000/svg">
<path d="M534.7 6.99988C461.9 12.4999 387.4 49.6999 350.4 98.9999C333.5 121.5 326.6 147.1 331.9 167.9C337 188.2 350.9 203.2 374.1 213.1C392.9 221.2 409.2 224.3 434.9 224.5L452.3 224.7L455.7 233.1C468.4 264.5 481.1 310.5 487.4 348.5C490.6 367.6 494.5 406 493.3 406C493.1 406 489.7 404.2 485.7 402.1C466.7 391.6 425.9 374.6 399.4 366C333.9 344.8 275.2 339 223.3 348.6C194.6 353.9 162.7 364.8 130.3 380.5C114.3 388.3 111.7 390.5 114.2 394.2C114.9 395.3 135.1 407.8 159 422.1C192.5 442.1 203.1 448 205 447.6C206.4 447.3 214.4 443.5 222.8 439.1C231.2 434.6 238.5 431 238.9 431C239.4 431 239.5 439.5 239.2 449.8L238.7 468.7L241.6 470.7C243.2 471.8 285.7 496.7 336 526C386.3 555.3 431.6 581.7 436.7 584.6L445.8 590L437.5 607.3C427.5 628.2 419.1 648.9 415.1 663C403.8 702.7 403.2 744.6 413.5 785.5C415.5 793.4 416.4 798.7 415.8 799.1C414.4 800 397.9 801.8 380 803.1C361.2 804.5 328 803.7 311.5 801.5C271.1 796.1 240.7 785.1 217.1 767.2C209.1 761.2 195.7 748.1 190.2 741.2L186.9 737.1L193.2 733.9C210.3 725.4 227.3 711.3 238.3 696.5C248 683.5 261.6 653.1 260.8 646.2C260.3 641.6 256.2 642.1 246.5 648C234.5 655.2 211.4 666.2 199.1 670.4C186.9 674.7 172.7 677.7 160.8 678.6L152.3 679.3L147.2 666.4C144.5 659.3 141.9 652.4 141.5 651C141.1 649.6 139.9 646.1 138.8 643.2C137.1 638.6 136.5 638 134 638C132.1 638 130.7 638.7 130 639.9C129.4 641.1 129 650.3 129 662.8V683.7L118.7 686.9C93.9 694.7 63.5 695.8 28.8 690.4C17.2 688.5 15 689 15 693.4C15 696.1 26.6 709.3 37 718.5C62 740.6 87.4 750.1 126.8 751.9L141.1 752.5L144.9 762.5C154.8 788.6 168.7 809.7 190.5 831.6C237 878.4 309.8 913 393 927.9C434.6 935.3 497.8 940 539 938.7C556.7 938.1 557.8 938.2 565.5 940.5C587.1 947.2 609.7 950.4 634.5 950.4C654.3 950.4 660.1 949.8 683.6 945.3L697.7 942.7L756.1 954.4L814.5 966.1L826 971.4C847.4 981.4 863.9 985.1 877.4 983C887.9 981.4 894.2 978.1 902 970.1C922.2 949.6 929.7 908.1 918.5 878.4C917 874.4 916 869.7 916 866.6V861.4L924.6 860.2C936.5 858.6 942.8 855.5 951 847.1C971.2 826.6 978.7 785.1 967.5 755.4C965.5 750.1 965 746.9 965 739.6C965 730.1 962.7 713.1 960.9 709.9C958.7 705.7 955.3 708.3 942.7 723.4L940.3 726.4L939 722.4C936.6 714.9 929.3 700.3 927.6 699.7C926.7 699.3 925.3 699.3 924.5 699.6C922.8 700.3 916.4 711.7 913 720.2C911.5 723.8 910 726 909.1 726C908.2 726 906 723.2 904 719.4C898.3 708.7 895.8 708.6 891.1 719C887.8 726.5 884 737.2 884 739.2C884 739.9 882.2 743.1 880.1 746.4C878 749.6 875.4 754 874.4 756.2L872.6 760.2L867.1 759.5C864 759.1 861.4 758.7 861.4 758.7C861.3 758.6 861.7 755.6 862.3 752C862.9 748.3 863.4 731.8 863.4 713.5C863.4 685.8 863.1 679.2 861.2 664.5C858.4 644.2 854.1 621.5 849.4 602.8C847.5 595.3 846 588.9 846 588.7C846 588.5 849.1 588 852.9 587.7C856.7 587.4 863.1 586 867.2 584.6C871.3 583.2 875.4 582 876.2 582C879.3 582 892.7 591.9 899.8 599.4C903.7 603.6 907.5 607 908.3 607C911.8 607 914.1 601.7 916.5 587.6C920.7 562.8 915.9 542.5 902 527.7C897.6 523 893.7 520 888.8 517.5C884.9 515.6 881.1 514 880.3 514C879.5 514 874 512.3 868.2 510.2C858 506.7 856.9 506.5 846 506.6C838.4 506.7 832 507.4 826.9 508.7L819.3 510.7L814 498.1C811 491.2 805.8 479.7 802.3 472.6C798.8 465.5 796.1 459.6 796.3 459.4C796.5 459.2 801.2 457.7 806.8 456C818.8 452.5 829.4 448.3 838.8 443.6C856.2 434.9 876.8 418.1 893.1 399.6L902.3 389.1L906 392.1C912.4 397.3 914.1 396.4 923.1 383C945.9 349.5 963.7 314.5 975.1 281C984.1 254.6 994.4 208.2 996.6 183.9L997.2 176.3L990.4 170.4C964.3 148 919.6 118.5 885.2 101.1C840.1 78.2999 801.5 66.3999 753 60.0999C729.1 56.9999 712.1 55.9999 680.8 55.9999H652.1L648.9 49.6999C646.8 45.6999 642.6 40.4999 637 34.9999C630.1 28.0999 626.6 25.4999 618.5 21.2999C613 18.4999 604.7 14.9999 600 13.4999C582.2 7.99988 556.5 5.39988 534.7 6.99988ZM582.1 17.9999C604.2 22.1999 619.4 29.3999 631.1 40.9999C643.3 53.0999 647.8 64.5999 646.7 80.9999C645 106.4 627.2 134.4 597.6 158.2C583.8 169.3 584.5 169.2 576.3 163.7C545.4 143.1 527.5 107.4 529.3 70.0999C530.2 51.9999 535.2 35.3999 544.3 20.0999L547.5 14.6999L559.5 15.2999C566.2 15.6999 576.3 16.8999 582.1 17.9999ZM536 16.3999C536 16.5999 534 20.9999 531.5 26.1999C517.8 55.0999 516.9 88.3999 528.9 118.5C537 138.7 552.8 158.3 570.2 170L576 173.8L568.2 178.4C547.9 190.3 515.7 203.5 494.4 208.6L484.2 211L472.4 205.1C443.5 190.6 424.4 167.2 415.9 136.1C413.2 126.3 412.2 104.2 414 93.1999C415.6 83.1999 419.4 71.1999 423.6 62.8999C427 56.0999 434.9 44.0999 437.2 42.1999C439.2 40.6999 456.2 33.5999 467.7 29.5999C480.4 25.1999 503.5 19.4999 516 17.5999C525 16.2999 536 15.5999 536 16.3999ZM419 52.4999C419 52.7999 418.4 54.0999 417.6 55.2999C416.8 56.4999 414.7 61.0999 413 65.3999C391.2 119.9 411.1 179.3 461 208.9L469.2 213.8L462.4 214.7C458.6 215.1 445.8 215.5 434 215.4C416 215.4 410.9 215 402.9 213.2C390.3 210.5 382.2 207.7 372.5 203C361.6 197.6 354 191.4 348 182.8C341.4 173.4 338.9 165.3 338.9 153.5C338.8 131.8 348.6 111.8 369.8 89.7999C382.3 76.8999 390.3 70.1999 405.8 59.8999C416.9 52.4999 419 51.2999 419 52.4999ZM713.5 64.9999C753.8 67.3999 790.2 73.5999 817.7 82.5999L825.5 85.0999L860.2 124C879.3 145.4 895.1 163.3 895.2 163.8C895.4 164.3 885.3 179.1 872.8 196.7C860.2 214.4 850 229.7 850 230.8C850 235.5 850.6 235.5 891.8 233.4C919.3 231.9 930.8 231.7 931.7 232.4C932.3 233 938.7 247.9 946 265.5C955.9 289.5 959 298.2 958.6 300.3C956.6 310.3 925.9 365.6 911.9 384.3C911.6 384.8 907 382 901.7 378.2C875.5 359.2 847.6 346.1 822.5 341.1C796.7 336 765.6 335.8 661.1 340.5C632.3 341.8 629.5 342 627.7 343.8C625.8 345.8 625.8 345.9 630.3 361.1C657.4 453 672.1 529.3 681.4 627C683.6 650.2 684.4 660.1 686.9 697.5C687.3 704.1 688 710.2 688.3 711C688.8 712.1 686.8 713.8 680.7 717.2C676.2 719.9 671.3 722.7 669.9 723.6C667.4 725.2 666.9 725.2 660.4 722.6C656.6 721.1 649.7 718.8 645 717.6L636.5 715.4L627 697.1C615.9 675.9 613.5 672.4 610.2 673.4C607.5 674.3 601.2 686.3 593.9 704.4L589.1 716.3L580.7 719C570.2 722.4 558.3 728.7 548.3 736.2C532.6 747.9 507.8 775 512.7 775C513 775 517.4 771.1 522.4 766.2C540.4 748.9 563 734 580.8 727.9C585.8 726.2 586.1 726.2 585.6 727.8C582.2 739.7 582.6 741.2 590.2 743.4C605.4 747.8 618.8 747.8 632 743.4C643.5 739.5 644.7 737.9 642 730.2C641 727.4 640.3 725 640.5 725C642.1 725 657 730.3 657.5 731C657.8 731.5 656 733.3 653.5 735.1C647.7 739.2 647 741.9 650.2 746.8C658.3 758.9 671.3 768.8 684.9 773.4C695.4 776.8 697.3 776.4 699.6 770.4C701.2 766.1 701.5 765.9 702.7 767.6C706.2 772.3 711.5 785.3 718.8 807C728.3 835.1 730.8 841.3 736.6 850.6C741.7 858.9 752.3 869.3 760.4 873.9L766 877.2L762 881.8C756.3 888.2 751.6 896.3 749 904C746.4 911.7 745.3 928.3 746.8 937.5C747.3 940.8 747.7 943.6 747.6 943.7C747.4 943.9 736 941.7 722.2 938.9L697.1 933.9L684.8 936.4C662 941.1 649.4 942.3 628 941.7C593 940.7 565 933.9 533.5 918.6C471.7 888.7 432.6 838.4 419.1 771.5C415.8 754.9 414.7 740.3 415.3 719.6C416.5 677.9 423.2 656.2 455.5 590C483.7 532.3 489.7 517.1 495.9 488C500.8 464.7 501.5 456.3 501.5 420C501.4 389.8 501.1 383.4 499.1 368.5C494.7 335.2 488 304.6 478.2 272C474.1 258.7 465.1 232.9 461.6 224.9C461 223.6 461.9 223.2 466.7 222.6C469.9 222.2 477.9 220.8 484.5 219.5C557.3 204.8 622 162.6 646.6 113.8C653.4 100.2 655.5 91.7999 655.5 77.2999V65.0999L660 64.6999C670 63.8999 697.5 64.0999 713.5 64.9999ZM853.7 95.6999C877.4 105.6 915.8 126.9 942 144.8C953.7 152.8 977.2 170.3 985 176.9L988.4 179.8L987.1 190.1C985.3 205.4 981.5 225.4 977 243.5C972.9 260.4 965 286 964.1 286C963.8 286 957.9 272.2 951 255.4C941.3 231.6 938 224.5 936.3 223.7C934.7 223 923.7 223.2 899.6 224.5C880.7 225.4 864.7 226.1 864.1 225.9C863.4 225.6 871.9 212.8 883.9 195.8C897.8 176.4 905 165.4 905 163.7C905 161.3 902.7 158.6 854.8 105.2C848.2 97.9999 843.3 91.9999 843.8 91.9999C844.4 91.9999 848.8 93.6999 853.7 95.6999ZM805.5 347C826 349.4 840.7 353.8 860.5 363.5C873.2 369.7 891.7 380.7 893.8 383.3C895.2 385 878.1 404.3 866.1 414.5C839.5 437.1 805.7 452.3 763.5 460.7C749.3 463.5 745.8 465 753.6 465C758.2 465 775.7 462.9 783.4 461.5L786.9 460.8L792.1 471.1C818.2 523.2 840.1 589.5 849.5 644.6C853.1 666.2 853.5 665.4 843.1 656.2C828.6 643.4 815.6 635.8 802 632.4C791.6 629.8 774.3 630.9 761.5 635C743.2 640.9 723.2 652.1 703.8 667.2L694.2 674.8L693.6 667.7C683.6 545.5 670.4 469.6 642.1 371C638.9 359.7 636.3 350.4 636.4 350.3C636.6 350.1 680.9 348.1 707.5 347.1C739.4 345.9 795.4 345.9 805.5 347ZM303.5 354.1C357 358.7 426.7 380.7 484.7 411.2L494 416.2V424.3C494 435.3 492.3 457.2 490.4 470C487.3 491.5 480.4 515.2 470.7 538.1C465.1 551.1 450.3 582 449.7 582C448.8 582 249.6 465.8 248.3 464.6C247.5 463.8 247.4 458.4 247.9 444C248.7 423.7 248.2 419.9 244.8 419.2C243.8 419 234.3 423.4 223.7 428.9L204.3 439L165.4 415.9C144 403.2 126.3 392.6 126.1 392.4C125.5 391.8 146.7 382 161 376.2C211.5 355.8 251.7 349.6 303.5 354.1ZM858.5 516.6C859.3 516.9 858 518.8 854.9 521.7C845.8 530.2 839.8 546.5 842 556.5C844 565.6 846.2 568.2 856 573.4L862.3 576.8L857.1 577.9C854.2 578.5 849.9 579 847.5 579C843.2 579 843 578.9 842 575C840.3 568.6 831.1 541.3 826.9 530.1C824.8 524.4 823 519.6 823 519.4C823 519.1 836 516.3 840.5 515.6C843.8 515.1 856.5 515.9 858.5 516.6ZM883.7 525.1C889 527.3 896.9 534.7 901.1 541.1C907.6 551.2 910.1 566 908.1 581.5C907.4 586.4 906.6 590.8 906.4 591.2C906.1 591.7 903.3 589.7 900.2 586.9C892.2 579.5 885.5 575.5 873.1 570.6C852.9 562.4 851 560.7 851 551.1C851 542 856 532.1 863.5 526.4C869.5 521.8 875.3 521.4 883.7 525.1ZM804.4 642C818.6 646.9 836.3 659.4 847 672.1L851.2 677.1L844.3 684.7C825.3 705.7 814 721.4 803.5 741.3C800.4 747.2 797.6 752 797.4 752C797.1 752 792.1 747.3 786.2 741.6C762 718 743.3 704.6 714.3 689.9L699.1 682.2L701.8 679.8C706 675.9 719.8 665.7 727.7 660.7C743.1 650.9 762.9 642.4 776.1 640.1C784.1 638.6 797.5 639.5 804.4 642ZM248.5 659.2C246.9 664.4 237.9 682 233.2 689.1C224 702.8 205.7 718.2 188.3 726.9C184.9 728.6 181.9 730 181.6 730C180.1 730 157 690.9 157 688.4C157 687.7 160.4 687.1 165.8 686.7C176.2 685.9 193.6 681.7 207.5 676.5C217 672.9 244.4 659.9 246.5 657.9C248.1 656.3 249.2 656.9 248.5 659.2ZM143 678.5C152.2 700.1 164.4 721.5 177.2 738.4C183.8 747.2 183.9 747.5 181.7 748.4C169.8 753.2 167.6 754.6 162 760.7C155.2 768.2 155.9 768.7 150.7 753C146 738.8 142.2 721.5 140 704C138.2 689.4 136.5 665.2 137.4 666C137.6 666.3 140.1 671.9 143 678.5ZM620 702C625.9 713.9 634.4 733 633.8 733.5C633.6 733.6 631.3 734.5 628.5 735.4C621.5 737.8 608 738.5 600 736.8C593.5 735.4 593.5 735.3 593.8 732.1C594.1 728 601.6 707.1 607 695.5C611.9 684.9 611.1 684.5 620 702ZM853.1 708.6C830.6 735.6 817.7 755.5 806.1 781.3C803.7 786.7 801.4 790.9 801 790.8C800.6 790.6 795.5 785.3 789.7 778.9C769.6 756.8 749.3 739.3 725.3 723.4C711.7 714.4 711.1 713.8 711.6 711.1C712.3 707.7 710.6 704 708.2 704C707.3 704 704.6 704.7 702.2 705.7C699.3 706.8 697.6 707 696.9 706.3C696.3 705.7 695.6 701.8 695.3 697.6L694.7 690L703.1 693.8C732.4 707.3 756 724 782.2 749.8C793.8 761.3 797.3 764.1 799.2 763.8C801 763.6 802.9 760.8 808.9 749.5C820.8 726.8 832.5 710.1 847.7 693.9L854.5 686.7L855.1 696.1C855.7 705.2 855.7 705.6 853.1 708.6ZM131 702.5C131.6 708 133.5 719.2 135.1 727.4C136.7 735.6 137.8 742.5 137.5 742.9C136.5 743.9 116.8 743 106.2 741.4C84.7 738.3 67.5 731.3 52 719.6C43.3 713 28.2 698.3 31.2 699.3C36 701 59.9 702.2 77.3 701.7C97.6 701.1 108.7 699.4 122.5 694.7C126.4 693.3 129.6 692.3 129.7 692.4C129.7 692.4 130.3 697 131 702.5ZM929.8 718.8C931.5 723.1 933.8 729.8 934.9 733.7C937.1 741.9 937.3 741.7 928.1 742.6C923.3 743.1 914 741.7 914 740.5C914 740.3 915.1 736.5 916.5 732C919.7 722.2 924.6 711 925.8 711C926.3 711 928.1 714.5 929.8 718.8ZM701.5 721.7C700.6 729.1 695.5 753.9 693.5 760.7C692.4 764.3 691.4 766 690.3 766C689.4 766 684.9 764.2 680.3 762C674 758.9 670.3 756.2 665 750.9C661.2 747 658 743.4 658 742.9C658 740.9 698 716.1 701.4 716C701.8 716 701.9 718.6 701.5 721.7ZM958.7 734.4L959.3 745.3L953.1 744.8C946.2 744.3 944.4 743.1 943.5 738C942.8 734.2 945.2 729.8 952.7 721.1L956.4 716.7L957.2 720.1C957.7 722 958.3 728.4 958.7 734.4ZM856 721.2C856 728.6 853.4 753.4 851.5 764.5C844.1 808 826.9 845.9 803.4 870.8L795.5 879.2L786.1 876.1C771.2 871.2 761.6 865.6 752.9 857C742.8 846.9 738.1 837.5 727.9 806.8C719.1 780.6 714.5 769.5 708.2 760.4L704.2 754.5L706.7 742C708 735.1 709.4 728.2 709.8 726.6L710.5 723.8L723.2 732.3C745.9 747.5 771.4 770.3 791.4 793.5C795.7 798.4 799.8 802.9 800.6 803.3C802.7 804.5 806 803.1 807 800.7C819.3 771.2 832.8 747.5 848.4 727.8C854.4 720.1 856 718.8 856 721.2ZM905.1 737.1C907.3 742.4 909 747.2 909 747.8C909 749.4 898.3 751.3 893.3 750.5L888.8 749.8L889.4 745C890 740.3 893.5 729.2 896 723.7L897.3 721L899.3 724.2C900.4 726 903 731.8 905.1 737.1ZM945 749.5C947.3 750.3 950.8 751 952.7 751C955.9 751 956.3 751.4 958.6 756.4C962.8 765.7 964.2 774.9 963.7 789.5C962.9 811.8 956.3 829.9 944.9 841.3C937.4 848.7 931.7 851.3 922.6 851.4L915.6 851.5L914.3 843.2C912.8 833.7 911.7 831 909.1 831C907.3 831 901.2 837 895.9 843.8C893.1 847.4 890.6 847.4 889.4 843.7C889 842.5 886.8 837.4 884.5 832.4C878.6 819.8 876.2 819.2 870.8 829.1C869 832.4 866.9 835 866 835C863.8 834.9 842 830.3 841.5 829.8C841.2 829.6 842.9 824.9 845.1 819.4C850.1 807.1 855.2 790.6 857.8 777.7C858.9 772.2 860 767.7 860.2 767.6C860.4 767.5 862.6 767.5 865.2 767.8L870 768.2L869.2 772.4C868.3 777.8 868.3 802.6 869.3 803.6C870.6 804.9 870.9 803.6 872 793.9C873.4 780.3 875.8 771.1 879.9 762.8C883.2 756.2 883.7 755.5 886 756C887.4 756.3 892.6 756.5 897.5 756.5C904.6 756.5 907.5 756 911.3 754.3C913.9 753.1 916 751.5 916 750.7C916 749.6 917.4 749.4 922.8 749.7C926.5 750 931.1 749.8 933 749.2C938 747.7 940.2 747.8 945 749.5ZM202.8 767.2C203 767.7 202.3 768 201.3 768C200.3 768 196.3 769.5 192.5 771.4C184.6 775.1 177.3 782.2 173.8 789.4C172.6 791.9 171.3 794 170.9 794C170.5 794 168 790.3 165.4 785.9L160.7 777.8L162.5 774.3C167.5 765 174.9 759.3 185.3 756.6L190.5 755.2L196.5 760.9C199.8 764 202.7 766.8 202.8 767.2ZM220 779.7L227 784.4L221.8 787.2C209.3 794 199.1 804.9 194.3 816.5C193.3 819 192.2 820.9 191.9 820.7C190.3 820.1 178.9 806.2 178.4 804.2C177.5 800.9 181.5 791.8 186.2 786.5C190.5 781.6 195.8 778.4 203 776.4C210.5 774.3 212.4 774.7 220 779.7ZM244.4 793C276.4 807.3 325 814.5 373.2 812C388.3 811.2 413.9 808.8 419.3 807.7C419.7 807.6 421.5 811.1 423.3 815.5C443.3 863.5 477.7 900.1 525.8 924.6L536.5 930H517.5C486 930 446.9 927.2 416.5 922.9C328.8 910.5 257 880.1 203.6 832.8L198.8 828.5L201.3 822.3C204.5 814.3 211 805.2 216.3 800.9C220.5 797.5 234.5 790 236.6 790C237.3 790 240.8 791.3 244.4 793ZM880.8 841.8C882.5 846.1 884.8 852.8 885.9 856.7C888.1 864.9 888.3 864.7 879.1 865.6C874.3 866.1 865 864.7 865 863.5C865 863.3 866.1 859.5 867.5 855C870.7 845.2 875.6 834 876.8 834C877.3 834 879.1 837.5 880.8 841.8ZM842.7 839.3C842.8 839.5 841.5 843.4 839.6 848.1C837.8 852.7 835.9 858.1 835.5 860C835.1 861.9 833.1 866.2 831 869.5C828.9 872.8 826.3 877.2 825.3 879.4L823.5 883.2L817 882.6C813.4 882.2 809.5 881.6 808.2 881.3C805.9 880.8 805.9 880.7 809.7 876.6C818.4 867.5 830.3 850.8 834.6 841.7C836.3 838.2 836.7 837.9 839.4 838.4C841 838.8 842.5 839.2 842.7 839.3ZM909.7 857.4L910.3 868.3L904.1 867.8C897.2 867.3 895.4 866.1 894.5 861C893.8 857.2 896.2 852.8 903.7 844.1L907.4 839.7L908.2 843.1C908.7 845 909.3 851.4 909.7 857.4ZM860.8 842.6C863.6 843.2 863.8 843.4 862.8 846.1C861.4 850.1 858.8 849.8 856.7 845.5C854.9 841.7 855.1 841.5 860.8 842.6ZM856.1 860.1C858.3 865.4 860 870.2 860 870.8C860 872.4 849.3 874.3 844.3 873.5L839.8 872.8L840.4 868C841 863.3 844.5 852.2 847 846.7L848.3 844L850.3 847.2C851.4 849 854 854.8 856.1 860.1ZM896 872.5C898.3 873.3 901.8 874 903.7 874C906.9 874 907.3 874.4 909.6 879.4C913.8 888.7 915.2 897.9 914.7 912.5C913.9 934.8 907.3 952.9 895.9 964.3C887.3 972.9 883 974.5 869.5 974.4C856.2 974.3 846.3 971.6 829.5 963.6C821.6 959.8 815.8 957.8 809.2 956.5C802.9 955.3 799.6 954.2 799 953.1C798.5 952.2 797.7 946.9 797 941.4C795 922.9 798.6 909.3 809 896.2C812.9 891.3 813.6 890.9 816.9 891.2C820.5 891.5 820.5 891.5 820 895.5C819.2 901.7 819.4 925.7 820.3 926.6C821.6 927.9 821.9 926.6 823 916.9C824.4 903.3 826.8 894.1 830.9 885.8C834.2 879.2 834.7 878.5 837 879C838.4 879.3 843.6 879.5 848.5 879.5C855.6 879.5 858.5 879 862.3 877.3C864.9 876.1 867 874.5 867 873.7C867 872.6 868.4 872.4 873.8 872.7C877.5 873 882.1 872.8 884 872.2C889 870.7 891.2 870.8 896 872.5ZM780.2 883.1L783.8 884.3L779.3 890.4C776.8 893.7 774 898.1 773 900C767.7 910.5 765.5 924.1 766.9 938C767.5 943.2 767.8 947.6 767.6 947.7C767.4 947.9 765 947.5 762.2 946.9C756.3 945.7 756.3 945.7 755.1 933.4C754.4 924.9 754.9 914.9 756.5 908.5C758.6 899.9 772.4 880.1 775.4 881.4C776 881.7 778.099 882.4 780.199 883.1H780.2ZM799.8 888.5C801.5 888.9 803 889.4 803 889.7C803 890 801.7 891.9 800.1 893.9C796.7 898.3 792.9 905.6 790.4 913C788.9 917.3 788.5 921.4 788.5 932C788.5 939.4 788.8 947 789.2 948.7C790.1 952.5 789.8 952.6 782.1 950.9C777.118 949.904 777.1 949.801 776.309 945.249C776.306 945.233 776.303 945.216 776.3 945.2C775.9 942.6 775.5 935.3 775.5 929C775.5 919.7 776 916.2 777.8 910.8C781.3 900.8 791.7 886.5 794.9 887.4C795.8 887.7 798 888.1 799.8 888.5Z" fill="black"/>
<path d="M303.5 354.1C357 358.7 426.7 380.7 484.7 411.2L494 416.2V424.3C494 435.3 492.3 457.2 490.4 470C487.3 491.5 480.4 515.2 470.7 538.1C465.1 551.1 450.3 582 449.7 582C448.8 582 249.6 465.8 248.3 464.6C247.5 463.8 247.4 458.4 247.9 444C248.7 423.7 248.2 419.9 244.8 419.2C243.8 419 234.3 423.4 223.7 428.9L204.3 439L165.4 415.9C144 403.2 126.3 392.6 126.1 392.4C125.5 391.8 146.7 382 161 376.2C211.5 355.8 251.7 349.6 303.5 354.1Z" fill="#5C658D"/>
<path d="M713.5 64.9999C753.8 67.3999 790.2 73.5999 817.7 82.5999L825.5 85.0999L860.2 124C879.3 145.4 895.1 163.3 895.2 163.8C895.4 164.3 885.3 179.1 872.8 196.7C860.2 214.4 850 229.7 850 230.8C850 235.5 850.6 235.5 891.8 233.4C919.3 231.9 930.8 231.7 931.7 232.4C932.3 233 938.7 247.9 946 265.5C955.9 289.5 959 298.2 958.6 300.3C956.6 310.3 925.9 365.6 911.9 384.3C911.6 384.8 907 382 901.7 378.2C875.5 359.2 847.6 346.1 822.5 341.1C796.7 336 765.6 335.8 661.1 340.5C632.3 341.8 629.5 342 627.7 343.8C625.8 345.8 625.8 345.9 630.3 361.1C657.4 453 672.1 529.3 681.4 627C683.6 650.2 684.4 660.1 686.9 697.5C687.3 704.1 688 710.2 688.3 711C688.8 712.1 686.8 713.8 680.7 717.2C676.2 719.9 671.3 722.7 669.9 723.6C667.4 725.2 666.9 725.2 660.4 722.6C656.6 721.1 649.7 718.8 645 717.6L636.5 715.4L627 697.1C615.9 675.9 613.5 672.4 610.2 673.4C607.5 674.3 601.2 686.3 593.9 704.4L589.1 716.3L580.7 719C570.2 722.4 558.3 728.7 548.3 736.2C532.6 747.9 507.8 775 512.7 775C513 775 517.4 771.1 522.4 766.2C540.4 748.9 563 734 580.8 727.9C585.8 726.2 586.1 726.2 585.6 727.8C582.2 739.7 582.6 741.2 590.2 743.4C605.4 747.8 618.8 747.8 632 743.4C643.5 739.5 644.7 737.9 642 730.2C641 727.4 640.3 725 640.5 725C642.1 725 657 730.3 657.5 731C657.8 731.5 656 733.3 653.5 735.1C647.7 739.2 647 741.9 650.2 746.8C658.3 758.9 671.3 768.8 684.9 773.4C695.4 776.8 697.3 776.4 699.6 770.4C701.2 766.1 701.5 765.9 702.7 767.6C706.2 772.3 711.5 785.3 718.8 807C728.3 835.1 730.8 841.3 736.6 850.6C741.7 858.9 752.3 869.3 760.4 873.9L766 877.2L762 881.8C756.3 888.2 751.6 896.3 749 904C746.4 911.7 745.3 928.3 746.8 937.5C747.3 940.8 747.7 943.6 747.6 943.7C747.4 943.9 736 941.7 722.2 938.9L697.1 933.9L684.8 936.4C662 941.1 649.4 942.3 628 941.7C593 940.7 565 933.9 533.5 918.6C471.7 888.7 432.6 838.4 419.1 771.5C415.8 754.9 414.7 740.3 415.3 719.6C416.5 677.9 423.2 656.2 455.5 590C483.7 532.3 489.7 517.1 495.9 488C500.8 464.7 501.5 456.3 501.5 420C501.4 389.8 501.1 383.4 499.1 368.5C494.7 335.2 488 304.6 478.2 272C474.1 258.7 465.1 232.9 461.6 224.9C461 223.6 461.9 223.2 466.7 222.6C469.9 222.2 477.9 220.8 484.5 219.5C557.3 204.8 622 162.6 646.6 113.8C653.4 100.2 655.5 91.7999 655.5 77.2999V65.0999L660 64.6999C670 63.8999 697.5 64.0999 713.5 64.9999Z" fill="#5C658D"/>
<path d="M244.4 793C276.4 807.3 325 814.5 373.2 812C388.3 811.2 413.9 808.8 419.3 807.7C419.7 807.6 421.5 811.1 423.3 815.5C443.3 863.5 477.7 900.1 525.8 924.6L536.5 930H517.5C486 930 446.9 927.2 416.5 922.9C328.8 910.5 257 880.1 203.6 832.8L198.8 828.5L201.3 822.3C204.5 814.3 211 805.2 216.3 800.9C220.5 797.5 234.5 790 236.6 790C237.3 790 240.8 791.3 244.4 793Z" fill="#5C658D"/>
<path d="M220 779.7L227 784.4L221.8 787.2C209.3 794 199.1 804.9 194.3 816.5C193.3 819 192.2 820.9 191.9 820.7C190.3 820.1 178.9 806.2 178.4 804.2C177.5 800.9 181.5 791.8 186.2 786.5C190.5 781.6 195.8 778.4 203 776.4C210.5 774.3 212.4 774.7 220 779.7Z" fill="#5C658D"/>
<path d="M202.8 767.2C203 767.7 202.3 768 201.3 768C200.3 768 196.3 769.5 192.5 771.4C184.6 775.1 177.3 782.2 173.8 789.4C172.6 791.9 171.3 794 170.9 794C170.5 794 168 790.3 165.4 785.9L160.7 777.8L162.5 774.3C167.5 765 174.9 759.3 185.3 756.6L190.5 755.2L196.5 760.9C199.8 764 202.7 766.8 202.8 767.2Z" fill="#5C658D"/>
<path d="M143 678.5C152.2 700.1 164.4 721.5 177.2 738.4C183.8 747.2 183.9 747.5 181.7 748.4C169.8 753.2 167.6 754.6 162 760.7C155.2 768.2 155.9 768.7 150.7 753C146 738.8 142.2 721.5 140 704C138.2 689.4 136.5 665.2 137.4 666C137.6 666.3 140.1 671.9 143 678.5Z" fill="#5C658D"/>
<path d="M131 702.5C131.6 708 133.5 719.2 135.1 727.4C136.7 735.6 137.8 742.5 137.5 742.9C136.5 743.9 116.8 743 106.2 741.4C84.7 738.3 67.5 731.3 52 719.6C43.3 713 28.2 698.3 31.2 699.3C36 701 59.9 702.2 77.3 701.7C97.6 701.1 108.7 699.4 122.5 694.7C126.4 693.3 129.6 692.3 129.7 692.4C129.7 692.4 130.3 697 131 702.5Z" fill="#5C658D"/>
<path d="M248.5 659.2C246.9 664.4 237.9 682 233.2 689.1C224 702.8 205.7 718.2 188.3 726.9C184.9 728.6 181.9 730 181.6 730C180.1 730 157 690.9 157 688.4C157 687.7 160.4 687.1 165.8 686.7C176.2 685.9 193.6 681.7 207.5 676.5C217 672.9 244.4 659.9 246.5 657.9C248.1 656.3 249.2 656.9 248.5 659.2Z" fill="#5C658D"/>
<path d="M896 872.5C898.3 873.3 901.8 874 903.7 874C906.9 874 907.3 874.4 909.6 879.4C913.8 888.7 915.2 897.9 914.7 912.5C913.9 934.8 907.3 952.9 895.9 964.3C887.3 972.9 883 974.5 869.5 974.4C856.2 974.3 846.3 971.6 829.5 963.6C821.6 959.8 815.8 957.8 809.2 956.5C802.9 955.3 799.6 954.2 799 953.1C798.5 952.2 797.7 946.9 797 941.4C795 922.9 798.6 909.3 809 896.2C812.9 891.3 813.6 890.9 816.9 891.2C820.5 891.5 820.5 891.5 820 895.5C819.2 901.7 819.4 925.7 820.3 926.6C821.6 927.9 821.9 926.6 823 916.9C824.4 903.3 826.8 894.1 830.9 885.8C834.2 879.2 834.7 878.5 837 879C838.4 879.3 843.6 879.5 848.5 879.5C855.6 879.5 858.5 879 862.3 877.3C864.9 876.1 867 874.5 867 873.7C867 872.6 868.4 872.4 873.8 872.7C877.5 873 882.1 872.8 884 872.2C889 870.7 891.2 870.8 896 872.5Z" fill="#5C658D"/>
<path d="M799.8 888.5C801.5 888.9 803 889.4 803 889.7C803 890 801.7 891.9 800.1 893.9C796.7 898.3 792.9 905.6 790.4 913C788.9 917.3 788.5 921.4 788.5 932C788.5 939.4 788.8 947 789.2 948.7C790.1 952.5 789.8 952.6 782.1 950.9C777.118 949.904 777.1 949.801 776.309 945.249L776.3 945.2C775.9 942.6 775.5 935.3 775.5 929C775.5 919.7 776 916.2 777.8 910.8C781.3 900.8 791.7 886.5 794.9 887.4C795.8 887.7 798 888.1 799.8 888.5Z" fill="#5C658D"/>
<path d="M780.2 883.1L783.8 884.3L779.3 890.4C776.8 893.7 774 898.1 773 900C767.7 910.5 765.5 924.1 766.9 938C767.5 943.2 767.8 947.6 767.6 947.7C767.4 947.9 765 947.5 762.2 946.9C756.3 945.7 756.3 945.7 755.1 933.4C754.4 924.9 754.9 914.9 756.5 908.5C758.6 899.9 772.4 880.1 775.4 881.4C776 881.7 778.099 882.4 780.199 883.1H780.2Z" fill="#5C658D"/>
<path d="M856 721.2C856 728.6 853.4 753.4 851.5 764.5C844.1 808 826.9 845.9 803.4 870.8L795.5 879.2L786.1 876.1C771.2 871.2 761.6 865.6 752.9 857C742.8 846.9 738.1 837.5 727.9 806.8C719.1 780.6 714.5 769.5 708.2 760.4L704.2 754.5L706.7 742C708 735.1 709.4 728.2 709.8 726.6L710.5 723.8L723.2 732.3C745.9 747.5 771.4 770.3 791.4 793.5C795.7 798.4 799.8 802.9 800.6 803.3C802.7 804.5 806 803.1 807 800.7C819.3 771.2 832.8 747.5 848.4 727.8C854.4 720.1 856 718.8 856 721.2Z" fill="#5C658D"/>
<path d="M853.1 708.6C830.6 735.6 817.7 755.5 806.1 781.3C803.7 786.7 801.4 790.9 801 790.8C800.6 790.6 795.5 785.3 789.7 778.9C769.6 756.8 749.3 739.3 725.3 723.4C711.7 714.4 711.1 713.8 711.6 711.1C712.3 707.7 710.6 704 708.2 704C707.3 704 704.6 704.7 702.2 705.7C699.3 706.8 697.6 707 696.9 706.3C696.3 705.7 695.6 701.8 695.3 697.6L694.7 690L703.1 693.8C732.4 707.3 756 724 782.2 749.8C793.8 761.3 797.3 764.1 799.2 763.8C801 763.6 802.9 760.8 808.9 749.5C820.8 726.8 832.5 710.1 847.7 693.9L854.5 686.7L855.1 696.1C855.7 705.2 855.7 705.6 853.1 708.6Z" fill="#5C658D"/>
<path d="M945 749.5C947.3 750.3 950.8 751 952.7 751C955.9 751 956.3 751.4 958.6 756.4C962.8 765.7 964.2 774.9 963.7 789.5C962.9 811.8 956.3 829.9 944.9 841.3C937.4 848.7 931.7 851.3 922.6 851.4L915.6 851.5L914.3 843.2C912.8 833.7 911.7 831 909.1 831C907.3 831 901.2 837 895.9 843.8C893.1 847.4 890.6 847.4 889.4 843.7C889 842.5 886.8 837.4 884.5 832.4C878.6 819.8 876.2 819.2 870.8 829.1C869 832.4 866.9 835 866 835C863.8 834.9 842 830.3 841.5 829.8C841.2 829.6 842.9 824.9 845.1 819.4C850.1 807.1 855.2 790.6 857.8 777.7C858.9 772.2 860 767.7 860.2 767.6C860.4 767.5 862.6 767.5 865.2 767.8L870 768.2L869.2 772.4C868.3 777.8 868.3 802.6 869.3 803.6C870.6 804.9 870.9 803.6 872 793.9C873.4 780.3 875.8 771.1 879.9 762.8C883.2 756.2 883.7 755.5 886 756C887.4 756.3 892.6 756.5 897.5 756.5C904.6 756.5 907.5 756 911.3 754.3C913.9 753.1 916 751.5 916 750.7C916 749.6 917.4 749.4 922.8 749.7C926.5 750 931.1 749.8 933 749.2C938 747.7 940.2 747.8 945 749.5Z" fill="#3B4057"/>
<path d="M419 52.4999C419 52.7999 418.4 54.0999 417.6 55.2999C416.8 56.4999 414.7 61.0999 413 65.3999C391.2 119.9 411.1 179.3 461 208.9L469.2 213.8L462.4 214.7C458.6 215.1 445.8 215.5 434 215.4C416 215.4 410.9 215 402.9 213.2C390.3 210.5 382.2 207.7 372.5 203C361.6 197.6 354 191.4 348 182.8C341.4 173.4 338.9 165.3 338.9 153.5C338.8 131.8 348.6 111.8 369.8 89.7999C382.3 76.8999 390.3 70.1999 405.8 59.8999C416.9 52.4999 419 51.2999 419 52.4999Z" fill="#5C658D"/>
<path d="M536 16.3999C536 16.5999 534 20.9999 531.5 26.1999C517.8 55.0999 516.9 88.3999 528.9 118.5C537 138.7 552.8 158.3 570.2 170L576 173.8L568.2 178.4C547.9 190.3 515.7 203.5 494.4 208.6L484.2 211L472.4 205.1C443.5 190.6 424.4 167.2 415.9 136.1C413.2 126.3 412.2 104.2 414 93.1999C415.6 83.1999 419.4 71.1999 423.6 62.8999C427 56.0999 434.9 44.0999 437.2 42.1999C439.2 40.6999 456.2 33.5999 467.7 29.5999C480.4 25.1999 503.5 19.4999 516 17.5999C525 16.2999 536 15.5999 536 16.3999Z" fill="#5C658D"/>
<path d="M582.1 17.9999C604.2 22.1999 619.4 29.3999 631.1 40.9999C643.3 53.0999 647.8 64.5999 646.7 80.9999C645 106.4 627.2 134.4 597.6 158.2C583.8 169.3 584.5 169.2 576.3 163.7C545.4 143.1 527.5 107.4 529.3 70.0999C530.2 51.9999 535.2 35.3999 544.3 20.0999L547.5 14.6999L559.5 15.2999C566.2 15.6999 576.3 16.8999 582.1 17.9999Z" fill="#5C658D"/>
<path d="M620 702C625.9 713.9 634.4 733 633.8 733.5C633.6 733.6 631.3 734.5 628.5 735.4C621.5 737.8 608 738.5 600 736.8C593.5 735.4 593.5 735.3 593.8 732.1C594.1 728 601.6 707.1 607 695.5C611.9 684.9 611.1 684.5 620 702Z" fill="white"/>
<path d="M701.5 721.7C700.6 729.1 695.5 753.9 693.5 760.7C692.4 764.3 691.4 766 690.3 766C689.4 766 684.9 764.2 680.3 762C674 758.9 670.3 756.2 665 750.9C661.2 747 658 743.4 658 742.9C658 740.9 698 716.1 701.4 716C701.8 716 701.9 718.6 701.5 721.7Z" fill="white"/>
<path d="M856.1 860.1C858.3 865.4 860 870.2 860 870.8C860 872.4 849.3 874.3 844.3 873.5L839.8 872.8L840.4 868C841 863.3 844.5 852.2 847 846.7L848.3 844L850.3 847.2C851.4 849 854 854.8 856.1 860.1Z" fill="white"/>
<path d="M880.8 841.8C882.5 846.1 884.8 852.8 885.9 856.7C888.1 864.9 888.3 864.7 879.1 865.6C874.3 866.1 865 864.7 865 863.5C865 863.3 866.1 859.5 867.5 855C870.7 845.2 875.6 834 876.8 834C877.3 834 879.1 837.5 880.8 841.8Z" fill="white"/>
<path d="M909.7 857.4L910.3 868.3L904.1 867.8C897.2 867.3 895.4 866.1 894.5 861C893.8 857.2 896.2 852.8 903.7 844.1L907.4 839.7L908.2 843.1C908.7 845 909.3 851.4 909.7 857.4Z" fill="white"/>
<path d="M905.1 737.1C907.3 742.4 909 747.2 909 747.8C909 749.4 898.3 751.3 893.3 750.5L888.8 749.8L889.4 745C890 740.3 893.5 729.2 896 723.7L897.3 721L899.3 724.2C900.4 726 903 731.8 905.1 737.1Z" fill="#8A8A8A"/>
<path d="M929.8 718.8C931.5 723.1 933.8 729.8 934.9 733.7C937.1 741.9 937.3 741.7 928.1 742.6C923.3 743.1 914 741.7 914 740.5C914 740.3 915.1 736.5 916.5 732C919.7 722.2 924.6 711 925.8 711C926.3 711 928.1 714.5 929.8 718.8Z" fill="#8A8A8A"/>
<path d="M958.7 734.4L959.3 745.3L953.1 744.8C946.2 744.3 944.4 743.1 943.5 738C942.8 734.2 945.2 729.8 952.7 721.1L956.4 716.7L957.2 720.1C957.7 722 958.3 728.4 958.7 734.4Z" fill="#8A8A8A"/>
<path d="M883.7 525.1C889 527.3 896.9 534.7 901.1 541.1C907.6 551.2 910.1 566 908.1 581.5C907.4 586.4 906.6 590.8 906.4 591.2C906.1 591.7 903.3 589.7 900.2 586.9C892.2 579.5 885.5 575.5 873.1 570.6C852.9 562.4 851 560.7 851 551.1C851 542 856 532.1 863.5 526.4C869.5 521.8 875.3 521.4 883.7 525.1Z" fill="#8A8A8A"/>
<path d="M858.5 516.6C859.3 516.9 858 518.8 854.9 521.7C845.8 530.2 839.8 546.5 842 556.5C844 565.6 846.2 568.2 856 573.4L862.3 576.8L857.1 577.9C854.2 578.5 849.9 579 847.5 579C843.2 579 843 578.9 842 575C840.3 568.6 831.1 541.3 826.9 530.1C824.8 524.4 823 519.6 823 519.4C823 519.1 836 516.3 840.5 515.6C843.8 515.1 856.5 515.9 858.5 516.6Z" fill="#3B4057"/>
<path d="M804.4 642C818.6 646.9 836.3 659.4 847 672.1L851.2 677.1L844.3 684.7C825.3 705.7 814 721.4 803.5 741.3C800.4 747.2 797.6 752 797.4 752C797.1 752 792.1 747.3 786.2 741.6C762 718 743.3 704.6 714.3 689.9L699.1 682.2L701.8 679.8C706 675.9 719.8 665.7 727.7 660.7C743.1 650.9 762.9 642.4 776.1 640.1C784.1 638.6 797.5 639.5 804.4 642Z" fill="#FBD038"/>
<path d="M853.7 95.6999C877.4 105.6 915.8 126.9 942 144.8C953.7 152.8 977.2 170.3 985 176.9L988.4 179.8L987.1 190.1C985.3 205.4 981.5 225.4 977 243.5C972.9 260.4 965 286 964.1 286C963.8 286 957.9 272.2 951 255.4C941.3 231.6 938 224.5 936.3 223.7C934.7 223 923.7 223.2 899.6 224.5C880.7 225.4 864.7 226.1 864.1 225.9C863.4 225.6 871.9 212.8 883.9 195.8C897.8 176.4 905 165.4 905 163.7C905 161.3 902.7 158.6 854.8 105.2C848.2 97.9999 843.3 91.9999 843.8 91.9999C844.4 91.9999 848.8 93.6999 853.7 95.6999Z" fill="#FBD038"/>
<path d="M805.5 347C826 349.4 840.7 353.8 860.5 363.5C873.2 369.7 891.7 380.7 893.8 383.3C895.2 385 878.1 404.3 866.1 414.5C839.5 437.1 805.7 452.3 763.5 460.7C749.3 463.5 745.8 465 753.6 465C758.2 465 775.7 462.9 783.4 461.5L786.9 460.8L792.1 471.1C818.2 523.2 840.1 589.5 849.5 644.6C853.1 666.2 853.5 665.4 843.1 656.2C828.6 643.4 815.6 635.8 802 632.4C791.6 629.8 774.3 630.9 761.5 635C743.2 640.9 723.2 652.1 703.8 667.2L694.2 674.8L693.6 667.7C683.6 545.5 670.4 469.6 642.1 371C638.9 359.7 636.3 350.4 636.4 350.3C636.6 350.1 680.9 348.1 707.5 347.1C739.4 345.9 795.4 345.9 805.5 347Z" fill="#D65C3B"/>
<path d="M621.8 229.9C619.7 232.8 620.2 234.4 627 248.5C644.2 283.8 666.5 303.8 696.5 311.1C713.9 315.2 734.7 313 751.5 305.1C773.7 294.7 788.5 279.1 801.7 252.4C808.9 237.8 810.4 231.8 807.4 230.2C806.2 229.6 770.7 228.9 714.4 228.5L623.3 227.8L621.8 229.9ZM648.5 237H659.7L660.8 240.8C662.7 247.2 670.5 262.2 675.9 269.8C683.1 279.9 694.5 290.8 705.3 298.1C710.4 301.5 714.7 304.4 715 304.7C715.3 305 712.6 305 709 304.6C684.2 301.9 662.8 288.7 646.8 266C642.1 259.3 632.7 242.3 631.5 238.1C630.8 235.8 631 235.7 634 236.4C635.8 236.7 642.3 237 648.5 237ZM724.1 244.5C725.4 258.9 730 271.7 736.6 278.9C741.5 284.4 744.8 286 750.8 286C755.9 286 761.2 283.3 765.2 278.7C770.7 272.2 776 257.3 777.5 243.7L778.1 238H788.5H799L798 240.4C797.5 241.7 795.5 246.1 793.4 250.2C780.2 276.4 762.4 293.1 739 301L732.7 303.1L724.3 299.1C719.7 296.9 713.4 293.4 710.2 291.3C701.9 285.8 688 272 682.1 263.5C677.3 256.6 671 244.5 669.5 239.2L668.9 237L696.2 237.2L723.5 237.5L724.1 244.5ZM770.7 239.2C773.6 242 773.6 244.4 770.6 246.7C769 248 767.8 250.4 767.1 254.1C764.6 266.2 756.4 278 750.5 278C747.4 278 742.6 273.9 739.5 268.6C736.7 263.7 733.4 252 732.5 243.2L731.8 237H750.1C767.5 237 768.5 237.1 770.7 239.2Z" fill="black"/>
<path d="M648.5 237H659.7L660.8 240.8C662.7 247.2 670.5 262.2 675.9 269.8C683.1 279.9 694.5 290.8 705.3 298.1C710.4 301.5 714.7 304.4 715 304.7C715.3 305 712.6 305 709 304.6C684.2 301.9 662.8 288.7 646.8 266C642.1 259.3 632.7 242.3 631.5 238.1C630.8 235.8 631 235.7 634 236.4C635.8 236.7 642.3 237 648.5 237Z" fill="black"/>
<path d="M770.7 239.2C773.6 242 773.6 244.4 770.6 246.7C769 248 767.8 250.4 767.1 254.1C764.6 266.2 756.4 278 750.5 278C747.4 278 742.6 273.9 739.5 268.6C736.7 263.7 733.4 252 732.5 243.2L731.8 237H750.1C767.5 237 768.5 237.1 770.7 239.2Z" fill="black"/>
<path d="M724.1 244.5C725.4 258.9 730 271.7 736.6 278.9C741.5 284.4 744.8 286 750.8 286C755.9 286 761.2 283.3 765.2 278.7C770.7 272.2 776 257.3 777.5 243.7L778.1 238H788.5H799L798 240.4C797.5 241.7 795.5 246.1 793.4 250.2C780.2 276.4 762.4 293.1 739 301L732.7 303.1L724.3 299.1C719.7 296.9 713.4 293.4 710.2 291.3C701.9 285.8 688 272 682.1 263.5C677.3 256.6 671 244.5 669.5 239.2L668.9 237L696.2 237.2L723.5 237.5L724.1 244.5Z" fill="#FBD038"/>
<path d="M765 250C767.761 250 770 247.761 770 245C770 242.239 767.761 240 765 240C762.239 240 760 242.239 760 245C760 247.761 762.239 250 765 250Z" fill="white"/>
</svg>
