<svg width="1024" height="1024" viewBox="0 0 1024 1024" fill="none" xmlns="http://www.w3.org/2000/svg">
<path d="M792 11.7C744.6 14.9 709.7 22.8 664.5 40.7C646.2 47.9 614.8 62.7 596.9 72.6L588.4 77.3L583.3 73.6C571.4 65.1 559 61.6 540.5 61.7C508.7 61.8 474.6 75.6 437.5 103.4C423.2 114.1 399.6 137.3 388 152C349.5 200.5 330.7 255.9 339.9 293.5C343.4 307.9 347.9 316.2 357.4 325.5C371.5 339.4 387.9 345 410.5 343.7C431.6 342.5 448.3 337.7 470.8 326.4C479.3 322.2 485.3 319.7 485.5 320.4C486.3 322.7 489 337.9 490.5 347.7C493.8 370.2 496.2 406 494.5 406C494.2 406 490.7 404.2 486.7 402.1C467.7 391.6 426.9 374.6 400.4 366C334.9 344.8 276.2 339 224.3 348.6C195.6 353.9 163.7 364.8 131.3 380.5C115.3 388.3 112.7 390.5 115.2 394.2C115.9 395.3 136.1 407.8 160 422.1C193.5 442.1 204.1 448 206 447.6C207.4 447.3 215.4 443.5 223.8 439.1C232.2 434.6 239.5 431 239.9 431C240.4 431 240.5 439.5 240.2 449.9L239.7 468.9L244.2 471.7C246.6 473.2 293 500.4 347.3 532C401.6 563.6 446 590 446 590.6C446 591.2 442.4 599.1 438.1 608.1C418.3 649.2 410.3 676.4 407.8 711.3C405.9 736.6 409.4 769.8 416.1 791.7C417.6 796.5 417.9 798.5 417 799C412.9 801.5 369.5 804.4 345 803.7C290.2 802.2 248.3 790.1 218.1 767.2C210.1 761.2 196.7 748.1 191.2 741.2L187.9 737.1L194.2 733.9C211.3 725.4 228.3 711.3 239.3 696.5C249 683.5 262.6 653.1 261.8 646.2C261.3 641.6 257.2 642.1 247.5 648C235.5 655.2 212.4 666.2 200.1 670.4C187.9 674.7 173.7 677.7 161.8 678.6L153.3 679.3L148.2 666.4C145.5 659.3 142.9 652.4 142.5 651C142.1 649.6 140.9 646.1 139.8 643.2C138.1 638.6 137.5 638 135 638C133.1 638 131.7 638.7 131 639.9C130.4 641.1 130 650.3 130 662.8V683.7L119.7 686.9C94.9 694.7 64.5 695.8 29.8 690.4C18.2 688.5 16 689 16 693.4C16 696.1 27.6 709.3 38 718.5C63 740.6 88.4 750.1 127.8 751.9L142.1 752.5L145.9 762.5C155.8 788.6 169.7 809.7 191.5 831.6C238 878.4 310.8 913 394 927.9C435.6 935.3 498.8 940 540 938.7C557.7 938.1 558.8 938.2 566.5 940.5C588.1 947.2 610.7 950.4 635.5 950.4C655.3 950.4 661.1 949.8 684.6 945.3L698.7 942.7L757.1 954.4L815.5 966.1L827 971.4C848.4 981.4 864.9 985.1 878.4 983C888.9 981.4 895.2 978.1 903 970.1C923.2 949.6 930.7 908.1 919.5 878.4C918 874.4 917 869.7 917 866.6V861.4L925.6 860.2C937.5 858.6 943.8 855.5 952 847.1C972.2 826.6 979.7 785.1 968.5 755.4C966.5 750.1 966 746.9 966 739.6C966 730.1 963.7 713.1 961.9 709.9C959.7 705.7 956.3 708.3 943.7 723.4L941.3 726.4L940 722.4C937.6 714.9 930.3 700.3 928.6 699.7C927.7 699.3 926.3 699.3 925.5 699.6C923.8 700.3 917.4 711.7 914 720.2C912.5 723.8 911 726 910.1 726C909.2 726 907 723.2 905 719.4C899.3 708.7 896.8 708.6 892.1 719C888.8 726.5 885 737.2 885 739.2C885 739.9 883.2 743.1 881.1 746.4C879 749.6 876.4 754 875.4 756.2L873.6 760.2L868.1 759.5C865 759.1 862.4 758.7 862.4 758.7C862.3 758.6 862.7 755.6 863.3 752C863.9 748.3 864.4 731.8 864.4 713.5C864.4 679.2 863.3 666.3 857.4 634C855.3 622.6 849.2 595.4 847.5 589.9C847 588.6 848.1 588.2 853.9 587.7C857.7 587.4 864.1 586 868.2 584.6C872.3 583.2 876.4 582 877.2 582C880.3 582 893.7 591.9 900.8 599.4C904.7 603.6 908.5 607 909.3 607C912.8 607 915.1 601.7 917.5 587.6C921.7 562.8 916.9 542.5 903 527.7C897 521.3 885.5 514 881.1 514C880.2 514 875 512.4 869.5 510.4C856.6 505.9 847.8 505.2 835 507.5C829.8 508.5 824.3 509.5 822.9 509.7C820.7 510.1 820.1 509.7 819.2 507.3C818.7 505.8 817.9 503.7 817.5 502.7C816.8 501 817.4 500.9 826.6 501.6C848.5 503.1 876.3 498 894.4 489.1C922 475.6 934.9 454.3 935 422.4C935 408.8 933.1 397.4 928.4 382.8L924.8 371.7L929.2 358.9C933.7 345.5 933.7 344.1 929.7 341.6C928.4 340.8 925.9 341.2 919.4 343.4C912.2 345.9 910.7 346.1 910 344.9C909.5 344.1 907.3 341 905 338C902 334 901 331.8 901.4 330C902.8 322.6 904.2 306.9 903.6 304.6C902.5 300.2 899.2 300.3 889.9 305.2C885.3 307.5 881.2 309.5 880.8 309.5C880.5 309.5 878 307.4 875.3 304.8L870.3 300.2L872.1 291.4C873.7 283.5 873.8 282.3 872.4 280.3C870.5 277.3 869.9 277.4 859.6 281.1L851 284.3L845.4 280.4C842.4 278.3 839.7 276.3 839.4 275.9C838.8 274.9 856.6 267.1 869 263C875.3 260.9 885.2 258.4 891 257.5C910.2 254.5 943.1 255.7 965.3 260.4C972 261.8 975.3 261.2 976.4 258.5C977.4 255.8 979.8 235.7 981.1 218.9C982.6 198.5 981.8 153.7 979.6 137.5C975.8 110.3 968.9 80.9 959.3 51.5C952.1 29.3 951 27.4 946.1 26C924.6 20.2 882.4 14.2 848.5 12C834 11.1 803.2 10.9 792 11.7ZM855.5 21C881.5 22.9 920.1 28.5 937.5 32.8L944.4 34.5L948.3 45.5C953.4 60.1 960.5 84.5 964 100C967.2 114 971.3 137.6 970.8 139.1C970.6 139.6 964.9 135.2 958 129.4C923.3 99.8 919.8 97 917.7 97C916.5 97 901.6 105.1 884.5 114.9C867.5 124.8 853.4 132.8 853.3 132.6C853.2 132.5 855.3 117.1 858.1 98.4C863.7 60.1 863.9 58.4 861.9 56.6C861.1 55.8 841.3 47.9 817.8 38.9C794.3 29.9 775.4 22.2 775.8 21.8C777.5 20.1 835 19.5 855.5 21ZM803.8 42.7C830.6 52.9 853 61.8 853.6 62.4C854.4 63.2 853 74.5 848.9 102.4C842.8 143.3 842.8 145 847.4 145C848.7 145 864.9 136.2 883.4 125.5L917.2 105.9L922.8 110.7C957.6 140.2 970.7 151.4 971.7 152.8C973.6 155.5 974.4 186.1 973.1 208C971.9 227.7 969.6 250.7 968.7 251.6C968.5 251.9 964.2 251.4 959.4 250.6C928.1 245.3 896.1 246 873.4 252.6C859.8 256.5 848.8 261.1 821 274.8C796.2 286.9 777.8 295.3 765.5 299.9C762.2 301.2 758.2 302.8 756.5 303.5C736 312.3 680.9 329.6 645.4 338.4C628.8 342.5 628.2 342.7 627.5 344.9C627.2 345.8 629 353.3 631.4 361.5C658.3 452.3 673.1 529.5 682.4 627C684.6 650.2 685.4 660.1 687.9 697.5C688.3 704.1 689 710.2 689.3 711C689.8 712.1 687.8 713.8 681.7 717.2C677.2 719.9 672.3 722.7 670.9 723.6C668.4 725.2 667.9 725.2 661.4 722.6C657.6 721.1 650.7 718.8 646 717.6L637.5 715.4L628 697.1C616.9 675.9 614.5 672.4 611.2 673.4C608.5 674.3 602.2 686.3 594.9 704.4L590.1 716.3L581.7 719C571.2 722.4 559.3 728.7 549.3 736.2C533.6 747.9 508.8 775 513.7 775C514 775 518.4 771.1 523.4 766.2C541.4 748.9 564 734 581.8 727.9C586.8 726.2 587.1 726.2 586.6 727.8C583.2 739.7 583.6 741.2 591.2 743.4C606.4 747.8 619.8 747.8 633 743.4C644.5 739.5 645.7 737.9 643 730.2C642 727.4 641.3 725 641.5 725C643.1 725 658 730.3 658.5 731C658.8 731.5 657 733.3 654.5 735.1C648.7 739.2 648 741.9 651.2 746.8C659.3 758.9 672.3 768.8 685.9 773.4C696.4 776.8 698.3 776.4 700.6 770.4C702.2 766.1 702.5 765.9 703.7 767.6C707.2 772.3 712.5 785.3 719.8 807C729.3 835.1 731.8 841.3 737.6 850.6C742.7 858.9 753.3 869.3 761.4 873.9L767 877.2L763 881.8C757.3 888.2 752.6 896.3 750 904C747.4 911.7 746.3 928.3 747.8 937.5C748.3 940.8 748.7 943.6 748.6 943.7C748.4 943.9 737 941.7 723.2 938.9L698.1 933.9L685.8 936.4C663 941.1 650.4 942.3 629 941.7C594 940.7 566.1 933.9 534.5 918.6C478.7 891.6 441.6 848.2 424.8 790.5C417.8 766.3 415.5 747 416.3 719.6C417.5 678.1 424.2 656.2 456.1 590.8C483.4 534.7 491.7 513.6 497.4 485.9C502.6 460.3 503.4 450 503.4 414.5C503.4 386.6 503 378.6 501.1 363.1C499.2 346.9 494.9 320.6 493.4 315.8C493.1 314.7 495.2 312.6 501.2 308.4C553.8 271.3 595.8 212 607.2 158.6C610.1 144.8 610.3 120.7 607.6 110.5C605.2 101.5 601.9 94.1 597.9 88.5C596.1 86 594.9 83.8 595.1 83.6C596.8 82.2 620.1 69.8 631.1 64.6C669.5 46.3 704.6 34 738.5 27C746.2 25.4 753.1 24.1 753.8 24.1C754.6 24 777.1 32.4 803.8 42.7ZM557.2 71.5C577.9 75.8 592.6 90.2 598.6 112C601.3 121.5 601 144.1 598.2 157.3C595.2 170.9 590.8 183.6 584.5 196.7L579.1 208H575.2C573 208 567.6 207.3 563.3 206.5C530.2 200.2 502.3 179.4 487.5 150C479.2 133.4 475.6 117.6 476.2 99L476.5 88.5L485 84.2C495.1 79.2 512 73.5 522.8 71.6C533 69.7 548.8 69.7 557.2 71.5ZM469 121.8C470.7 131.4 475.4 145.4 480 154.4C496.4 186.3 529.3 210.3 563.3 215.1C567.8 215.7 572.1 216.4 572.8 216.6C573.7 216.9 572.9 218.8 570.4 222.7C556.6 244.5 535.4 269.2 516.7 285.4L509.9 291.3L498.7 291.8C447.8 293.7 403.2 259.9 390.7 210C389.2 203.6 388.6 198.2 388.6 188C388.5 166.5 389 164.5 396.8 154.8C405.1 144.4 426.1 123.3 436.2 115.2C440.4 111.8 449 105.5 455.2 101.3L466.5 93.7L467.2 104.5C467.5 110.5 468.4 118.3 469 121.8ZM380 197.2C382.1 216 388.5 233.9 398.7 249.3C404.3 257.7 416.1 270.4 424 276.5C438.8 287.9 460 296.8 477.5 299C482.5 299.6 488.7 300.4 491.5 300.8L496.5 301.5L488 307C476.6 314.4 455.4 325 445.5 328.2C432.1 332.6 418.3 335 406.1 335C392.3 335 386.6 333.8 376.4 329C362.8 322.5 353.1 310 348.3 293C345.9 284 345.9 261.8 348.4 250C352.5 230.6 362.3 206.4 373.7 187.5L378.5 179.5L378.7 183.5C378.9 185.7 379.5 191.8 380 197.2ZM835.5 284.6C838.5 286.6 840.7 288.6 840.5 289C840.2 289.5 837.1 291.5 833.5 293.5C827.9 296.6 827 297.5 827 300C827 307.3 850.1 328 858.4 328C859.9 328 861 328.6 861 329.3C861 330 863.2 334 866 338.2C871.4 346.5 878.7 353.6 885.9 357.7C888.4 359.2 890.6 360.4 890.7 360.5C890.9 360.6 891.9 364.1 892.9 368.2C895.1 376.8 898.6 384.3 903.7 391.2C907.7 396.7 910.1 397.8 913.5 395.6L916 394V399.7C916 407.2 914.3 417.3 912.4 421.9L910.8 425.5L908.8 418C903.7 398.5 897.1 383.4 887.5 368.9C875.5 350.8 853.4 330.1 830.3 315.3L820 308.7V296.9V285L823.8 283.1C828.8 280.4 829.2 280.5 835.5 284.6ZM863.5 293.7C861.9 301.3 858 315 856.9 317.2C856 318.8 855.7 318.8 852.6 316.9C848.1 314.3 840.6 307.6 838 304L836 301.2L841.5 298C846.5 295.1 862.5 288.1 864.1 288C864.5 288 864.2 290.6 863.5 293.7ZM810.1 315.4C809.4 325.8 808.8 334.5 808.7 334.6C808 335.3 788.7 319.4 782.3 312.9L775.1 305.5L792.3 297.9L809.5 290.3L810.3 293.3C810.8 295 810.7 304.8 810.1 315.4ZM776.5 319.9C789 332.4 808.3 347 812.2 347C816.1 347 817.1 344.4 818.3 331.3C818.9 325.1 819.7 320 820.1 320C821.6 320 837.3 331.1 846.7 338.6C870.5 357.9 885.9 379 894.9 404.4C898.3 414 903 431.7 903 434.8C903 439.4 890.5 446.4 876.5 449.6C865.7 452.1 839.6 452.1 826 449.6C825.803 449.564 825.604 449.527 825.403 449.49C822.793 449.001 819.891 448.387 816.837 447.688C799.279 443.671 776.679 436.853 775.5 435C775.2 434.5 777.7 430.6 781.1 426.3C791.8 412.6 810 395.1 810 398.5C810 398.7 810.9 404.5 812 411.2C813.1 418 814.4 427.7 814.9 432.9C815.273 436.733 816.014 442.749 816.837 447.688C817.56 452.026 818.345 455.532 819 456C821.6 457.9 823.1 457.6 824.9 455C825.335 454.331 825.467 452.31 825.403 449.49C825.275 443.874 824.365 435.089 823.5 427.5C821.1 406.1 817.6 388.4 815.2 385.7C814.4 384.8 812.9 384 812 384C808.3 384 783.5 407.7 774.1 420.3C771.7 423.5 769.6 425.9 769.4 425.8C769.3 425.6 769.5 421 770 415.5C771.4 400.7 771.2 371.6 769.8 368.5C768.7 366.1 767.4 365.5 764 366C759.8 366.5 734.8 383.8 724.4 393.3C721.4 396 718.7 398 718.4 397.7C718.1 397.4 718.5 392.7 719.4 387.3C722.9 365.3 724 346.4 721.8 344.2C721.1 343.5 719.5 343 718.1 343C713.1 343 684.7 358.8 672.9 368.1C670.9 369.7 668.7 371 668 371C666.9 371 656.4 362.4 645.1 352.3L640.6 348.3L650.1 346C661.8 343.2 698.9 332.7 705 330.5L709.5 328.9L714.5 334.7C727.6 350 746.8 367.9 751.7 369.4C755.4 370.6 757.6 367.2 759.4 357.4C761 348.7 763.4 330.1 764.6 316.7C764.9 313 765.5 310 765.8 310C766.2 310 771 314.5 776.5 319.9ZM870.8 313.3L873 315.6L868.8 318.8C866.5 320.5 864.5 321.9 864.4 321.7C863.9 321.2 867.3 311 868 311C868.4 311 869.6 312 870.8 313.3ZM754.7 323C753.9 333.6 751.1 354 750.1 355.8C749.6 356.7 746.2 354.1 739.4 347.7C729.3 338 720.2 327.6 720.9 326.2C721.4 325.4 751.7 314.2 753.9 314.1C755 314 755.2 315.6 754.7 323ZM893.6 318.7C892.2 328.4 888.7 346.5 888.1 347.3C887.1 348.3 875.9 337.1 873.5 332.7C871.9 329.7 871.8 328.9 873 327.5C874.7 325.5 891.8 314 893.2 314C893.9 314 894 315.7 893.6 318.7ZM901 351.2C901 351.6 900.1 352.4 899 353C896.8 354.2 896.5 353.4 897.7 349.1C898.3 346.8 898.4 346.8 899.7 348.5C900.4 349.6 901 350.7 901 351.2ZM304.5 354.1C346.1 357.7 396.7 371.4 445.5 392.2C460.8 398.7 492.8 414.4 494.7 416.3C495.6 417.2 495.6 421.9 494.9 435.4C492.9 475.3 485.7 505.8 470.3 540.8C465.6 551.6 451.5 580.9 450.6 581.7C450.2 582.1 250.9 466.2 249.3 464.6C248.5 463.8 248.4 458.4 248.9 444C249.7 423.7 249.2 419.9 245.8 419.2C244.8 419 235.3 423.4 224.7 428.9L205.3 439L166.4 415.9C145 403.2 127.3 392.6 127.1 392.4C126.5 391.8 147.7 382 162 376.2C212.5 355.8 252.7 349.6 304.5 354.1ZM920.5 355.2C918.1 362.9 910.2 383 909.5 383C908.7 383 904.9 374.9 902.9 369.1C901.4 365 901.3 363.4 902.2 362.3C903.3 360.9 918.7 353 920.3 353C920.8 353 920.8 354 920.5 355.2ZM713.4 360.7C712.6 369.5 708.9 396.2 708.1 398.3C707.5 400 706.5 399.6 698.9 394.4C684.3 384.5 675.9 378 676.4 377.1C678.2 374.3 709.8 355 712.7 355C713.5 355 713.7 356.7 713.4 360.7ZM649.8 368.6C669.1 385.4 698.7 406.4 722 419.7C760.3 441.7 799.6 455.8 834.3 460.1C847.7 461.7 870.1 460.8 880.7 458.1C904 452.3 919 437.8 923.4 417C925.4 407.6 926.4 411.6 925.7 425.8C924.4 453.2 913.7 469.5 889.5 481.1C851 499.5 798.1 495 731.1 467.6C723.6 464.6 724 464.6 724 466.3C724 468.1 752.4 482.7 767.2 488.4C778.3 492.8 800 499 804 499C806.5 499 808.5 502.9 816.5 523.4C832.1 563.4 843.9 605.3 850.5 644.6C854.2 666.2 854.6 665.4 844.1 656.2C829.6 643.4 816.6 635.8 803 632.4C792.6 629.8 775.3 630.9 762.5 635C744.2 640.9 724.2 652.1 704.8 667.2L695.2 674.8L694.6 667.7C684.8 548 672.1 473.9 645.2 378.2C642.5 368.8 640.5 361 640.7 361C640.9 361 645 364.4 649.8 368.6ZM762 388.7C762 399.6 760.2 427.1 759.4 428C758.8 428.5 747.4 422.9 732.2 414.7L720.9 408.7L725.2 404.8C737.9 393.6 758.8 378 761.2 378C761.6 378 762 382.8 762 388.7ZM859.5 516.6C860.3 516.9 859 518.8 855.9 521.7C846.8 530.2 840.8 546.5 843 556.5C845 565.6 847.2 568.2 857 573.4L863.3 576.8L858.1 577.9C855.2 578.5 851 579 848.6 579H844.4L840.2 565.2C837.9 557.6 833.4 544.2 830.2 535.4L824.3 519.5L828.4 518.2C837.5 515.4 854.1 514.6 859.5 516.6ZM884.7 525.1C890 527.3 897.9 534.7 902.1 541.1C908.6 551.2 911.1 566 909.1 581.5C908.4 586.4 907.6 590.8 907.4 591.2C907.1 591.7 904.3 589.7 901.2 586.9C893.2 579.5 886.5 575.5 874.1 570.6C853.9 562.4 852 560.7 852 551.1C852 542 857 532.1 864.5 526.4C870.5 521.8 876.3 521.4 884.7 525.1ZM805.4 642C819.6 646.9 837.3 659.4 848 672.1L852.2 677.1L845.3 684.7C826.3 705.7 815 721.4 804.5 741.3C801.4 747.2 798.6 752 798.4 752C798.1 752 793.1 747.3 787.2 741.6C763 718 744.3 704.6 715.3 689.9L700.1 682.2L702.8 679.8C707 675.9 720.8 665.7 728.7 660.7C744.1 650.9 763.9 642.4 777.1 640.1C785.1 638.6 798.5 639.5 805.4 642ZM249.5 659.2C247.9 664.4 238.9 682 234.2 689.1C225 702.8 206.7 718.2 189.3 726.9C185.9 728.6 182.9 730 182.6 730C181.1 730 158 690.9 158 688.4C158 687.7 161.4 687.1 166.8 686.7C177.2 685.9 194.6 681.7 208.5 676.5C218 672.9 245.4 659.9 247.5 657.9C249.1 656.3 250.2 656.9 249.5 659.2ZM144 678.5C153.2 700.1 165.4 721.5 178.2 738.4C184.8 747.2 184.9 747.5 182.7 748.4C170.8 753.2 168.6 754.6 163 760.7C156.2 768.2 156.9 768.7 151.7 753C147 738.8 143.2 721.5 141 704C139.2 689.4 137.5 665.2 138.4 666C138.6 666.3 141.1 671.9 144 678.5ZM621 702C626.9 713.9 635.4 733 634.8 733.5C634.6 733.6 632.3 734.5 629.5 735.4C622.5 737.8 609 738.5 601 736.8C594.5 735.4 594.5 735.3 594.8 732.1C595.1 728 602.6 707.1 608 695.5C612.9 684.9 612.1 684.5 621 702ZM854.1 708.6C831.6 735.6 818.7 755.5 807.1 781.3C804.7 786.7 802.4 790.9 802 790.8C801.6 790.6 796.5 785.3 790.7 778.9C770.6 756.8 750.3 739.3 726.3 723.4C712.7 714.4 712.1 713.8 712.6 711.1C713.3 707.7 711.6 704 709.2 704C708.3 704 705.6 704.7 703.2 705.7C700.3 706.8 698.6 707 697.9 706.3C697.3 705.7 696.6 701.8 696.3 697.6L695.7 690L704.1 693.8C733.4 707.3 757 724 783.2 749.8C794.8 761.3 798.3 764.1 800.2 763.8C802 763.6 803.9 760.8 809.9 749.5C821.8 726.8 833.5 710.1 848.7 693.9L855.5 686.7L856.1 696.1C856.7 705.2 856.7 705.6 854.1 708.6ZM132 702.5C132.6 708 134.5 719.2 136.1 727.4C137.7 735.6 138.8 742.5 138.5 742.9C137.5 743.9 117.8 743 107.2 741.4C85.7 738.3 68.5 731.3 53 719.6C44.3 713 29.2 698.3 32.2 699.3C37 701 60.9 702.2 78.3 701.7C98.6 701.1 109.7 699.4 123.5 694.7C127.4 693.3 130.6 692.3 130.7 692.4C130.7 692.4 131.3 697 132 702.5ZM930.8 718.8C932.5 723.1 934.8 729.8 935.9 733.7C938.1 741.9 938.3 741.7 929.1 742.6C924.3 743.1 915 741.7 915 740.5C915 740.3 916.1 736.5 917.5 732C920.7 722.2 925.6 711 926.8 711C927.3 711 929.1 714.5 930.8 718.8ZM702.5 721.7C701.6 729.1 696.5 753.9 694.5 760.7C693.4 764.3 692.4 766 691.3 766C690.4 766 685.9 764.2 681.3 762C675 758.9 671.3 756.2 666 750.9C662.2 747 659 743.4 659 742.9C659 740.9 699 716.1 702.4 716C702.8 716 702.9 718.6 702.5 721.7ZM959.7 734.4L960.3 745.3L954.1 744.8C947.2 744.3 945.4 743.1 944.5 738C943.8 734.2 946.2 729.8 953.7 721.1L957.4 716.7L958.2 720.1C958.7 722 959.3 728.4 959.7 734.4ZM857 721.2C857 728.6 854.4 753.4 852.5 764.5C845.1 808 827.9 845.9 804.4 870.8L796.5 879.2L787.1 876.1C772.2 871.2 762.6 865.6 753.9 857C743.8 846.9 739.1 837.5 728.9 806.8C720.1 780.6 715.5 769.5 709.2 760.4L705.2 754.5L707.7 742C709 735.1 710.4 728.2 710.8 726.6L711.5 723.8L724.2 732.3C746.9 747.5 772.4 770.3 792.4 793.5C796.7 798.4 800.8 802.9 801.6 803.3C803.7 804.5 807 803.1 808 800.7C820.3 771.2 833.8 747.5 849.4 727.8C855.4 720.1 857 718.8 857 721.2ZM906.1 737.1C908.3 742.4 910 747.2 910 747.8C910 749.4 899.3 751.3 894.3 750.5L889.8 749.8L890.4 745C891 740.3 894.5 729.2 897 723.7L898.3 721L900.3 724.2C901.4 726 904 731.8 906.1 737.1ZM946 749.5C948.3 750.3 951.8 751 953.7 751C956.9 751 957.3 751.4 959.6 756.4C963.8 765.7 965.2 774.9 964.7 789.5C963.9 811.8 957.3 829.9 945.9 841.3C938.4 848.7 932.7 851.3 923.6 851.4L916.6 851.5L915.3 843.2C913.8 833.7 912.7 831 910.1 831C908.3 831 902.2 837 896.9 843.8C894.1 847.4 891.6 847.4 890.4 843.7C890 842.5 887.8 837.4 885.5 832.4C879.6 819.8 877.2 819.2 871.8 829.1C870 832.4 867.9 835 867 835C864.8 834.9 843 830.3 842.5 829.8C842.2 829.6 843.9 824.9 846.1 819.4C851.1 807.1 856.2 790.6 858.8 777.7C859.9 772.2 861 767.7 861.2 767.6C861.4 767.5 863.6 767.5 866.2 767.8L871 768.2L870.2 772.4C869.3 777.8 869.3 802.6 870.3 803.6C871.6 804.9 871.9 803.6 873 793.9C874.4 780.3 876.8 771.1 880.9 762.8C884.2 756.2 884.7 755.5 887 756C888.4 756.3 893.6 756.5 898.5 756.5C905.6 756.5 908.5 756 912.3 754.3C914.9 753.1 917 751.5 917 750.7C917 749.6 918.4 749.4 923.8 749.7C927.5 750 932.1 749.8 934 749.2C939 747.7 941.2 747.8 946 749.5ZM203.8 767.2C204 767.7 203.3 768 202.3 768C201.3 768 197.3 769.5 193.5 771.4C185.6 775.1 178.3 782.2 174.8 789.4C173.6 791.9 172.3 794 171.9 794C171.5 794 169 790.3 166.4 785.9L161.7 777.8L163.5 774.3C168.5 765 175.9 759.3 186.3 756.6L191.5 755.2L197.5 760.9C200.8 764 203.7 766.8 203.8 767.2ZM221 779.7L228 784.4L222.8 787.2C210.3 794 200.1 804.9 195.3 816.5C194.3 819 193.2 820.9 192.9 820.7C191.3 820.1 179.9 806.2 179.4 804.2C178.5 800.9 182.5 791.8 187.2 786.5C191.5 781.6 196.8 778.4 204 776.4C211.5 774.3 213.4 774.7 221 779.7ZM245.4 793C277.4 807.3 326 814.5 374.2 812C389.3 811.2 414.3 808.9 420.3 807.7C420.8 807.6 422.6 811.1 424.4 815.5C443.9 863 479 900.4 527 924.7L537.5 930H518.5C487 930 447.9 927.2 417.5 922.9C329.8 910.5 258 880.1 204.6 832.8L199.8 828.5L202.3 822.3C205.5 814.3 212 805.2 217.3 800.9C221.5 797.5 235.5 790 237.6 790C238.3 790 241.8 791.3 245.4 793ZM881.8 841.8C883.5 846.1 885.8 852.8 886.9 856.7C889.1 864.9 889.3 864.7 880.1 865.6C875.3 866.1 866 864.7 866 863.5C866 863.3 867.1 859.5 868.5 855C871.7 845.2 876.6 834 877.8 834C878.3 834 880.1 837.5 881.8 841.8ZM843.7 839.3C843.8 839.5 842.5 843.4 840.6 848.1C838.8 852.7 836.9 858.1 836.5 860C836.1 861.9 834.1 866.2 832 869.5C829.9 872.8 827.3 877.2 826.3 879.4L824.5 883.2L818 882.6C814.4 882.2 810.5 881.6 809.2 881.3C806.9 880.8 806.9 880.7 810.7 876.6C819.4 867.5 831.3 850.8 835.6 841.7C837.3 838.2 837.7 837.9 840.4 838.4C842 838.8 843.5 839.2 843.7 839.3ZM910.7 857.4L911.3 868.3L905.1 867.8C898.2 867.3 896.4 866.1 895.5 861C894.8 857.2 897.2 852.8 904.7 844.1L908.4 839.7L909.2 843.1C909.7 845 910.3 851.4 910.7 857.4ZM861.8 842.6C864.6 843.2 864.8 843.4 863.8 846.1C862.4 850.1 859.8 849.8 857.7 845.5C855.9 841.7 856.1 841.5 861.8 842.6ZM857.1 860.1C859.3 865.4 861 870.2 861 870.8C861 872.4 850.3 874.3 845.3 873.5L840.8 872.8L841.4 868C842 863.3 845.5 852.2 848 846.7L849.3 844L851.3 847.2C852.4 849 855 854.8 857.1 860.1ZM897 872.5C899.3 873.3 902.8 874 904.7 874C907.9 874 908.3 874.4 910.6 879.4C914.8 888.7 916.2 897.9 915.7 912.5C914.9 934.8 908.3 952.9 896.9 964.3C888.3 972.9 884 974.5 870.5 974.4C857.2 974.3 847.3 971.6 830.5 963.6C822.6 959.8 816.8 957.8 810.2 956.5C803.9 955.3 800.6 954.2 800 953.1C799.5 952.2 798.7 946.9 798 941.4C796 922.9 799.6 909.3 810 896.2C813.9 891.3 814.6 890.9 817.9 891.2C821.5 891.5 821.5 891.5 821 895.5C820.2 901.7 820.4 925.7 821.3 926.6C822.6 927.9 822.9 926.6 824 916.9C825.4 903.3 827.8 894.1 831.9 885.8C835.2 879.2 835.7 878.5 838 879C839.4 879.3 844.6 879.5 849.5 879.5C856.6 879.5 859.5 879 863.3 877.3C865.9 876.1 868 874.5 868 873.7C868 872.6 869.4 872.4 874.8 872.7C878.5 873 883.1 872.8 885 872.2C890 870.7 892.2 870.8 897 872.5ZM781.2 883.1L784.8 884.3L780.3 890.4C777.8 893.7 775 898.1 774 900C768.7 910.5 766.5 924.1 767.9 938C768.5 943.2 768.8 947.6 768.6 947.7C768.4 947.9 766 947.5 763.2 946.9C757.3 945.7 757.3 945.7 756.1 933.4C755.4 924.9 755.9 914.9 757.5 908.5C759.6 899.9 773.4 880.1 776.4 881.4C777 881.7 779.099 882.4 781.199 883.1L781.2 883.1ZM800.8 888.5C802.5 888.9 804 889.4 804 889.7C804 890 802.7 891.9 801.1 893.9C797.7 898.3 793.9 905.6 791.4 913C789.9 917.3 789.5 921.4 789.5 932C789.5 939.4 789.8 947 790.2 948.7C791.1 952.5 790.8 952.6 783.1 950.9C778.118 949.904 778.1 949.801 777.309 945.249C777.306 945.233 777.303 945.216 777.3 945.2C776.9 942.6 776.5 935.3 776.5 929C776.5 919.7 777 916.2 778.8 910.8C782.3 900.8 792.7 886.5 795.9 887.4C796.8 887.7 799 888.1 800.8 888.5Z" fill="black"/>
<path d="M803.8 42.7C830.6 52.9 853 61.8 853.6 62.4C854.4 63.2 853 74.5 848.9 102.4C842.8 143.3 842.8 145 847.4 145C848.7 145 864.9 136.2 883.4 125.5L917.2 105.9L922.8 110.7C957.6 140.2 970.7 151.4 971.7 152.8C973.6 155.5 974.4 186.1 973.1 208C971.9 227.7 969.6 250.7 968.7 251.6C968.5 251.9 964.2 251.4 959.4 250.6C928.1 245.3 896.1 246 873.4 252.6C859.8 256.5 848.8 261.1 821 274.8C796.2 286.9 777.8 295.3 765.5 299.9C762.2 301.2 758.2 302.8 756.5 303.5C736 312.3 680.9 329.6 645.4 338.4C628.8 342.5 628.2 342.7 627.5 344.9C627.2 345.8 629 353.3 631.4 361.5C658.3 452.3 673.1 529.5 682.4 627C684.6 650.2 685.4 660.1 687.9 697.5C688.3 704.1 689 710.2 689.3 711C689.8 712.1 687.8 713.8 681.7 717.2C677.2 719.9 672.3 722.7 670.9 723.6C668.4 725.2 667.9 725.2 661.4 722.6C657.6 721.1 650.7 718.8 646 717.6L637.5 715.4L628 697.1C616.9 675.9 614.5 672.4 611.2 673.4C608.5 674.3 602.2 686.3 594.9 704.4L590.1 716.3L581.7 719C571.2 722.4 559.3 728.7 549.3 736.2C533.6 747.9 508.8 775 513.7 775C514 775 518.4 771.1 523.4 766.2C541.4 748.9 564 734 581.8 727.9C586.8 726.2 587.1 726.2 586.6 727.8C583.2 739.7 583.6 741.2 591.2 743.4C606.4 747.8 619.8 747.8 633 743.4C644.5 739.5 645.7 737.9 643 730.2C642 727.4 641.3 725 641.5 725C643.1 725 658 730.3 658.5 731C658.8 731.5 657 733.3 654.5 735.1C648.7 739.2 648 741.9 651.2 746.8C659.3 758.9 672.3 768.8 685.9 773.4C696.4 776.8 698.3 776.4 700.6 770.4C702.2 766.1 702.5 765.9 703.7 767.6C707.2 772.3 712.5 785.3 719.8 807C729.3 835.1 731.8 841.3 737.6 850.6C742.7 858.9 753.3 869.3 761.4 873.9L767 877.2L763 881.8C757.3 888.2 752.6 896.3 750 904C747.4 911.7 746.3 928.3 747.8 937.5C748.3 940.8 748.7 943.6 748.6 943.7C748.4 943.9 737 941.7 723.2 938.9L698.1 933.9L685.8 936.4C663 941.1 650.4 942.3 629 941.7C594 940.7 566.1 933.9 534.5 918.6C478.7 891.6 441.6 848.2 424.8 790.5C417.8 766.3 415.5 747 416.3 719.6C417.5 678.1 424.2 656.2 456.1 590.8C483.4 534.7 491.7 513.6 497.4 485.9C502.6 460.3 503.4 450 503.4 414.5C503.4 386.6 503 378.6 501.1 363.1C499.2 346.9 494.9 320.6 493.4 315.8C493.1 314.7 495.2 312.6 501.2 308.4C553.8 271.3 595.8 212 607.2 158.6C610.1 144.8 610.3 120.7 607.6 110.5C605.2 101.5 601.9 94.1 597.9 88.5C596.1 86 594.9 83.8 595.1 83.6C596.8 82.2 620.1 69.8 631.1 64.6C669.5 46.3 704.6 34 738.5 27C746.2 25.4 753.1 24.1 753.8 24.1C754.6 24 777.1 32.4 803.8 42.7Z" fill="#5C658D"/>
<path d="M245.4 793C277.4 807.3 326 814.5 374.2 812C389.3 811.2 414.3 808.9 420.3 807.7C420.8 807.6 422.6 811.1 424.4 815.5C443.9 863 479 900.4 527 924.7L537.5 930H518.5C487 930 447.9 927.2 417.5 922.9C329.8 910.5 258 880.1 204.6 832.8L199.8 828.5L202.3 822.3C205.5 814.3 212 805.2 217.3 800.9C221.5 797.5 235.5 790 237.6 790C238.3 790 241.8 791.3 245.4 793Z" fill="#5C658D"/>
<path d="M221 779.7L228 784.4L222.8 787.2C210.3 794 200.1 804.9 195.3 816.5C194.3 819 193.2 820.9 192.9 820.7C191.3 820.1 179.9 806.2 179.4 804.2C178.5 800.9 182.5 791.8 187.2 786.5C191.5 781.6 196.8 778.4 204 776.4C211.5 774.3 213.4 774.7 221 779.7Z" fill="#5C658D"/>
<path d="M203.8 767.2C204 767.7 203.3 768 202.3 768C201.3 768 197.3 769.5 193.5 771.4C185.6 775.1 178.3 782.2 174.8 789.4C173.6 791.9 172.3 794 171.9 794C171.5 794 169 790.3 166.4 785.9L161.7 777.8L163.5 774.3C168.5 765 175.9 759.3 186.3 756.6L191.5 755.2L197.5 760.9C200.8 764 203.7 766.8 203.8 767.2Z" fill="#5C658D"/>
<path d="M144 678.5C153.2 700.1 165.4 721.5 178.2 738.4C184.8 747.2 184.9 747.5 182.7 748.4C170.8 753.2 168.6 754.6 163 760.7C156.2 768.2 156.9 768.7 151.7 753C147 738.8 143.2 721.5 141 704C139.2 689.4 137.5 665.2 138.4 666C138.6 666.3 141.1 671.9 144 678.5Z" fill="#5C658D"/>
<path d="M249.5 659.2C247.9 664.4 238.9 682 234.2 689.1C225 702.8 206.7 718.2 189.3 726.9C185.9 728.6 182.9 730 182.6 730C181.1 730 158 690.9 158 688.4C158 687.7 161.4 687.1 166.8 686.7C177.2 685.9 194.6 681.7 208.5 676.5C218 672.9 245.4 659.9 247.5 657.9C249.1 656.3 250.2 656.9 249.5 659.2Z" fill="#5C658D"/>
<path d="M132 702.5C132.6 708 134.5 719.2 136.1 727.4C137.7 735.6 138.8 742.5 138.5 742.9C137.5 743.9 117.8 743 107.2 741.4C85.7 738.3 68.5 731.3 53 719.6C44.3 713 29.2 698.3 32.2 699.3C37 701 60.9 702.2 78.3 701.7C98.6 701.1 109.7 699.4 123.5 694.7C127.4 693.3 130.6 692.3 130.7 692.4C130.7 692.4 131.3 697 132 702.5Z" fill="#5C658D"/>
<path d="M897 872.5C899.3 873.3 902.8 874 904.7 874C907.9 874 908.3 874.4 910.6 879.4C914.8 888.7 916.2 897.9 915.7 912.5C914.9 934.8 908.3 952.9 896.9 964.3C888.3 972.9 884 974.5 870.5 974.4C857.2 974.3 847.3 971.6 830.5 963.6C822.6 959.8 816.8 957.8 810.2 956.5C803.9 955.3 800.6 954.2 800 953.1C799.5 952.2 798.7 946.9 798 941.4C796 922.9 799.6 909.3 810 896.2C813.9 891.3 814.6 890.9 817.9 891.2C821.5 891.5 821.5 891.5 821 895.5C820.2 901.7 820.4 925.7 821.3 926.6C822.6 927.9 822.9 926.6 824 916.9C825.4 903.3 827.8 894.1 831.9 885.8C835.2 879.2 835.7 878.5 838 879C839.4 879.3 844.6 879.5 849.5 879.5C856.6 879.5 859.5 879 863.3 877.3C865.9 876.1 868 874.5 868 873.7C868 872.6 869.4 872.4 874.8 872.7C878.5 873 883.1 872.8 885 872.2C890 870.7 892.2 870.8 897 872.5Z" fill="#5C658D"/>
<path d="M800.8 888.5C802.5 888.9 804 889.4 804 889.7C804 890 802.7 891.9 801.1 893.9C797.7 898.3 793.9 905.6 791.4 913C789.9 917.3 789.5 921.4 789.5 932C789.5 939.4 789.8 947 790.2 948.7C791.1 952.5 790.8 952.6 783.1 950.9C778.118 949.904 778.1 949.801 777.309 945.249L777.3 945.2C776.9 942.6 776.5 935.3 776.5 929C776.5 919.7 777 916.2 778.8 910.8C782.3 900.8 792.7 886.5 795.9 887.4C796.8 887.7 799 888.1 800.8 888.5Z" fill="#5C658D"/>
<path d="M781.2 883.1L784.8 884.3L780.3 890.4C777.8 893.7 775 898.1 774 900C768.7 910.5 766.5 924.1 767.9 938C768.5 943.2 768.8 947.6 768.6 947.7C768.4 947.9 766 947.5 763.2 946.9C757.3 945.7 757.3 945.7 756.1 933.4C755.4 924.9 755.9 914.9 757.5 908.5C759.6 899.9 773.4 880.1 776.4 881.4C777 881.7 779.099 882.4 781.199 883.1L781.2 883.1Z" fill="#5C658D"/>
<path d="M857.1 860.1C859.3 865.4 861 870.2 861 870.8C861 872.4 850.3 874.3 845.3 873.5L840.8 872.8L841.4 868C842 863.3 845.5 852.2 848 846.7L849.3 844L851.3 847.2C852.4 849 855 854.8 857.1 860.1Z" fill="white"/>
<path d="M881.8 841.8C883.5 846.1 885.8 852.8 886.9 856.7C889.1 864.9 889.3 864.7 880.1 865.6C875.3 866.1 866 864.7 866 863.5C866 863.3 867.1 859.5 868.5 855C871.7 845.2 876.6 834 877.8 834C878.3 834 880.1 837.5 881.8 841.8Z" fill="white"/>
<path d="M910.7 857.4L911.3 868.3L905.1 867.8C898.2 867.3 896.4 866.1 895.5 861C894.8 857.2 897.2 852.8 904.7 844.1L908.4 839.7L909.2 843.1C909.7 845 910.3 851.4 910.7 857.4Z" fill="white"/>
<path d="M857 721.2C857 728.6 854.4 753.4 852.5 764.5C845.1 808 827.9 845.9 804.4 870.8L796.5 879.2L787.1 876.1C772.2 871.2 762.6 865.6 753.9 857C743.8 846.9 739.1 837.5 728.9 806.8C720.1 780.6 715.5 769.5 709.2 760.4L705.2 754.5L707.7 742C709 735.1 710.4 728.2 710.8 726.6L711.5 723.8L724.2 732.3C746.9 747.5 772.4 770.3 792.4 793.5C796.7 798.4 800.8 802.9 801.6 803.3C803.7 804.5 807 803.1 808 800.7C820.3 771.2 833.8 747.5 849.4 727.8C855.4 720.1 857 718.8 857 721.2Z" fill="#5C658D"/>
<path d="M854.1 708.6C831.6 735.6 818.7 755.5 807.1 781.3C804.7 786.7 802.4 790.9 802 790.8C801.6 790.6 796.5 785.3 790.7 778.9C770.6 756.8 750.3 739.3 726.3 723.4C712.7 714.4 712.1 713.8 712.6 711.1C713.3 707.7 711.6 704 709.2 704C708.3 704 705.6 704.7 703.2 705.7C700.3 706.8 698.6 707 697.9 706.3C697.3 705.7 696.6 701.8 696.3 697.6L695.7 690L704.1 693.8C733.4 707.3 757 724 783.2 749.8C794.8 761.3 798.3 764.1 800.2 763.8C802 763.6 803.9 760.8 809.9 749.5C821.8 726.8 833.5 710.1 848.7 693.9L855.5 686.7L856.1 696.1C856.7 705.2 856.7 705.6 854.1 708.6Z" fill="#5C658D"/>
<path d="M805.4 642C819.6 646.9 837.3 659.4 848 672.1L852.2 677.1L845.3 684.7C826.3 705.7 815 721.4 804.5 741.3C801.4 747.2 798.6 752 798.4 752C798.1 752 793.1 747.3 787.2 741.6C763 718 744.3 704.6 715.3 689.9L700.1 682.2L702.8 679.8C707 675.9 720.8 665.7 728.7 660.7C744.1 650.9 763.9 642.4 777.1 640.1C785.1 638.6 798.5 639.5 805.4 642Z" fill="#FBD038"/>
<path d="M649.8 368.6C669.1 385.4 698.7 406.4 722 419.7C760.3 441.7 799.6 455.8 834.3 460.1C847.7 461.7 870.1 460.8 880.7 458.1C904 452.3 919 437.8 923.4 417C925.4 407.6 926.4 411.6 925.7 425.8C924.4 453.2 913.7 469.5 889.5 481.1C851 499.5 798.1 495 731.1 467.6C723.6 464.6 724 464.6 724 466.3C724 468.1 752.4 482.7 767.2 488.4C778.3 492.8 800 499 804 499C806.5 499 808.5 502.9 816.5 523.4C832.1 563.4 843.9 605.3 850.5 644.6C854.2 666.2 854.6 665.4 844.1 656.2C829.6 643.4 816.6 635.8 803 632.4C792.6 629.8 775.3 630.9 762.5 635C744.2 640.9 724.2 652.1 704.8 667.2L695.2 674.8L694.6 667.7C684.8 548 672.1 473.9 645.2 378.2C642.5 368.8 640.5 361 640.7 361C640.9 361 645 364.4 649.8 368.6Z" fill="#D65C3B"/>
<path d="M713.4 360.7C712.6 369.5 708.9 396.2 708.1 398.3C707.5 400 706.5 399.6 698.9 394.4C684.3 384.5 675.9 378 676.4 377.1C678.2 374.3 709.8 355 712.7 355C713.5 355 713.7 356.7 713.4 360.7Z" fill="white"/>
<path d="M762 388.7C762 399.6 760.2 427.1 759.4 428C758.8 428.5 747.4 422.9 732.2 414.7L720.9 408.7L725.2 404.8C737.9 393.6 758.8 378 761.2 378C761.6 378 762 382.8 762 388.7Z" fill="white"/>
<path d="M816.837 447.688C799.279 443.671 776.679 436.853 775.5 435C775.2 434.5 777.7 430.6 781.1 426.3C791.8 412.6 810 395.1 810 398.5C810 398.7 810.9 404.5 812 411.2C813.1 418 814.4 427.7 814.9 432.9C815.273 436.733 816.014 442.749 816.837 447.688Z" fill="white"/>
<path d="M776.5 319.9C789 332.4 808.3 347 812.2 347C816.1 347 817.1 344.4 818.3 331.3C818.9 325.1 819.7 320 820.1 320C821.6 320 837.3 331.1 846.7 338.6C870.5 357.9 885.9 379 894.9 404.4C898.3 414 903 431.7 903 434.8C903 439.4 890.5 446.4 876.5 449.6C865.7 452.1 839.6 452.1 826 449.6C825.803 449.564 825.604 449.527 825.403 449.49C825.275 443.874 824.365 435.089 823.5 427.5C821.1 406.1 817.6 388.4 815.2 385.7C814.4 384.8 812.9 384 812 384C808.3 384 783.5 407.7 774.1 420.3C771.7 423.5 769.6 425.9 769.4 425.8C769.3 425.6 769.5 421 770 415.5C771.4 400.7 771.2 371.6 769.8 368.5C768.7 366.1 767.4 365.5 764 366C759.8 366.5 734.8 383.8 724.4 393.3C721.4 396 718.7 398 718.4 397.7C718.1 397.4 718.5 392.7 719.4 387.3C722.9 365.3 724 346.4 721.8 344.2C721.1 343.5 719.5 343 718.1 343C713.1 343 684.7 358.8 672.9 368.1C670.9 369.7 668.7 371 668 371C666.9 371 656.4 362.4 645.1 352.3L640.6 348.3L650.1 346C661.8 343.2 698.9 332.7 705 330.5L709.5 328.9L714.5 334.7C727.6 350 746.8 367.9 751.7 369.4C755.4 370.6 757.6 367.2 759.4 357.4C761 348.7 763.4 330.1 764.6 316.7C764.9 313 765.5 310 765.8 310C766.2 310 771 314.5 776.5 319.9Z" fill="#D88F8B"/>
<path d="M870.8 313.3L873 315.6L868.8 318.8C866.5 320.5 864.5 321.9 864.4 321.7C863.9 321.2 867.3 311 868 311C868.4 311 869.6 312 870.8 313.3Z" fill="#66494C"/>
<path d="M901 351.2C901 351.6 900.1 352.4 899 353C896.8 354.2 896.5 353.4 897.7 349.1C898.3 346.8 898.4 346.8 899.7 348.5C900.4 349.6 901 350.7 901 351.2Z" fill="#66494C"/>
<path d="M835.5 284.6C838.5 286.6 840.7 288.6 840.5 289C840.2 289.5 837.1 291.5 833.5 293.5C827.9 296.6 827 297.5 827 300C827 307.3 850.1 328 858.4 328C859.9 328 861 328.6 861 329.3C861 330 863.2 334 866 338.2C871.4 346.5 878.7 353.6 885.9 357.7C888.4 359.2 890.6 360.4 890.7 360.5C890.9 360.6 891.9 364.1 892.9 368.2C895.1 376.8 898.6 384.3 903.7 391.2C907.7 396.7 910.1 397.8 913.5 395.6L916 394V399.7C916 407.2 914.3 417.3 912.4 421.9L910.8 425.5L908.8 418C903.7 398.5 897.1 383.4 887.5 368.9C875.5 350.8 853.4 330.1 830.3 315.3L820 308.7V296.9V285L823.8 283.1C828.8 280.4 829.2 280.5 835.5 284.6Z" fill="#66494C"/>
<path d="M863.5 293.7C861.9 301.3 858 315 856.9 317.2C856 318.8 855.7 318.8 852.6 316.9C848.1 314.3 840.6 307.6 838 304L836 301.2L841.5 298C846.5 295.1 862.5 288.1 864.1 288C864.5 288 864.2 290.6 863.5 293.7Z" fill="white"/>
<path d="M893.6 318.7C892.2 328.4 888.7 346.5 888.1 347.3C887.1 348.3 875.9 337.1 873.5 332.7C871.9 329.7 871.8 328.9 873 327.5C874.7 325.5 891.8 314 893.2 314C893.9 314 894 315.7 893.6 318.7Z" fill="white"/>
<path d="M920.5 355.2C918.1 362.9 910.2 383 909.5 383C908.7 383 904.9 374.9 902.9 369.1C901.4 365 901.3 363.4 902.2 362.3C903.3 360.9 918.7 353 920.3 353C920.8 353 920.8 354 920.5 355.2Z" fill="white"/>
<path d="M754.7 323C753.9 333.6 751.1 354 750.1 355.8C749.6 356.7 746.2 354.1 739.4 347.7C729.3 338 720.2 327.6 720.9 326.2C721.4 325.4 751.7 314.2 753.9 314.1C755 314 755.2 315.6 754.7 323Z" fill="white"/>
<path d="M810.1 315.4C809.4 325.8 808.8 334.5 808.7 334.6C808 335.3 788.7 319.4 782.3 312.9L775.1 305.5L792.3 297.9L809.5 290.3L810.3 293.3C810.8 295 810.7 304.8 810.1 315.4Z" fill="white"/>
<path d="M304.5 354.1C346.1 357.7 396.7 371.4 445.5 392.2C460.8 398.7 492.8 414.4 494.7 416.3C495.6 417.2 495.6 421.9 494.9 435.4C492.9 475.3 485.7 505.8 470.3 540.8C465.6 551.6 451.5 580.9 450.6 581.7C450.2 582.1 250.9 466.2 249.3 464.6C248.5 463.8 248.4 458.4 248.9 444C249.7 423.7 249.2 419.9 245.8 419.2C244.8 419 235.3 423.4 224.7 428.9L205.3 439L166.4 415.9C145 403.2 127.3 392.6 127.1 392.4C126.5 391.8 147.7 382 162 376.2C212.5 355.8 252.7 349.6 304.5 354.1Z" fill="#5C658D"/>
<path d="M380 197.2C382.1 216 388.5 233.9 398.7 249.3C404.3 257.7 416.1 270.4 424 276.5C438.8 287.9 460 296.8 477.5 299C482.5 299.6 488.7 300.4 491.5 300.8L496.5 301.5L488 307C476.6 314.4 455.4 325 445.5 328.2C432.1 332.6 418.3 335 406.1 335C392.3 335 386.6 333.8 376.4 329C362.8 322.5 353.1 310 348.3 293C345.9 284 345.9 261.8 348.4 250C352.5 230.6 362.3 206.4 373.7 187.5L378.5 179.5L378.7 183.5C378.9 185.7 379.5 191.8 380 197.2Z" fill="#5C658D"/>
<path d="M469 121.8C470.7 131.4 475.4 145.4 480 154.4C496.4 186.3 529.3 210.3 563.3 215.1C567.8 215.7 572.1 216.4 572.8 216.6C573.7 216.9 572.9 218.8 570.4 222.7C556.6 244.5 535.4 269.2 516.7 285.4L509.9 291.3L498.7 291.8C447.8 293.7 403.2 259.9 390.7 210C389.2 203.6 388.6 198.2 388.6 188C388.5 166.5 389 164.5 396.8 154.8C405.1 144.4 426.1 123.3 436.2 115.2C440.4 111.8 449 105.5 455.2 101.3L466.5 93.7L467.2 104.5C467.5 110.5 468.4 118.3 469 121.8Z" fill="#5C658D"/>
<path d="M557.2 71.5C577.9 75.8 592.6 90.2 598.6 112C601.3 121.5 601 144.1 598.2 157.3C595.2 170.9 590.8 183.6 584.5 196.7L579.1 208H575.2C573 208 567.6 207.3 563.3 206.5C530.2 200.2 502.3 179.4 487.5 150C479.2 133.4 475.6 117.6 476.2 99L476.5 88.5L485 84.2C495.1 79.2 512 73.5 522.8 71.6C533 69.7 548.8 69.7 557.2 71.5Z" fill="#5C658D"/>
<path d="M855.5 21C881.5 22.9 920.1 28.5 937.5 32.8L944.4 34.5L948.3 45.5C953.4 60.1 960.5 84.5 964 100C967.2 114 971.3 137.6 970.8 139.1C970.6 139.6 964.9 135.2 958 129.4C923.3 99.8 919.8 97 917.7 97C916.5 97 901.6 105.1 884.5 114.9C867.5 124.8 853.4 132.8 853.3 132.6C853.2 132.5 855.3 117.1 858.1 98.4C863.7 60.1 863.9 58.4 861.9 56.6C861.1 55.8 841.3 47.9 817.8 38.9C794.3 29.9 775.4 22.2 775.8 21.8C777.5 20.1 835 19.5 855.5 21Z" fill="#FBD038"/>
<path d="M621 702C626.9 713.9 635.4 733 634.8 733.5C634.6 733.6 632.3 734.5 629.5 735.4C622.5 737.8 609 738.5 601 736.8C594.5 735.4 594.5 735.3 594.8 732.1C595.1 728 602.6 707.1 608 695.5C612.9 684.9 612.1 684.5 621 702Z" fill="white"/>
<path d="M946 749.5C948.3 750.3 951.8 751 953.7 751C956.9 751 957.3 751.4 959.6 756.4C963.8 765.7 965.2 774.9 964.7 789.5C963.9 811.8 957.3 829.9 945.9 841.3C938.4 848.7 932.7 851.3 923.6 851.4L916.6 851.5L915.3 843.2C913.8 833.7 912.7 831 910.1 831C908.3 831 902.2 837 896.9 843.8C894.1 847.4 891.6 847.4 890.4 843.7C890 842.5 887.8 837.4 885.5 832.4C879.6 819.8 877.2 819.2 871.8 829.1C870 832.4 867.9 835 867 835C864.8 834.9 843 830.3 842.5 829.8C842.2 829.6 843.9 824.9 846.1 819.4C851.1 807.1 856.2 790.6 858.8 777.7C859.9 772.2 861 767.7 861.2 767.6C861.4 767.5 863.6 767.5 866.2 767.8L871 768.2L870.2 772.4C869.3 777.8 869.3 802.6 870.3 803.6C871.6 804.9 871.9 803.6 873 793.9C874.4 780.3 876.8 771.1 880.9 762.8C884.2 756.2 884.7 755.5 887 756C888.4 756.3 893.6 756.5 898.5 756.5C905.6 756.5 908.5 756 912.3 754.3C914.9 753.1 917 751.5 917 750.7C917 749.6 918.4 749.4 923.8 749.7C927.5 750 932.1 749.8 934 749.2C939 747.7 941.2 747.8 946 749.5Z" fill="#3B4057"/>
<path d="M906.1 737.1C908.3 742.4 910 747.2 910 747.8C910 749.4 899.3 751.3 894.3 750.5L889.8 749.8L890.4 745C891 740.3 894.5 729.2 897 723.7L898.3 721L900.3 724.2C901.4 726 904 731.8 906.1 737.1Z" fill="#8A8A8A"/>
<path d="M930.8 718.8C932.5 723.1 934.8 729.8 935.9 733.7C938.1 741.9 938.3 741.7 929.1 742.6C924.3 743.1 915 741.7 915 740.5C915 740.3 916.1 736.5 917.5 732C920.7 722.2 925.6 711 926.8 711C927.3 711 929.1 714.5 930.8 718.8Z" fill="#8A8A8A"/>
<path d="M959.7 734.4L960.3 745.3L954.1 744.8C947.2 744.3 945.4 743.1 944.5 738C943.8 734.2 946.2 729.8 953.7 721.1L957.4 716.7L958.2 720.1C958.7 722 959.3 728.4 959.7 734.4Z" fill="#8A8A8A"/>
<path d="M884.7 525.1C890 527.3 897.9 534.7 902.1 541.1C908.6 551.2 911.1 566 909.1 581.5C908.4 586.4 907.6 590.8 907.4 591.2C907.1 591.7 904.3 589.7 901.2 586.9C893.2 579.5 886.5 575.5 874.1 570.6C853.9 562.4 852 560.7 852 551.1C852 542 857 532.1 864.5 526.4C870.5 521.8 876.3 521.4 884.7 525.1Z" fill="#8A8A8A"/>
<path d="M859.5 516.6C860.3 516.9 859 518.8 855.9 521.7C846.8 530.2 840.8 546.5 843 556.5C845 565.6 847.2 568.2 857 573.4L863.3 576.8L858.1 577.9C855.2 578.5 851 579 848.6 579H844.4L840.2 565.2C837.9 557.6 833.4 544.2 830.2 535.4L824.3 519.5L828.4 518.2C837.5 515.4 854.1 514.6 859.5 516.6Z" fill="#3B4057"/>
<path d="M702.5 721.7C701.6 729.1 696.5 753.9 694.5 760.7C693.4 764.3 692.4 766 691.3 766C690.4 766 685.9 764.2 681.3 762C675 758.9 671.3 756.2 666 750.9C662.2 747 659 743.4 659 742.9C659 740.9 699 716.1 702.4 716C702.8 716 702.9 718.6 702.5 721.7Z" fill="white"/>
<path d="M740 179.6C738.6 179.9 733.7 180.8 729 181.7C717.6 183.8 698.9 190.1 686.4 195.9C676 200.9 674 202.4 675.8 204.2C676.5 204.9 679.6 204.3 685.6 202.1C704.9 195.1 730.7 189.5 748.5 188.4C759.3 187.7 782 188.7 782 189.9C782 190.3 779.4 191.7 776.3 192.9C766 197.1 750.1 205.7 741.8 211.7C728 221.6 701 249.9 701 254.5C701 258.1 703.9 256.4 713.8 246.8C740.3 221.3 763.8 206.4 793 196.6C806 192.2 807 191.6 807 188.5C807 185 804.8 183.9 793.3 181.9C782.9 180 746.2 178.4 740 179.6Z" fill="black"/>
</svg>
