<svg width="1024" height="1024" viewBox="0 0 1024 1024" fill="none" xmlns="http://www.w3.org/2000/svg">
<path d="M805 26.1327C757.6 29.3327 722.7 37.2327 677.5 55.1327C659.2 62.3327 627.8 77.1327 609.9 87.0327L601.4 91.7327L596.3 88.0327C584.4 79.5327 572 76.0327 553.5 76.1327C521.7 76.2327 487.6 90.0327 450.5 117.833C436.2 128.533 412.6 151.733 401 166.433C362.5 214.933 343.7 270.333 352.9 307.933C356.4 322.333 360.9 330.633 370.4 339.933C384.5 353.833 400.9 359.433 423.5 358.133C444.6 356.933 461.3 352.133 483.8 340.833C492.3 336.633 498.3 334.133 498.5 334.833C499.4 337.333 503.1 358.733 504.5 369.433C507.3 391.533 509 420.433 507.5 420.433C507.2 420.433 503.7 418.633 499.7 416.533C480.7 406.033 439.9 389.033 413.4 380.433C347.9 359.233 289.2 353.433 237.3 363.033C208.6 368.333 176.7 379.233 144.3 394.933C128.3 402.733 125.7 404.933 128.2 408.633C128.9 409.733 149.1 422.233 173 436.533C206.5 456.533 217.1 462.433 219 462.033C220.4 461.733 228.4 457.933 236.8 453.533C245.2 449.033 252.5 445.433 252.9 445.433C253.4 445.433 253.5 453.933 253.2 464.333L252.7 483.333L257.2 486.133C259.6 487.633 306 514.833 360.3 546.433C414.6 578.033 459 604.433 459 605.033C459 605.633 455.4 613.533 451.1 622.533C431.3 663.633 423.3 690.833 420.8 725.733C418.9 751.033 422.4 784.233 429.1 806.133C430.6 810.933 430.9 812.933 430 813.433C425.9 815.933 382.5 818.833 358 818.133C303.2 816.633 261.3 804.533 231.1 781.633C223.1 775.633 209.7 762.533 204.2 755.633L200.9 751.533L207.2 748.333C224.3 739.833 241.3 725.733 252.3 710.933C262 697.933 275.6 667.533 274.8 660.633C274.3 656.033 270.2 656.533 260.5 662.433C248.5 669.633 225.4 680.633 213.1 684.833C200.9 689.133 186.7 692.133 174.8 693.033L166.3 693.733L161.2 680.833C158.5 673.733 155.9 666.833 155.5 665.433C155.1 664.033 153.9 660.533 152.8 657.633C151.1 653.033 150.5 652.433 148 652.433C146.1 652.433 144.7 653.133 144 654.333C143.4 655.533 143 664.733 143 677.233V698.133L132.7 701.333C107.9 709.133 77.5 710.233 42.8 704.833C31.2 702.933 29 703.433 29 707.833C29 710.533 40.6 723.733 51 732.933C76 755.033 101.4 764.533 140.8 766.333L155.1 766.933L158.9 776.933C168.8 803.033 182.7 824.133 204.5 846.033C251 892.833 323.8 927.433 407 942.333C448.6 949.733 511.8 954.433 553 953.133C570.7 952.533 571.8 952.633 579.5 954.933C601.1 961.633 623.7 964.833 648.5 964.833C668.3 964.833 674.1 964.233 697.6 959.733L711.7 957.133L770.1 968.833L828.5 980.533L840 985.833C861.4 995.833 877.9 999.533 891.4 997.433C901.9 995.833 908.2 992.533 916 984.533C936.2 964.033 943.7 922.533 932.5 892.833C931 888.833 930 884.133 930 881.033V875.833L938.6 874.633C950.5 873.033 956.8 869.933 965 861.533C985.2 841.033 992.7 799.533 981.5 769.833C979.5 764.533 979 761.333 979 754.033C979 744.533 976.7 727.533 974.9 724.333C972.7 720.133 969.3 722.733 956.7 737.833L954.3 740.833L953 736.833C950.6 729.333 943.3 714.733 941.6 714.133C940.7 713.733 939.3 713.733 938.5 714.033C936.8 714.733 930.4 726.133 927 734.633C925.5 738.233 924 740.433 923.1 740.433C922.2 740.433 920 737.633 918 733.833C912.3 723.133 909.8 723.033 905.1 733.433C901.8 740.933 898 751.633 898 753.633C898 754.333 896.2 757.533 894.1 760.833C892 764.033 889.4 768.433 888.4 770.633L886.6 774.633L881.1 773.933C878 773.533 875.4 773.133 875.4 773.133C875.3 773.033 875.7 770.033 876.3 766.433C876.9 762.733 877.4 746.233 877.4 727.933C877.4 693.633 876.3 680.733 870.4 648.433C868.3 637.033 862.2 609.833 860.5 604.333C860 603.033 861.1 602.633 866.9 602.133C870.7 601.833 877.1 600.433 881.2 599.033C885.3 597.633 889.4 596.433 890.2 596.433C893.3 596.433 906.7 606.333 913.8 613.833C917.7 618.033 921.5 621.433 922.3 621.433C925.8 621.433 928.1 616.133 930.5 602.033C934.7 577.233 929.9 556.933 916 542.133C910 535.733 898.5 528.433 894.1 528.433C893.2 528.433 888 526.833 882.5 524.833C869.6 520.333 860.8 519.633 848 521.933C842.8 522.933 837.3 523.933 835.9 524.133C833.7 524.533 833.1 524.133 832.2 521.733C831.7 520.233 830.9 518.133 830.5 517.133C829.8 515.433 830.4 515.333 839.6 516.033C861.5 517.533 889.3 512.433 907.4 503.533C935 490.033 947.9 468.733 948 436.833C948 423.233 946.1 411.833 941.4 397.233L937.8 386.133L942.2 373.333C946.7 359.933 946.7 358.533 942.7 356.033C941.4 355.233 938.9 355.633 932.4 357.833C925.2 360.333 923.7 360.533 923 359.333C922.5 358.533 920.3 355.433 918 352.433C915 348.433 914 346.233 914.4 344.433C915.8 337.033 917.2 321.333 916.6 319.033C915.5 314.633 912.2 314.733 902.9 319.633C898.3 321.933 894.2 323.933 893.8 323.933C893.5 323.933 891 321.833 888.3 319.233L883.3 314.633L885.1 305.833C886.7 297.933 886.8 296.733 885.4 294.733C883.5 291.733 882.9 291.833 872.6 295.533L864 298.733L858.4 294.833C855.4 292.733 852.7 290.733 852.4 290.333C851.8 289.333 869.6 281.533 882 277.433C888.3 275.333 898.2 272.833 904 271.933C923.2 268.933 956.1 270.133 978.3 274.833C985 276.233 988.3 275.633 989.4 272.933C990.4 270.233 992.8 250.133 994.1 233.333C995.6 212.933 994.8 168.133 992.6 151.933C988.8 124.733 981.9 95.3327 972.3 65.9327C965.1 43.7327 964 41.8327 959.1 40.4327C937.6 34.6327 895.4 28.6327 861.5 26.4327C847 25.5327 816.2 25.3327 805 26.1327ZM868.5 35.4327C894.5 37.3327 933.1 42.9327 950.5 47.2327L957.4 48.9327L961.3 59.9327C966.4 74.5327 973.5 98.9327 977 114.433C980.2 128.433 984.3 152.033 983.8 153.533C983.6 154.033 977.9 149.633 971 143.833C936.3 114.233 932.8 111.433 930.7 111.433C929.5 111.433 914.6 119.533 897.5 129.333C880.5 139.233 866.4 147.233 866.3 147.033C866.2 146.933 868.3 131.533 871.1 112.833C876.7 74.5327 876.9 72.8327 874.9 71.0327C874.1 70.2327 854.3 62.3327 830.8 53.3327C807.3 44.3327 788.4 36.6328 788.8 36.2327C790.5 34.5327 848 33.9327 868.5 35.4327ZM816.8 57.1327C843.6 67.3327 866 76.2327 866.6 76.8327C867.4 77.6327 866 88.9327 861.9 116.833C855.8 157.733 855.8 159.433 860.4 159.433C861.7 159.433 877.9 150.633 896.4 139.933L930.2 120.333L935.8 125.133C970.6 154.633 983.7 165.833 984.7 167.233C986.6 169.933 987.4 200.533 986.1 222.433C984.9 242.133 982.6 265.133 981.7 266.033C981.5 266.333 977.2 265.833 972.4 265.033C941.1 259.733 909.1 260.433 886.4 267.033C872.8 270.933 861.8 275.533 834 289.233C809.2 301.333 790.8 309.733 778.5 314.333C775.2 315.633 771.2 317.233 769.5 317.933C749 326.733 693.9 344.033 658.4 352.833C641.8 356.933 641.2 357.133 640.5 359.333C640.2 360.233 642 367.833 644.5 376.233C647 384.533 649 391.733 649 392.233C649 393.333 623.2 399.733 610 402.033C595.6 404.433 563 405.033 550.1 403.033C538.6 401.233 517.9 396.633 516.7 395.533C516.3 395.133 515.1 386.733 513.9 376.933C512.2 361.433 508 335.333 506.4 330.233C506.1 329.133 508.2 327.033 514.2 322.833C566.8 285.733 608.8 226.433 620.2 173.033C623.1 159.233 623.3 135.133 620.6 124.933C618.2 115.933 614.9 108.533 610.9 102.933C609.1 100.433 607.9 98.2327 608.1 98.0327C609.8 96.6327 633.1 84.2327 644.1 79.0327C682.5 60.7327 717.6 48.4327 751.5 41.4327C759.2 39.8327 766.1 38.5327 766.8 38.5327C767.6 38.4327 790.1 46.8327 816.8 57.1327ZM570.2 85.9327C590.9 90.2327 605.6 104.633 611.6 126.433C614.3 135.933 614 158.533 611.2 171.733C608.2 185.333 603.8 198.033 597.5 211.133L592.1 222.433H588.2C586 222.433 580.6 221.733 576.3 220.933C543.2 214.633 515.3 193.833 500.5 164.433C492.2 147.833 488.6 132.033 489.2 113.433L489.5 102.933L498 98.6327C508.1 93.6327 525 87.9327 535.8 86.0327C546 84.1327 561.8 84.1327 570.2 85.9327ZM482 136.233C483.7 145.833 488.4 159.833 493 168.833C509.4 200.733 542.3 224.733 576.3 229.533C580.8 230.133 585.1 230.833 585.8 231.033C586.7 231.333 585.9 233.233 583.4 237.133C569.6 258.933 548.4 283.633 529.7 299.833L522.9 305.733L511.7 306.233C460.8 308.133 416.2 274.333 403.7 224.433C402.2 218.033 401.6 212.633 401.6 202.433C401.5 180.933 402 178.933 409.8 169.233C418.1 158.833 439.1 137.733 449.2 129.633C453.4 126.233 462 119.933 468.2 115.733L479.5 108.133L480.2 118.933C480.5 124.933 481.4 132.733 482 136.233ZM393 211.633C395.1 230.433 401.5 248.333 411.7 263.733C417.3 272.133 429.1 284.833 437 290.933C451.8 302.333 473 311.233 490.5 313.433C495.5 314.033 501.7 314.833 504.5 315.233L509.5 315.933L501 321.433C489.6 328.833 468.4 339.433 458.5 342.633C445.1 347.033 431.3 349.433 419.1 349.433C405.3 349.433 399.6 348.233 389.4 343.433C375.8 336.933 366.1 324.433 361.3 307.433C358.9 298.433 358.9 276.233 361.4 264.433C365.5 245.033 375.3 220.833 386.7 201.933L391.5 193.933L391.7 197.933C391.9 200.133 392.5 206.233 393 211.633ZM848.5 299.033C851.5 301.033 853.7 303.033 853.5 303.433C853.2 303.933 850.1 305.933 846.5 307.933C840.9 311.033 840 311.933 840 314.433C840 321.733 863.1 342.433 871.4 342.433C872.9 342.433 874 343.033 874 343.733C874 344.433 876.2 348.433 879 352.633C884.4 360.933 891.7 368.033 898.9 372.133C901.4 373.633 903.6 374.833 903.7 374.933C903.9 375.033 904.9 378.533 905.9 382.633C908.1 391.233 911.6 398.733 916.7 405.633C920.7 411.133 923.1 412.233 926.5 410.033L929 408.433V414.133C929 421.633 927.3 431.733 925.4 436.333L923.8 439.933L921.8 432.433C916.7 412.933 910.1 397.833 900.5 383.333C888.5 365.233 866.4 344.533 843.3 329.733L833 323.133V311.333V299.433L836.8 297.533C841.8 294.833 842.2 294.933 848.5 299.033ZM876.5 308.133C874.9 315.733 871 329.433 869.9 331.633C869 333.233 868.7 333.233 865.6 331.333C861.1 328.733 853.6 322.033 851 318.433L849 315.633L854.5 312.433C859.5 309.533 875.5 302.533 877.1 302.433C877.5 302.433 877.2 305.033 876.5 308.133ZM823.1 329.833C822.4 340.233 821.8 348.933 821.7 349.033C821 349.733 801.7 333.833 795.3 327.333L788.1 319.933L805.3 312.333L822.5 304.733L823.3 307.733C823.8 309.433 823.7 319.233 823.1 329.833ZM789.5 334.333C802 346.833 821.3 361.433 825.2 361.433C829.1 361.433 830.1 358.833 831.3 345.733C831.9 339.533 832.7 334.433 833.1 334.433C834.6 334.433 850.3 345.533 859.7 353.033C883.5 372.333 898.9 393.433 907.9 418.833C911.3 428.433 916 446.133 916 449.233C916 453.833 903.5 460.833 889.5 464.033C883.2 465.533 877.9 465.933 864.5 465.833C855.2 465.733 845.5 465.333 843 464.833L838.5 463.833L837.3 450.433C836 435.133 834.7 426.233 831.9 411.933C829.8 401.833 828.1 398.433 825 398.433C821.3 398.433 796.5 422.133 787.1 434.733C784.7 437.933 782.6 440.333 782.4 440.233C782.3 440.033 782.5 435.433 783 429.933C784.4 415.133 784.2 386.033 782.8 382.933C781.7 380.533 780.4 379.933 777 380.433C772.8 380.933 747.8 398.233 737.4 407.733C734.4 410.433 731.7 412.433 731.4 412.133C731.1 411.833 731.5 407.133 732.4 401.733C735.9 379.733 737 360.833 734.8 358.633C734.1 357.933 732.5 357.433 731.1 357.433C726.1 357.433 697.7 373.233 685.9 382.533C683.9 384.133 681.7 385.433 681 385.433C679.9 385.433 669.4 376.833 658.1 366.733L653.6 362.733L663.1 360.433C674.8 357.633 711.9 347.133 718 344.933L722.5 343.333L727.5 349.133C740.6 364.433 759.8 382.333 764.7 383.833C768.4 385.033 770.6 381.633 772.4 371.833C774 363.133 776.4 344.533 777.6 331.133C777.9 327.433 778.5 324.433 778.8 324.433C779.2 324.433 784 328.933 789.5 334.333ZM883.8 327.733L886 330.033L881.8 333.233C879.5 334.933 877.5 336.333 877.4 336.133C876.9 335.633 880.3 325.433 881 325.433C881.4 325.433 882.6 326.433 883.8 327.733ZM767.7 337.433C766.9 348.033 764.1 368.433 763.1 370.233C762.6 371.133 759.2 368.533 752.4 362.133C742.3 352.433 733.2 342.033 733.9 340.633C734.4 339.833 764.7 328.633 766.9 328.533C768 328.433 768.2 330.033 767.7 337.433ZM906.6 333.133C905.2 342.833 901.7 360.933 901.1 361.733C900.1 362.733 888.9 351.533 886.5 347.133C884.9 344.133 884.8 343.333 886 341.933C887.7 339.933 904.8 328.433 906.2 328.433C906.9 328.433 907 330.133 906.6 333.133ZM914 365.633C914 366.033 913.1 366.833 912 367.433C909.8 368.633 909.5 367.833 910.7 363.533C911.3 361.233 911.4 361.233 912.7 362.933C913.4 364.033 914 365.133 914 365.633ZM317.5 368.533C359.1 372.133 409.7 385.833 458.5 406.633C473.8 413.133 505.8 428.833 507.7 430.733C508.6 431.633 508.6 436.333 507.9 449.833C505.9 489.733 498.7 520.233 483.3 555.233C478.6 566.033 464.5 595.333 463.6 596.133C463.2 596.533 263.9 480.633 262.3 479.033C261.5 478.233 261.4 472.833 261.9 458.433C262.7 438.133 262.2 434.333 258.8 433.633C257.8 433.433 248.3 437.833 237.7 443.333L218.3 453.433L179.4 430.333C158 417.633 140.3 407.033 140.1 406.833C139.5 406.233 160.7 396.433 175 390.633C225.5 370.233 265.7 364.033 317.5 368.533ZM933.5 369.633C931.1 377.333 923.2 397.433 922.5 397.433C921.7 397.433 917.9 389.333 915.9 383.533C914.4 379.433 914.3 377.833 915.2 376.733C916.3 375.333 931.7 367.433 933.3 367.433C933.8 367.433 933.8 368.433 933.5 369.633ZM726.4 375.133C725.6 383.933 721.9 410.633 721.1 412.733C720.5 414.433 719.5 414.033 711.9 408.833C697.3 398.933 688.9 392.433 689.4 391.533C691.2 388.733 722.8 369.433 725.7 369.433C726.5 369.433 726.7 371.133 726.4 375.133ZM662.8 383.033C682.1 399.833 711.7 420.833 735 434.133C773.3 456.133 812.6 470.233 847.3 474.533C860.7 476.133 883.1 475.233 893.7 472.533C917 466.733 932 452.233 936.4 431.433C938.4 422.033 939.4 426.033 938.7 440.233C937.4 467.633 926.7 483.933 902.5 495.533C864 513.933 811.1 509.433 744.1 482.033C736.6 479.033 737 479.033 737 480.733C737 482.533 765.4 497.133 780.2 502.833C791.3 507.233 813 513.433 817 513.433C819.5 513.433 821.5 517.333 829.5 537.833C845.1 577.833 856.9 619.733 863.5 659.033C867.2 680.633 867.6 679.833 857.1 670.633C842.6 657.833 829.6 650.233 816 646.833C805.6 644.233 788.3 645.333 775.5 649.433C757.2 655.333 737.2 666.533 717.8 681.633L708.2 689.233L707.6 682.133C697.8 562.433 685.1 488.333 658.2 392.633C655.5 383.233 653.5 375.433 653.7 375.433C653.9 375.433 658 378.833 662.8 383.033ZM775 403.133C775 414.033 773.2 441.533 772.4 442.433C771.8 442.933 760.4 437.333 745.2 429.133L733.9 423.133L738.2 419.233C750.9 408.033 771.8 392.433 774.2 392.433C774.6 392.433 775 397.233 775 403.133ZM654.9 413.633C655 415.533 649 417.633 631 421.833C609.4 426.833 599.9 427.933 576.5 427.833C556.6 427.833 553.3 427.633 542 425.133C535.1 423.733 526.8 421.733 523.5 420.733L517.5 418.833L517.2 412.033C516.9 405.933 517.1 405.333 518.7 405.833C523.4 407.233 538.5 410.533 547.5 412.033C554.4 413.233 563.1 413.733 575.5 413.733C596.8 413.633 614.4 411.333 636.8 405.633L651.5 401.833L653.2 406.933C654.1 409.633 654.9 412.733 654.9 413.633ZM823.9 418.633C825.2 425.833 827.6 444.733 828.5 454.633C829.1 462.433 829.4 462.333 819.6 459.933C810.5 457.633 789.1 450.433 788.5 449.433C787.2 447.333 818.5 412.433 821.6 412.433C822.3 412.433 823.3 415.233 823.9 418.633ZM659 428.633C661.5 437.633 661.6 437.433 651 440.633C637.6 444.533 614.5 449.133 601.2 450.533C594.3 451.233 582.6 451.433 571.7 451.133C552.5 450.533 542.7 449.033 525.8 443.833L517 441.133V434.933V428.733L528.7 431.533C549.4 436.633 560.2 437.733 582.5 437.133C596.2 436.833 606.4 435.933 614.9 434.533C627.1 432.433 648.4 427.433 653.1 425.533C657.1 423.933 657.9 424.333 659 428.633ZM667.4 462.633C680.1 518.433 689.2 576.333 695.4 641.433C697.7 665.633 698.5 675.733 700.9 711.933C701.3 718.533 702 724.633 702.3 725.433C702.8 726.533 700.8 728.233 694.7 731.633C690.2 734.333 685.3 737.133 683.9 738.033C681.4 739.633 680.9 739.633 674.4 737.033C670.6 735.533 663.7 733.233 659 732.033L650.5 729.833L641 711.533C629.9 690.333 627.5 686.833 624.2 687.833C621.5 688.733 615.2 700.733 607.9 718.833L603.1 730.733L594.7 733.433C584.2 736.833 572.3 743.133 562.3 750.633C546.6 762.333 521.8 789.433 526.7 789.433C527 789.433 531.4 785.533 536.4 780.633C554.4 763.333 577 748.433 594.8 742.333C599.8 740.633 600.1 740.633 599.6 742.233C596.2 754.133 596.6 755.633 604.2 757.833C619.4 762.233 632.8 762.233 646 757.833C657.5 753.933 658.7 752.333 656 744.633C655 741.833 654.3 739.433 654.5 739.433C656.1 739.433 671 744.733 671.5 745.433C671.8 745.933 670 747.733 667.5 749.533C661.7 753.633 661 756.333 664.2 761.233C672.3 773.333 685.3 783.233 698.9 787.833C709.4 791.233 711.3 790.833 713.6 784.833C715.2 780.533 715.5 780.333 716.7 782.033C720.2 786.733 725.5 799.733 732.8 821.433C742.3 849.533 744.8 855.733 750.6 865.033C755.7 873.333 766.3 883.733 774.4 888.333L780 891.633L776 896.233C770.3 902.633 765.6 910.733 763 918.433C760.4 926.133 759.3 942.733 760.8 951.933C761.3 955.233 761.7 958.033 761.6 958.133C761.4 958.333 750 956.133 736.2 953.333L711.1 948.333L698.8 950.833C676 955.533 663.4 956.733 642 956.133C607 955.133 579.1 948.333 547.5 933.033C491.7 906.033 454.6 862.633 437.8 804.933C430.8 780.733 428.5 761.433 429.3 734.033C430.5 692.533 437.2 670.633 469.1 605.233C490.1 562.133 497.1 545.933 503.3 526.833C510 505.933 516 473.533 516 457.933C516 454.933 516.4 452.333 516.9 451.933C517.5 451.633 523 452.733 529.2 454.333C547.6 459.233 558.6 460.733 578 460.733C602.9 460.733 629.6 456.733 653.1 449.533C658.3 447.933 662.8 446.633 663.1 446.533C663.4 446.533 665.4 453.733 667.4 462.633ZM872.5 531.033C873.3 531.333 872 533.233 868.9 536.133C859.8 544.633 853.8 560.933 856 570.933C858 580.033 860.2 582.633 870 587.833L876.3 591.233L871.1 592.333C868.2 592.933 864 593.433 861.6 593.433H857.4L853.2 579.633C850.9 572.033 846.4 558.633 843.2 549.833L837.3 533.933L841.4 532.633C850.5 529.833 867.1 529.033 872.5 531.033ZM897.7 539.533C903 541.733 910.9 549.133 915.1 555.533C921.6 565.633 924.1 580.433 922.1 595.933C921.4 600.833 920.6 605.233 920.4 605.633C920.1 606.133 917.3 604.133 914.2 601.333C906.2 593.933 899.5 589.933 887.1 585.033C866.9 576.833 865 575.133 865 565.533C865 556.433 870 546.533 877.5 540.833C883.5 536.233 889.3 535.833 897.7 539.533ZM818.4 656.433C832.6 661.333 850.3 673.833 861 686.533L865.2 691.533L858.3 699.133C839.3 720.133 828 735.833 817.5 755.733C814.4 761.633 811.6 766.433 811.4 766.433C811.1 766.433 806.1 761.733 800.2 756.033C776 732.433 757.3 719.033 728.3 704.333L713.1 696.633L715.8 694.233C720 690.333 733.8 680.133 741.7 675.133C757.1 665.333 776.9 656.833 790.1 654.533C798.1 653.033 811.5 653.933 818.4 656.433ZM262.5 673.633C260.9 678.833 251.9 696.433 247.2 703.533C238 717.233 219.7 732.633 202.3 741.333C198.9 743.033 195.9 744.433 195.6 744.433C194.1 744.433 171 705.333 171 702.833C171 702.133 174.4 701.533 179.8 701.133C190.2 700.333 207.6 696.133 221.5 690.933C231 687.333 258.4 674.333 260.5 672.333C262.1 670.733 263.2 671.333 262.5 673.633ZM157 692.933C166.2 714.533 178.4 735.933 191.2 752.833C197.8 761.633 197.9 761.933 195.7 762.833C183.8 767.633 181.6 769.033 176 775.133C169.2 782.633 169.9 783.133 164.7 767.433C160 753.233 156.2 735.933 154 718.433C152.2 703.833 150.5 679.633 151.4 680.433C151.6 680.733 154.1 686.333 157 692.933ZM634 716.433C639.9 728.333 648.4 747.433 647.8 747.933C647.6 748.033 645.3 748.933 642.5 749.833C635.5 752.233 622 752.933 614 751.233C607.5 749.833 607.5 749.733 607.8 746.533C608.1 742.433 615.6 721.533 621 709.933C625.9 699.333 625.1 698.933 634 716.433ZM867.1 723.033C844.6 750.033 831.7 769.933 820.1 795.733C817.7 801.133 815.4 805.333 815 805.233C814.6 805.033 809.5 799.733 803.7 793.333C783.6 771.233 763.3 753.733 739.3 737.833C725.7 728.833 725.1 728.233 725.6 725.533C726.3 722.133 724.6 718.433 722.2 718.433C721.3 718.433 718.6 719.133 716.2 720.133C713.3 721.233 711.6 721.433 710.9 720.733C710.3 720.133 709.6 716.233 709.3 712.033L708.7 704.433L717.1 708.233C746.4 721.733 770 738.433 796.2 764.233C807.8 775.733 811.3 778.533 813.2 778.233C815 778.033 816.9 775.233 822.9 763.933C834.8 741.233 846.5 724.533 861.7 708.333L868.5 701.133L869.1 710.533C869.7 719.633 869.7 720.033 867.1 723.033ZM145 716.933C145.6 722.433 147.5 733.633 149.1 741.833C150.7 750.033 151.8 756.933 151.5 757.333C150.5 758.333 130.8 757.433 120.2 755.833C98.7 752.733 81.5 745.733 66 734.033C57.3 727.433 42.2 712.733 45.2 713.733C50 715.433 73.9 716.633 91.3 716.133C111.6 715.533 122.7 713.833 136.5 709.133C140.4 707.733 143.6 706.733 143.7 706.833C143.7 706.833 144.3 711.433 145 716.933ZM943.8 733.233C945.5 737.533 947.8 744.233 948.9 748.133C951.1 756.333 951.3 756.133 942.1 757.033C937.3 757.533 928 756.133 928 754.933C928 754.733 929.1 750.933 930.5 746.433C933.7 736.633 938.6 725.433 939.8 725.433C940.3 725.433 942.1 728.933 943.8 733.233ZM715.5 736.133C714.6 743.533 709.5 768.333 707.5 775.133C706.4 778.733 705.4 780.433 704.3 780.433C703.4 780.433 698.9 778.633 694.3 776.433C688 773.333 684.3 770.633 679 765.333C675.2 761.433 672 757.833 672 757.333C672 755.333 712 730.533 715.4 730.433C715.8 730.433 715.9 733.033 715.5 736.133ZM972.7 748.833L973.3 759.733L967.1 759.233C960.2 758.733 958.4 757.533 957.5 752.433C956.8 748.633 959.2 744.233 966.7 735.533L970.4 731.133L971.2 734.533C971.7 736.433 972.3 742.833 972.7 748.833ZM870 735.633C870 743.033 867.4 767.833 865.5 778.933C858.1 822.433 840.9 860.333 817.4 885.233L809.5 893.633L800.1 890.533C785.2 885.633 775.6 880.033 766.9 871.433C756.8 861.333 752.1 851.933 741.9 821.233C733.1 795.033 728.5 783.933 722.2 774.833L718.2 768.933L720.7 756.433C722 749.533 723.4 742.633 723.8 741.033L724.5 738.233L737.2 746.733C759.9 761.933 785.4 784.733 805.4 807.933C809.7 812.833 813.8 817.333 814.6 817.733C816.7 818.933 820 817.533 821 815.133C833.3 785.633 846.8 761.933 862.4 742.233C868.4 734.533 870 733.233 870 735.633ZM919.1 751.533C921.3 756.833 923 761.633 923 762.233C923 763.833 912.3 765.733 907.3 764.933L902.8 764.233L903.4 759.433C904 754.733 907.5 743.633 910 738.133L911.3 735.433L913.3 738.633C914.4 740.433 917 746.233 919.1 751.533ZM959 763.933C961.3 764.733 964.8 765.433 966.7 765.433C969.9 765.433 970.3 765.833 972.6 770.833C976.8 780.133 978.2 789.333 977.7 803.933C976.9 826.233 970.3 844.333 958.9 855.733C951.4 863.133 945.7 865.733 936.6 865.833L929.6 865.933L928.3 857.633C926.8 848.133 925.7 845.433 923.1 845.433C921.3 845.433 915.2 851.433 909.9 858.233C907.1 861.833 904.6 861.833 903.4 858.133C903 856.933 900.8 851.833 898.5 846.833C892.6 834.233 890.2 833.633 884.8 843.533C883 846.833 880.9 849.433 880 849.433C877.8 849.333 856 844.733 855.5 844.233C855.2 844.033 856.9 839.333 859.1 833.833C864.1 821.533 869.2 805.033 871.8 792.133C872.9 786.633 874 782.133 874.2 782.033C874.4 781.933 876.6 781.933 879.2 782.233L884 782.633L883.2 786.833C882.3 792.233 882.3 817.033 883.3 818.033C884.6 819.333 884.9 818.033 886 808.333C887.4 794.733 889.8 785.533 893.9 777.233C897.2 770.633 897.7 769.933 900 770.433C901.4 770.733 906.6 770.933 911.5 770.933C918.6 770.933 921.5 770.433 925.3 768.733C927.9 767.533 930 765.933 930 765.133C930 764.033 931.4 763.833 936.8 764.133C940.5 764.433 945.1 764.233 947 763.633C952 762.133 954.2 762.233 959 763.933ZM216.8 781.633C217 782.133 216.3 782.433 215.3 782.433C214.3 782.433 210.3 783.933 206.5 785.833C198.6 789.533 191.3 796.633 187.8 803.833C186.6 806.333 185.3 808.433 184.9 808.433C184.5 808.433 182 804.733 179.4 800.333L174.7 792.233L176.5 788.733C181.5 779.433 188.9 773.733 199.3 771.033L204.5 769.633L210.5 775.333C213.8 778.433 216.7 781.233 216.8 781.633ZM234 794.133L241 798.833L235.8 801.633C223.3 808.433 213.1 819.333 208.3 830.933C207.3 833.433 206.2 835.333 205.9 835.133C204.3 834.533 192.9 820.633 192.4 818.633C191.5 815.333 195.5 806.233 200.2 800.933C204.5 796.033 209.8 792.833 217 790.833C224.5 788.733 226.4 789.133 234 794.133ZM258.4 807.433C290.4 821.733 339 828.933 387.2 826.433C402.3 825.633 427.3 823.333 433.3 822.133C433.8 822.033 435.6 825.533 437.4 829.933C456.9 877.433 492 914.833 540 939.133L550.5 944.433H531.5C500 944.433 460.9 941.633 430.5 937.333C342.8 924.933 271 894.533 217.6 847.233L212.8 842.933L215.3 836.733C218.5 828.733 225 819.633 230.3 815.333C234.5 811.933 248.5 804.433 250.6 804.433C251.3 804.433 254.8 805.733 258.4 807.433ZM894.8 856.233C896.5 860.533 898.8 867.233 899.9 871.133C902.1 879.333 902.3 879.133 893.1 880.033C888.3 880.533 879 879.133 879 877.933C879 877.733 880.1 873.933 881.5 869.433C884.7 859.633 889.6 848.433 890.8 848.433C891.3 848.433 893.1 851.933 894.8 856.233ZM856.7 853.733C856.8 853.933 855.5 857.833 853.6 862.533C851.8 867.133 849.9 872.533 849.5 874.433C849.1 876.333 847.1 880.633 845 883.933C842.9 887.233 840.3 891.633 839.3 893.833L837.5 897.633L831 897.033C827.4 896.633 823.5 896.033 822.2 895.733C819.9 895.233 819.9 895.133 823.7 891.033C832.4 881.933 844.3 865.233 848.6 856.133C850.3 852.633 850.7 852.333 853.4 852.833C855 853.233 856.5 853.633 856.7 853.733ZM923.7 871.833L924.3 882.733L918.1 882.233C911.2 881.733 909.4 880.533 908.5 875.433C907.8 871.633 910.2 867.233 917.7 858.533L921.4 854.133L922.2 857.533C922.7 859.433 923.3 865.833 923.7 871.833ZM874.8 857.033C877.6 857.633 877.8 857.833 876.8 860.533C875.4 864.533 872.8 864.233 870.7 859.933C868.9 856.133 869.1 855.933 874.8 857.033ZM870.1 874.533C872.3 879.833 874 884.633 874 885.233C874 886.833 863.3 888.733 858.3 887.933L853.8 887.233L854.4 882.433C855 877.733 858.5 866.633 861 861.133L862.3 858.433L864.3 861.633C865.4 863.433 868 869.233 870.1 874.533ZM910 886.933C912.3 887.733 915.8 888.433 917.7 888.433C920.9 888.433 921.3 888.833 923.6 893.833C927.8 903.133 929.2 912.333 928.7 926.933C927.9 949.233 921.3 967.333 909.9 978.733C901.3 987.333 897 988.933 883.5 988.833C870.2 988.733 860.3 986.033 843.5 978.033C835.6 974.233 829.8 972.233 823.2 970.933C816.9 969.733 813.6 968.633 813 967.533C812.5 966.633 811.7 961.333 811 955.833C809 937.333 812.6 923.733 823 910.633C826.9 905.733 827.6 905.333 830.9 905.633C834.5 905.933 834.5 905.933 834 909.933C833.2 916.133 833.4 940.133 834.3 941.033C835.6 942.333 835.9 941.033 837 931.333C838.4 917.733 840.8 908.533 844.9 900.233C848.2 893.633 848.7 892.933 851 893.433C852.4 893.733 857.6 893.933 862.5 893.933C869.6 893.933 872.5 893.433 876.3 891.733C878.9 890.533 881 888.933 881 888.133C881 887.033 882.4 886.833 887.8 887.133C891.5 887.433 896.1 887.233 898 886.633C903 885.133 905.2 885.233 910 886.933ZM794.2 897.533L797.8 898.733L793.3 904.833C790.8 908.133 788 912.533 787 914.433C781.7 924.933 779.5 938.533 780.9 952.433C781.5 957.633 781.8 962.033 781.6 962.133C781.4 962.333 779 961.933 776.2 961.333C770.3 960.133 770.3 960.133 769.1 947.833C768.4 939.333 768.9 929.333 770.5 922.933C772.6 914.333 786.4 894.533 789.4 895.833C790 896.133 792.099 896.832 794.199 897.532L794.2 897.533ZM813.8 902.933C815.5 903.333 817 903.833 817 904.133C817 904.433 815.7 906.333 814.1 908.333C810.7 912.733 806.9 920.033 804.4 927.433C802.9 931.733 802.5 935.833 802.5 946.433C802.5 953.833 802.8 961.433 803.2 963.133C804.1 966.933 803.8 967.033 796.1 965.333C791.118 964.336 791.1 964.233 790.309 959.682C790.306 959.666 790.303 959.649 790.3 959.633C789.9 957.033 789.5 949.733 789.5 943.433C789.5 934.133 790 930.633 791.8 925.233C795.3 915.233 805.7 900.933 808.9 901.833C809.8 902.133 812 902.533 813.8 902.933Z" fill="black"/>
<path d="M317.5 368.533C359.1 372.133 409.7 385.833 458.5 406.633C473.8 413.133 505.8 428.833 507.7 430.733C508.6 431.633 508.6 436.333 507.9 449.833C505.9 489.733 498.7 520.233 483.3 555.233C478.6 566.033 464.5 595.333 463.6 596.133C463.2 596.533 263.9 480.633 262.3 479.033C261.5 478.233 261.4 472.833 261.9 458.433C262.7 438.133 262.2 434.333 258.8 433.633C257.8 433.433 248.3 437.833 237.7 443.333L218.3 453.433L179.4 430.333C158 417.633 140.3 407.033 140.1 406.833C139.5 406.233 160.7 396.433 175 390.633C225.5 370.233 265.7 364.033 317.5 368.533Z" fill="#5C658D"/>
<path d="M667.4 462.633C680.1 518.433 689.2 576.333 695.4 641.433C697.7 665.633 698.5 675.733 700.9 711.933C701.3 718.533 702 724.633 702.3 725.433C702.8 726.533 700.8 728.233 694.7 731.633C690.2 734.333 685.3 737.133 683.9 738.033C681.4 739.633 680.9 739.633 674.4 737.033C670.6 735.533 663.7 733.233 659 732.033L650.5 729.833L641 711.533C629.9 690.333 627.5 686.833 624.2 687.833C621.5 688.733 615.2 700.733 607.9 718.833L603.1 730.733L594.7 733.433C584.2 736.833 572.3 743.133 562.3 750.633C546.6 762.333 521.8 789.433 526.7 789.433C527 789.433 531.4 785.533 536.4 780.633C554.4 763.333 577 748.433 594.8 742.333C599.8 740.633 600.1 740.633 599.6 742.233C596.2 754.133 596.6 755.633 604.2 757.833C619.4 762.233 632.8 762.233 646 757.833C657.5 753.933 658.7 752.333 656 744.633C655 741.833 654.3 739.433 654.5 739.433C656.1 739.433 671 744.733 671.5 745.433C671.8 745.933 670 747.733 667.5 749.533C661.7 753.633 661 756.333 664.2 761.233C672.3 773.333 685.3 783.233 698.9 787.833C709.4 791.233 711.3 790.833 713.6 784.833C715.2 780.533 715.5 780.333 716.7 782.033C720.2 786.733 725.5 799.733 732.8 821.433C742.3 849.533 744.8 855.733 750.6 865.033C755.7 873.333 766.3 883.733 774.4 888.333L780 891.633L776 896.233C770.3 902.633 765.6 910.733 763 918.433C760.4 926.133 759.3 942.733 760.8 951.933C761.3 955.233 761.7 958.033 761.6 958.133C761.4 958.333 750 956.133 736.2 953.333L711.1 948.333L698.8 950.833C676 955.533 663.4 956.733 642 956.133C607 955.133 579.1 948.333 547.5 933.033C491.7 906.033 454.6 862.633 437.8 804.933C430.8 780.733 428.5 761.433 429.3 734.033C430.5 692.533 437.2 670.633 469.1 605.233C490.1 562.133 497.1 545.933 503.3 526.833C510 505.933 516 473.533 516 457.933C516 454.933 516.4 452.333 516.9 451.933C517.5 451.633 523 452.733 529.2 454.333C547.6 459.233 558.6 460.733 578 460.733C602.9 460.733 629.6 456.733 653.1 449.533C658.3 447.933 662.8 446.633 663.1 446.533C663.4 446.533 665.4 453.733 667.4 462.633Z" fill="#5C658D"/>
<path d="M258.4 807.433C290.4 821.733 339 828.933 387.2 826.433C402.3 825.633 427.3 823.333 433.3 822.133C433.8 822.033 435.6 825.533 437.4 829.933C456.9 877.433 492 914.833 540 939.133L550.5 944.433H531.5C500 944.433 460.9 941.633 430.5 937.333C342.8 924.933 271 894.533 217.6 847.233L212.8 842.933L215.3 836.733C218.5 828.733 225 819.633 230.3 815.333C234.5 811.933 248.5 804.433 250.6 804.433C251.3 804.433 254.8 805.733 258.4 807.433Z" fill="#5C658D"/>
<path d="M234 794.133L241 798.833L235.8 801.633C223.3 808.433 213.1 819.333 208.3 830.933C207.3 833.433 206.2 835.333 205.9 835.133C204.3 834.533 192.9 820.633 192.4 818.633C191.5 815.333 195.5 806.233 200.2 800.933C204.5 796.033 209.8 792.833 217 790.833C224.5 788.733 226.4 789.133 234 794.133Z" fill="#5C658D"/>
<path d="M157 692.933C166.2 714.533 178.4 735.933 191.2 752.833C197.8 761.633 197.9 761.933 195.7 762.833C183.8 767.633 181.6 769.033 176 775.133C169.2 782.633 169.9 783.133 164.7 767.433C160 753.233 156.2 735.933 154 718.433C152.2 703.833 150.5 679.633 151.4 680.433C151.6 680.733 154.1 686.333 157 692.933Z" fill="#5C658D"/>
<path d="M216.8 781.633C217 782.133 216.3 782.433 215.3 782.433C214.3 782.433 210.3 783.933 206.5 785.833C198.6 789.533 191.3 796.633 187.8 803.833C186.6 806.333 185.3 808.433 184.9 808.433C184.5 808.433 182 804.733 179.4 800.333L174.7 792.233L176.5 788.733C181.5 779.433 188.9 773.733 199.3 771.033L204.5 769.633L210.5 775.333C213.8 778.433 216.7 781.233 216.8 781.633Z" fill="#5C658D"/>
<path d="M145 716.933C145.6 722.433 147.5 733.633 149.1 741.833C150.7 750.033 151.8 756.933 151.5 757.333C150.5 758.333 130.8 757.433 120.2 755.833C98.7 752.733 81.5 745.733 66 734.033C57.3 727.433 42.2 712.733 45.2 713.733C50 715.433 73.9 716.633 91.3 716.133C111.6 715.533 122.7 713.833 136.5 709.133C140.4 707.733 143.6 706.733 143.7 706.833C143.7 706.833 144.3 711.433 145 716.933Z" fill="#5C658D"/>
<path d="M262.5 673.633C260.9 678.833 251.9 696.433 247.2 703.533C238 717.233 219.7 732.633 202.3 741.333C198.9 743.033 195.9 744.433 195.6 744.433C194.1 744.433 171 705.333 171 702.833C171 702.133 174.4 701.533 179.8 701.133C190.2 700.333 207.6 696.133 221.5 690.933C231 687.333 258.4 674.333 260.5 672.333C262.1 670.733 263.2 671.333 262.5 673.633Z" fill="#5C658D"/>
<path d="M794.2 897.533L797.8 898.733L793.3 904.833C790.8 908.133 788 912.533 787 914.433C781.7 924.933 779.5 938.533 780.9 952.433C781.5 957.633 781.8 962.033 781.6 962.133C781.4 962.333 779 961.933 776.2 961.333C770.3 960.133 770.3 960.133 769.1 947.833C768.4 939.333 768.9 929.333 770.5 922.933C772.6 914.333 786.4 894.533 789.4 895.833C790 896.133 792.099 896.832 794.199 897.532L794.2 897.533Z" fill="#5C658D"/>
<path d="M813.8 902.933C815.5 903.333 817 903.833 817 904.133C817 904.433 815.7 906.333 814.1 908.333C810.7 912.733 806.9 920.033 804.4 927.433C802.9 931.733 802.5 935.833 802.5 946.433C802.5 953.833 802.8 961.433 803.2 963.133C804.1 966.933 803.8 967.033 796.1 965.333C791.118 964.336 791.1 964.233 790.309 959.682L790.3 959.633C789.9 957.033 789.5 949.733 789.5 943.433C789.5 934.133 790 930.633 791.8 925.233C795.3 915.233 805.7 900.933 808.9 901.833C809.8 902.133 812 902.533 813.8 902.933Z" fill="#5C658D"/>
<path d="M910 886.933C912.3 887.733 915.8 888.433 917.7 888.433C920.9 888.433 921.3 888.833 923.6 893.833C927.8 903.133 929.2 912.333 928.7 926.933C927.9 949.233 921.3 967.333 909.9 978.733C901.3 987.333 897 988.933 883.5 988.833C870.2 988.733 860.3 986.033 843.5 978.033C835.6 974.233 829.8 972.233 823.2 970.933C816.9 969.733 813.6 968.633 813 967.533C812.5 966.633 811.7 961.333 811 955.833C809 937.333 812.6 923.733 823 910.633C826.9 905.733 827.6 905.333 830.9 905.633C834.5 905.933 834.5 905.933 834 909.933C833.2 916.133 833.4 940.133 834.3 941.033C835.6 942.333 835.9 941.033 837 931.333C838.4 917.733 840.8 908.533 844.9 900.233C848.2 893.633 848.7 892.933 851 893.433C852.4 893.733 857.6 893.933 862.5 893.933C869.6 893.933 872.5 893.433 876.3 891.733C878.9 890.533 881 888.933 881 888.133C881 887.033 882.4 886.833 887.8 887.133C891.5 887.433 896.1 887.233 898 886.633C903 885.133 905.2 885.233 910 886.933Z" fill="#5C658D"/>
<path d="M870.1 874.533C872.3 879.833 874 884.633 874 885.233C874 886.833 863.3 888.733 858.3 887.933L853.8 887.233L854.4 882.433C855 877.733 858.5 866.633 861 861.133L862.3 858.433L864.3 861.633C865.4 863.433 868 869.233 870.1 874.533Z" fill="white"/>
<path d="M894.8 856.233C896.5 860.533 898.8 867.233 899.9 871.133C902.1 879.333 902.3 879.133 893.1 880.033C888.3 880.533 879 879.133 879 877.933C879 877.733 880.1 873.933 881.5 869.433C884.7 859.633 889.6 848.433 890.8 848.433C891.3 848.433 893.1 851.933 894.8 856.233Z" fill="white"/>
<path d="M923.7 871.833L924.3 882.733L918.1 882.233C911.2 881.733 909.4 880.533 908.5 875.433C907.8 871.633 910.2 867.233 917.7 858.533L921.4 854.133L922.2 857.533C922.7 859.433 923.3 865.833 923.7 871.833Z" fill="white"/>
<path d="M870 735.633C870 743.033 867.4 767.833 865.5 778.933C858.1 822.433 840.9 860.333 817.4 885.233L809.5 893.633L800.1 890.533C785.2 885.633 775.6 880.033 766.9 871.433C756.8 861.333 752.1 851.933 741.9 821.233C733.1 795.033 728.5 783.933 722.2 774.833L718.2 768.933L720.7 756.433C722 749.533 723.4 742.633 723.8 741.033L724.5 738.233L737.2 746.733C759.9 761.933 785.4 784.733 805.4 807.933C809.7 812.833 813.8 817.333 814.6 817.733C816.7 818.933 820 817.533 821 815.133C833.3 785.633 846.8 761.933 862.4 742.233C868.4 734.533 870 733.233 870 735.633Z" fill="#5C658D"/>
<path d="M867.1 723.033C844.6 750.033 831.7 769.933 820.1 795.733C817.7 801.133 815.4 805.333 815 805.233C814.6 805.033 809.5 799.733 803.7 793.333C783.6 771.233 763.3 753.733 739.3 737.833C725.7 728.833 725.1 728.233 725.6 725.533C726.3 722.133 724.6 718.433 722.2 718.433C721.3 718.433 718.6 719.133 716.2 720.133C713.3 721.233 711.6 721.433 710.9 720.733C710.3 720.133 709.6 716.233 709.3 712.033L708.7 704.433L717.1 708.233C746.4 721.733 770 738.433 796.2 764.233C807.8 775.733 811.3 778.533 813.2 778.233C815 778.033 816.9 775.233 822.9 763.933C834.8 741.233 846.5 724.533 861.7 708.333L868.5 701.133L869.1 710.533C869.7 719.633 869.7 720.033 867.1 723.033Z" fill="#5C658D"/>
<path d="M818.4 656.433C832.6 661.333 850.3 673.833 861 686.533L865.2 691.533L858.3 699.133C839.3 720.133 828 735.833 817.5 755.733C814.4 761.633 811.6 766.433 811.4 766.433C811.1 766.433 806.1 761.733 800.2 756.033C776 732.433 757.3 719.033 728.3 704.333L713.1 696.633L715.8 694.233C720 690.333 733.8 680.133 741.7 675.133C757.1 665.333 776.9 656.833 790.1 654.533C798.1 653.033 811.5 653.933 818.4 656.433Z" fill="#FFD84C"/>
<path d="M662.8 383.033C682.1 399.833 711.7 420.833 735 434.133C773.3 456.133 812.6 470.233 847.3 474.533C860.7 476.133 883.1 475.233 893.7 472.533C917 466.733 932 452.233 936.4 431.433C938.4 422.033 939.4 426.033 938.7 440.233C937.4 467.633 926.7 483.933 902.5 495.533C864 513.933 811.1 509.433 744.1 482.033C736.6 479.033 737 479.033 737 480.733C737 482.533 765.4 497.133 780.2 502.833C791.3 507.233 813 513.433 817 513.433C819.5 513.433 821.5 517.333 829.5 537.833C845.1 577.833 856.9 619.733 863.5 659.033C867.2 680.633 867.6 679.833 857.1 670.633C842.6 657.833 829.6 650.233 816 646.833C805.6 644.233 788.3 645.333 775.5 649.433C757.2 655.333 737.2 666.533 717.8 681.633L708.2 689.233L707.6 682.133C697.8 562.433 685.1 488.333 658.2 392.633C655.5 383.233 653.5 375.433 653.7 375.433C653.9 375.433 658 378.833 662.8 383.033Z" fill="#D65C3B"/>
<path d="M715.5 736.133C714.6 743.533 709.5 768.333 707.5 775.133C706.4 778.733 705.4 780.433 704.3 780.433C703.4 780.433 698.9 778.633 694.3 776.433C688 773.333 684.3 770.633 679 765.333C675.2 761.433 672 757.833 672 757.333C672 755.333 712 730.533 715.4 730.433C715.8 730.433 715.9 733.033 715.5 736.133Z" fill="white"/>
<path d="M634 716.433C639.9 728.333 648.4 747.433 647.8 747.933C647.6 748.033 645.3 748.933 642.5 749.833C635.5 752.233 622 752.933 614 751.233C607.5 749.833 607.5 749.733 607.8 746.533C608.1 742.433 615.6 721.533 621 709.933C625.9 699.333 625.1 698.933 634 716.433Z" fill="white"/>
<path d="M959 763.933C961.3 764.733 964.8 765.433 966.7 765.433C969.9 765.433 970.3 765.833 972.6 770.833C976.8 780.133 978.2 789.333 977.7 803.933C976.9 826.233 970.3 844.333 958.9 855.733C951.4 863.133 945.7 865.733 936.6 865.833L929.6 865.933L928.3 857.633C926.8 848.133 925.7 845.433 923.1 845.433C921.3 845.433 915.2 851.433 909.9 858.233C907.1 861.833 904.6 861.833 903.4 858.133C903 856.933 900.8 851.833 898.5 846.833C892.6 834.233 890.2 833.633 884.8 843.533C883 846.833 880.9 849.433 880 849.433C877.8 849.333 856 844.733 855.5 844.233C855.2 844.033 856.9 839.333 859.1 833.833C864.1 821.533 869.2 805.033 871.8 792.133C872.9 786.633 874 782.133 874.2 782.033C874.4 781.933 876.6 781.933 879.2 782.233L884 782.633L883.2 786.833C882.3 792.233 882.3 817.033 883.3 818.033C884.6 819.333 884.9 818.033 886 808.333C887.4 794.733 889.8 785.533 893.9 777.233C897.2 770.633 897.7 769.933 900 770.433C901.4 770.733 906.6 770.933 911.5 770.933C918.6 770.933 921.5 770.433 925.3 768.733C927.9 767.533 930 765.933 930 765.133C930 764.033 931.4 763.833 936.8 764.133C940.5 764.433 945.1 764.233 947 763.633C952 762.133 954.2 762.233 959 763.933Z" fill="#3D4156"/>
<path d="M919.1 751.533C921.3 756.833 923 761.633 923 762.233C923 763.833 912.3 765.733 907.3 764.933L902.8 764.233L903.4 759.433C904 754.733 907.5 743.633 910 738.133L911.3 735.433L913.3 738.633C914.4 740.433 917 746.233 919.1 751.533Z" fill="#7F7F7F"/>
<path d="M943.8 733.233C945.5 737.533 947.8 744.233 948.9 748.133C951.1 756.333 951.3 756.133 942.1 757.033C937.3 757.533 928 756.133 928 754.933C928 754.733 929.1 750.933 930.5 746.433C933.7 736.633 938.6 725.433 939.8 725.433C940.3 725.433 942.1 728.933 943.8 733.233Z" fill="#7F7F7F"/>
<path d="M972.7 748.833L973.3 759.733L967.1 759.233C960.2 758.733 958.4 757.533 957.5 752.433C956.8 748.633 959.2 744.233 966.7 735.533L970.4 731.133L971.2 734.533C971.7 736.433 972.3 742.833 972.7 748.833Z" fill="#7F7F7F"/>
<path d="M897.7 539.533C903 541.733 910.9 549.133 915.1 555.533C921.6 565.633 924.1 580.433 922.1 595.933C921.4 600.833 920.6 605.233 920.4 605.633C920.1 606.133 917.3 604.133 914.2 601.333C906.2 593.933 899.5 589.933 887.1 585.033C866.9 576.833 865 575.133 865 565.533C865 556.433 870 546.533 877.5 540.833C883.5 536.233 889.3 535.833 897.7 539.533Z" fill="#7F7F7F"/>
<path d="M872.5 531.033C873.3 531.333 872 533.233 868.9 536.133C859.8 544.633 853.8 560.933 856 570.933C858 580.033 860.2 582.633 870 587.833L876.3 591.233L871.1 592.333C868.2 592.933 864 593.433 861.6 593.433H857.4L853.2 579.633C850.9 572.033 846.4 558.633 843.2 549.833L837.3 533.933L841.4 532.633C850.5 529.833 867.1 529.033 872.5 531.033Z" fill="#3D4156"/>
<path d="M823.9 418.633C825.2 425.833 827.6 444.733 828.5 454.633C829.1 462.433 829.4 462.333 819.6 459.933C810.5 457.633 789.1 450.433 788.5 449.433C787.2 447.333 818.5 412.433 821.6 412.433C822.3 412.433 823.3 415.233 823.9 418.633Z" fill="white"/>
<path d="M775 403.133C775 414.033 773.2 441.533 772.4 442.433C771.8 442.933 760.4 437.333 745.2 429.133L733.9 423.133L738.2 419.233C750.9 408.033 771.8 392.433 774.2 392.433C774.6 392.433 775 397.233 775 403.133Z" fill="white"/>
<path d="M726.4 375.133C725.6 383.933 721.9 410.633 721.1 412.733C720.5 414.433 719.5 414.033 711.9 408.833C697.3 398.933 688.9 392.433 689.4 391.533C691.2 388.733 722.8 369.433 725.7 369.433C726.5 369.433 726.7 371.133 726.4 375.133Z" fill="white"/>
<path d="M789.5 334.333C802 346.833 821.3 361.433 825.2 361.433C829.1 361.433 830.1 358.833 831.3 345.733C831.9 339.533 832.7 334.433 833.1 334.433C834.6 334.433 850.3 345.533 859.7 353.033C883.5 372.333 898.9 393.433 907.9 418.833C911.3 428.433 916 446.133 916 449.233C916 453.833 903.5 460.833 889.5 464.033C883.2 465.533 877.9 465.933 864.5 465.833C855.2 465.733 845.5 465.333 843 464.833L838.5 463.833L837.3 450.433C836 435.133 834.7 426.233 831.9 411.933C829.8 401.833 828.1 398.433 825 398.433C821.3 398.433 796.5 422.133 787.1 434.733C784.7 437.933 782.6 440.333 782.4 440.233C782.3 440.033 782.5 435.433 783 429.933C784.4 415.133 784.2 386.033 782.8 382.933C781.7 380.533 780.4 379.933 777 380.433C772.8 380.933 747.8 398.233 737.4 407.733C734.4 410.433 731.7 412.433 731.4 412.133C731.1 411.833 731.5 407.133 732.4 401.733C735.9 379.733 737 360.833 734.8 358.633C734.1 357.933 732.5 357.433 731.1 357.433C726.1 357.433 697.7 373.233 685.9 382.533C683.9 384.133 681.7 385.433 681 385.433C679.9 385.433 669.4 376.833 658.1 366.733L653.6 362.733L663.1 360.433C674.8 357.633 711.9 347.133 718 344.933L722.5 343.333L727.5 349.133C740.6 364.433 759.8 382.333 764.7 383.833C768.4 385.033 770.6 381.633 772.4 371.833C774 363.133 776.4 344.533 777.6 331.133C777.9 327.433 778.5 324.433 778.8 324.433C779.2 324.433 784 328.933 789.5 334.333Z" fill="#DF9492"/>
<path d="M848.5 299.033C851.5 301.033 853.7 303.033 853.5 303.433C853.2 303.933 850.1 305.933 846.5 307.933C840.9 311.033 840 311.933 840 314.433C840 321.733 863.1 342.433 871.4 342.433C872.9 342.433 874 343.033 874 343.733C874 344.433 876.2 348.433 879 352.633C884.4 360.933 891.7 368.033 898.9 372.133C901.4 373.633 903.6 374.833 903.7 374.933C903.9 375.033 904.9 378.533 905.9 382.633C908.1 391.233 911.6 398.733 916.7 405.633C920.7 411.133 923.1 412.233 926.5 410.033L929 408.433V414.133C929 421.633 927.3 431.733 925.4 436.333L923.8 439.933L921.8 432.433C916.7 412.933 910.1 397.833 900.5 383.333C888.5 365.233 866.4 344.533 843.3 329.733L833 323.133V311.333V299.433L836.8 297.533C841.8 294.833 842.2 294.933 848.5 299.033Z" fill="#66494C"/>
<path d="M767.7 337.433C766.9 348.033 764.1 368.433 763.1 370.233C762.6 371.133 759.2 368.533 752.4 362.133C742.3 352.433 733.2 342.033 733.9 340.633C734.4 339.833 764.7 328.633 766.9 328.533C768 328.433 768.2 330.033 767.7 337.433Z" fill="white"/>
<path d="M823.1 329.833C822.4 340.233 821.8 348.933 821.7 349.033C821 349.733 801.7 333.833 795.3 327.333L788.1 319.933L805.3 312.333L822.5 304.733L823.3 307.733C823.8 309.433 823.7 319.233 823.1 329.833Z" fill="white"/>
<path d="M876.5 308.133C874.9 315.733 871 329.433 869.9 331.633C869 333.233 868.7 333.233 865.6 331.333C861.1 328.733 853.6 322.033 851 318.433L849 315.633L854.5 312.433C859.5 309.533 875.5 302.533 877.1 302.433C877.5 302.433 877.2 305.033 876.5 308.133Z" fill="white"/>
<path d="M906.6 333.133C905.2 342.833 901.7 360.933 901.1 361.733C900.1 362.733 888.9 351.533 886.5 347.133C884.9 344.133 884.8 343.333 886 341.933C887.7 339.933 904.8 328.433 906.2 328.433C906.9 328.433 907 330.133 906.6 333.133Z" fill="white"/>
<path d="M914 365.633C914 366.033 913.1 366.833 912 367.433C909.8 368.633 909.5 367.833 910.7 363.533C911.3 361.233 911.4 361.233 912.7 362.933C913.4 364.033 914 365.133 914 365.633Z" fill="#66494C"/>
<path d="M883.8 327.733L886 330.033L881.8 333.233C879.5 334.933 877.5 336.333 877.4 336.133C876.9 335.633 880.3 325.433 881 325.433C881.4 325.433 882.6 326.433 883.8 327.733Z" fill="#66494C"/>
<path d="M816.8 57.1327C843.6 67.3327 866 76.2327 866.6 76.8327C867.4 77.6327 866 88.9327 861.9 116.833C855.8 157.733 855.8 159.433 860.4 159.433C861.7 159.433 877.9 150.633 896.4 139.933L930.2 120.333L935.8 125.133C970.6 154.633 983.7 165.833 984.7 167.233C986.6 169.933 987.4 200.533 986.1 222.433C984.9 242.133 982.6 265.133 981.7 266.033C981.5 266.333 977.2 265.833 972.4 265.033C941.1 259.733 909.1 260.433 886.4 267.033C872.8 270.933 861.8 275.533 834 289.233C809.2 301.333 790.8 309.733 778.5 314.333C775.2 315.633 771.2 317.233 769.5 317.933C749 326.733 693.9 344.033 658.4 352.833C641.8 356.933 641.2 357.133 640.5 359.333C640.2 360.233 642 367.833 644.5 376.233C647 384.533 649 391.733 649 392.233C649 393.333 623.2 399.733 610 402.033C595.6 404.433 563 405.033 550.1 403.033C538.6 401.233 517.9 396.633 516.7 395.533C516.3 395.133 515.1 386.733 513.9 376.933C512.2 361.433 508 335.333 506.4 330.233C506.1 329.133 508.2 327.033 514.2 322.833C566.8 285.733 608.8 226.433 620.2 173.033C623.1 159.233 623.3 135.133 620.6 124.933C618.2 115.933 614.9 108.533 610.9 102.933C609.1 100.433 607.9 98.2327 608.1 98.0327C609.8 96.6327 633.1 84.2327 644.1 79.0327C682.5 60.7327 717.6 48.4327 751.5 41.4327C759.2 39.8327 766.1 38.5327 766.8 38.5327C767.6 38.4327 790.1 46.8327 816.8 57.1327Z" fill="#5C658D"/>
<path d="M570.2 85.9327C590.9 90.2327 605.6 104.633 611.6 126.433C614.3 135.933 614 158.533 611.2 171.733C608.2 185.333 603.8 198.033 597.5 211.133L592.1 222.433H588.2C586 222.433 580.6 221.733 576.3 220.933C543.2 214.633 515.3 193.833 500.5 164.433C492.2 147.833 488.6 132.033 489.2 113.433L489.5 102.933L498 98.6327C508.1 93.6327 525 87.9327 535.8 86.0327C546 84.1327 561.8 84.1327 570.2 85.9327Z" fill="#5C658D"/>
<path d="M482 136.233C483.7 145.833 488.4 159.833 493 168.833C509.4 200.733 542.3 224.733 576.3 229.533C580.8 230.133 585.1 230.833 585.8 231.033C586.7 231.333 585.9 233.233 583.4 237.133C569.6 258.933 548.4 283.633 529.7 299.833L522.9 305.733L511.7 306.233C460.8 308.133 416.2 274.333 403.7 224.433C402.2 218.033 401.6 212.633 401.6 202.433C401.5 180.933 402 178.933 409.8 169.233C418.1 158.833 439.1 137.733 449.2 129.633C453.4 126.233 462 119.933 468.2 115.733L479.5 108.133L480.2 118.933C480.5 124.933 481.4 132.733 482 136.233Z" fill="#5C658D"/>
<path d="M393 211.633C395.1 230.433 401.5 248.333 411.7 263.733C417.3 272.133 429.1 284.833 437 290.933C451.8 302.333 473 311.233 490.5 313.433C495.5 314.033 501.7 314.833 504.5 315.233L509.5 315.933L501 321.433C489.6 328.833 468.4 339.433 458.5 342.633C445.1 347.033 431.3 349.433 419.1 349.433C405.3 349.433 399.6 348.233 389.4 343.433C375.8 336.933 366.1 324.433 361.3 307.433C358.9 298.433 358.9 276.233 361.4 264.433C365.5 245.033 375.3 220.833 386.7 201.933L391.5 193.933L391.7 197.933C391.9 200.133 392.5 206.233 393 211.633Z" fill="#5C658D"/>
<path d="M868.5 35.4327C894.5 37.3327 933.1 42.9327 950.5 47.2327L957.4 48.9327L961.3 59.9327C966.4 74.5327 973.5 98.9327 977 114.433C980.2 128.433 984.3 152.033 983.8 153.533C983.6 154.033 977.9 149.633 971 143.833C936.3 114.233 932.8 111.433 930.7 111.433C929.5 111.433 914.6 119.533 897.5 129.333C880.5 139.233 866.4 147.233 866.3 147.033C866.2 146.933 868.3 131.533 871.1 112.833C876.7 74.5327 876.9 72.8327 874.9 71.0327C874.1 70.2327 854.3 62.3327 830.8 53.3327C807.3 44.3327 788.4 36.6328 788.8 36.2327C790.5 34.5327 848 33.9327 868.5 35.4327Z" fill="#FFD84C"/>
<path d="M654.9 413.633C655 415.533 649 417.633 631 421.833C609.4 426.833 599.9 427.933 576.5 427.833C556.6 427.833 553.3 427.633 542 425.133C535.1 423.733 526.8 421.733 523.5 420.733L517.5 418.833L517.2 412.033C516.9 405.933 517.1 405.333 518.7 405.833C523.4 407.233 538.5 410.533 547.5 412.033C554.4 413.233 563.1 413.733 575.5 413.733C596.8 413.633 614.4 411.333 636.8 405.633L651.5 401.833L653.2 406.933C654.1 409.633 654.9 412.733 654.9 413.633Z" fill="#5C658D"/>
<path d="M659 428.633C661.5 437.633 661.6 437.433 651 440.633C637.6 444.533 614.5 449.133 601.2 450.533C594.3 451.233 582.6 451.433 571.7 451.133C552.5 450.533 542.7 449.033 525.8 443.833L517 441.133V434.933V428.733L528.7 431.533C549.4 436.633 560.2 437.733 582.5 437.133C596.2 436.833 606.4 435.933 614.9 434.533C627.1 432.433 648.4 427.433 653.1 425.533C657.1 423.933 657.9 424.333 659 428.633Z" fill="#5C658D"/>
<path d="M933.5 369.633C931.1 377.333 923.2 397.433 922.5 397.433C921.7 397.433 917.9 389.333 915.9 383.533C914.4 379.433 914.3 377.833 915.2 376.733C916.3 375.333 931.7 367.433 933.3 367.433C933.8 367.433 933.8 368.433 933.5 369.633Z" fill="white"/>
<path d="M498.7 425.633L508 430.633V438.733C508 449.733 506.3 471.633 504.4 484.433C501.3 505.933 494.4 529.633 484.7 552.533C479.1 565.533 464.3 596.433 463.7 596.433C463.381 596.433 438.073 581.79 405.5 562.847C441.296 517.934 454.258 485.66 455.792 422C455.919 416.734 455.968 411.253 455.945 405.533C462.042 408.089 468.09 410.747 474.061 413.5C482.449 417.366 490.686 421.418 498.7 425.633Z" fill="#3D4156"/>
<path d="M817.4 885.233L809.5 893.633L800.1 890.533C785.2 885.633 775.6 880.033 766.9 871.433C761.578 866.111 757.756 860.984 753.838 852.833C780.914 866.107 817.197 888.634 839.038 855.634C832.644 866.808 825.386 876.771 817.4 885.233Z" fill="#3D4156"/>
<path d="M909.9 978.733C901.3 987.333 897 988.933 883.5 988.833C870.2 988.733 860.3 986.033 843.5 978.033C835.6 974.233 829.8 972.233 823.2 970.933C816.9 969.733 813.6 968.633 813 967.533C812.5 966.633 811.7 961.333 811 955.833C810.694 952.999 810.519 950.281 810.479 947.661L831 951.933C862.5 984.533 893.08 989.089 918 968.192C915.656 972.153 912.95 975.683 909.9 978.733Z" fill="#3D4156"/>
<path d="M802.5 946C802.5 946.143 802.5 946.287 802.5 946.433C802.5 953.833 802.8 961.433 803.2 963.133C804.1 966.933 803.8 967.033 796.1 965.333C791.118 964.336 791.1 964.233 790.309 959.682L790.3 959.633C789.9 957.033 789.5 949.733 789.5 943.433C789.5 943.386 789.5 943.34 789.5 943.294L802.5 946Z" fill="#3D4156"/>
<path d="M780.539 941.429C780.409 945.04 780.527 948.726 780.9 952.433C781.5 957.633 781.8 962.033 781.6 962.133C781.4 962.333 779 961.933 776.2 961.333C770.3 960.133 770.3 960.133 769.1 947.833C768.866 944.988 768.766 941.974 768.797 938.984L780.539 941.429Z" fill="#3D4156"/>
<path d="M760.222 937.2C759.99 942.615 760.153 947.963 760.8 951.933C761.3 955.233 761.7 958.033 761.6 958.133C761.4 958.333 750 956.133 736.2 953.333L711.1 948.333L698.8 950.833C676 955.533 663.4 956.733 642 956.133C607 955.133 579 948.333 547.5 933.033C485.7 903.133 446.6 852.833 433.1 785.933C429.8 769.333 428.7 754.733 429.3 734.033C444.5 865.033 542.251 932.121 710.9 926.933L760.222 937.2Z" fill="#3D4156"/>
<path d="M433.3 822.133C433.7 822.033 435.5 825.533 437.3 829.933C457.3 877.933 491.7 914.533 539.8 939.033L550.5 944.433H531.5C500 944.433 460.9 941.633 430.5 937.333C342.8 924.933 271 894.533 217.6 847.233L212.8 842.933L215.3 836.733C217.9 830.234 222.677 823.009 227.219 818.221C277.718 864.39 349.069 890.71 437.3 908C417.753 887.49 402.325 869.379 396.5 847.276C394.743 840.611 393.86 833.582 394 826.016C409.007 824.993 428.648 823.08 433.3 822.133Z" fill="#3D4156"/>
<path d="M221.138 812.466C215.495 817.98 211.027 824.344 208.3 830.933C207.3 833.433 206.2 835.333 205.9 835.133C204.3 834.533 192.9 820.633 192.4 818.633C191.5 815.333 195.5 806.233 200.2 800.933C201.889 799.008 203.733 797.345 205.785 795.914C210.645 801.688 215.764 807.2 221.138 812.466Z" fill="#3D4156"/>
<path d="M200.481 789.375C195.041 793.254 190.384 798.516 187.8 803.833C186.6 806.333 185.3 808.433 184.9 808.433C184.5 808.433 182 804.733 179.4 800.333L174.7 792.233L176.5 788.733C179.842 782.516 184.256 777.909 189.922 774.73C193.276 779.782 196.797 784.662 200.481 789.375Z" fill="#3D4156"/>
<path d="M185.281 767.455C181.513 769.489 179.373 771.458 176 775.133C169.2 782.633 169.9 783.133 164.7 767.433C160 753.233 156.2 735.933 154 718.433C152.241 704.166 150.578 680.732 151.342 680.416C158.692 713.917 170.098 742.676 185.281 767.455Z" fill="#3D4156"/>
<path d="M145 716.933C145.6 722.433 147.5 733.633 149.1 741.833C150.7 750.033 151.8 756.933 151.5 757.333C150.5 758.333 130.8 757.433 120.2 755.833C98.7 752.733 81.5 745.733 66 734.033C57.8732 727.867 44.162 714.635 44.8357 713.733C44.8357 713.733 71.2063 730.212 90 736C106.444 741.065 133.5 745.5 133.5 745.5C129.45 730.99 129.769 723.058 129.5 711.318C131.794 710.673 134.106 709.948 136.5 709.133C140.4 707.733 143.6 706.733 143.7 706.833C143.7 706.833 144.3 711.433 145 716.933Z" fill="#3D4156"/>
<path d="M247.2 703.566C251.9 696.466 260.9 678.867 262.5 673.667C263.2 671.367 262.1 670.767 260.5 672.367C259.597 673.226 254.021 676.118 247.2 679.422C244 697.534 230.5 720.034 195.6 744.466C195.9 744.466 198.9 743.067 202.3 741.367C219.7 732.667 238 717.266 247.2 703.566Z" fill="#9F95DA"/>
<path d="M191.2 752.867C178.4 735.967 166.2 714.566 157 692.966C154.1 686.366 151.6 680.766 151.4 680.466C151.395 680.462 151.39 680.458 151.385 680.455C151.37 680.446 151.356 680.445 151.342 680.45C163.892 713.649 175.407 741.62 191.325 764.667C192.624 764.117 194.071 763.524 195.7 762.867C197.9 761.967 197.8 761.667 191.2 752.867Z" fill="#9F95DA"/>
<path d="M215.3 782.466C216.3 782.466 217 782.167 216.8 781.667C216.7 781.267 213.8 778.467 210.5 775.367L204.5 769.667L199.3 771.067C198.366 771.309 197.456 771.576 196.57 771.867C200.139 776.509 203.931 780.934 207.995 785.144C211.296 783.6 214.431 782.466 215.3 782.466Z" fill="#9F95DA"/>
<path d="M241 798.867L234 794.167C226.4 789.167 224.5 788.767 217 790.867C216.185 791.093 215.394 791.335 214.626 791.593C219.663 796.192 225.1 800.507 231.014 804.542C232.565 803.518 234.163 802.557 235.8 801.667L241 798.867Z" fill="#9F95DA"/>
<path d="M387.2 826.467C339 828.967 290.4 821.766 258.4 807.466C254.8 805.766 251.3 804.466 250.6 804.466C249.384 804.466 244.177 806.982 239.194 809.759C273.082 829.955 321.548 842.249 396.5 847.31C394.743 840.645 393.86 833.616 394 826.05C391.586 826.214 389.292 826.356 387.2 826.467Z" fill="#9F95DA"/>
<path d="M175 390.666C160.7 396.466 139.5 406.266 140.1 406.866C258.8 360.009 346 379.966 455.792 422.034C455.919 416.768 455.968 411.287 455.945 405.566C408.631 385.732 358.344 372.078 317.5 368.566C265.7 364.066 225.5 370.266 175 390.666Z" fill="#9F95DA"/>
<path d="M710 789.699C721.98 798.434 723.81 867.242 774.226 898.352C774.805 897.639 775.397 896.943 776 896.267L780 891.667L774.4 888.367C766.3 883.767 755.7 873.367 750.6 865.067C744.8 855.767 742.3 849.567 732.8 821.467C725.5 799.767 720.2 786.767 716.7 782.067C715.5 780.367 715.2 780.567 713.6 784.867C712.582 787.523 711.642 789.081 710 789.699Z" fill="#9F95DA"/>
<path d="M797.8 898.767L794.2 897.567L794.199 897.566C792.099 896.866 790 896.166 789.4 895.867C788.179 895.337 785.168 898.304 781.886 902.589C785.042 904.145 788.367 905.562 791.87 906.823C792.348 906.148 792.829 905.488 793.3 904.867L797.8 898.767Z" fill="#9F95DA"/>
<path d="M817 904.167C817 903.867 815.5 903.367 813.8 902.967C812 902.567 809.8 902.167 808.9 901.867C807.299 901.416 803.893 904.773 800.452 909.493C804.029 910.44 807.771 911.235 811.69 911.862C812.501 910.564 813.311 909.387 814.1 908.367C815.7 906.367 817 904.467 817 904.167Z" fill="#9F95DA"/>
<path d="M830.9 905.667C827.6 905.367 826.9 905.767 823 910.667C822.379 911.448 821.783 912.232 821.21 913.019C825.211 913.358 829.379 913.534 833.721 913.534C833.721 913.531 833.721 913.528 833.721 913.524C833.795 912.062 833.888 910.838 834 909.967C834.5 905.967 834.5 905.967 830.9 905.667Z" fill="#9F95DA"/>
<path d="M458.926 303.958C469.409 308.767 480.552 312.182 490.5 313.433C495.5 314.033 501.7 314.833 504.5 315.233L509.5 315.933L501 321.433C489.6 328.833 468.4 339.433 458.5 342.633C445.1 347.033 431.3 349.433 419.1 349.433C405.3 349.433 399.6 348.233 389.4 343.433C375.8 336.933 366.1 324.433 361.3 307.433C394.02 313.951 427.477 312.655 458.926 303.958Z" fill="#3D4156"/>
<path d="M569.324 228.278C571.641 228.784 573.968 229.203 576.3 229.533C580.8 230.133 585.1 230.833 585.8 231.033C586.7 231.333 585.9 233.233 583.4 237.133C569.6 258.933 548.4 283.633 529.7 299.833L522.9 305.733L511.7 306.233C497.639 306.758 484.058 304.558 471.502 300.047C509.382 286.936 543.681 262.758 569.324 228.278Z" fill="#3D4156"/>
<path d="M611.6 126.433C614.3 135.933 614 158.533 611.2 171.733C608.2 185.333 603.8 198.033 597.5 211.133L592.1 222.433H588.2C586 222.433 580.6 221.733 576.3 220.933C575.784 220.834 575.269 220.733 574.755 220.627C592.435 194.527 605.362 163.031 611.6 126.433Z" fill="#3D4156"/>
<path d="M513.9 376.933C512.2 361.433 508 335.333 506.4 330.233C506.1 329.133 508.2 327.033 514.2 322.833C566.8 285.733 608.8 226.433 620.2 173.033C608.1 260 576.608 320.244 513.9 376.933Z" fill="#3D4156"/>
<path d="M780.2 502.833C791.3 507.233 813 513.433 817 513.433C819.5 513.433 821.5 517.333 829.5 537.833C831.711 543.502 833.846 549.209 835.9 554.942C800 549.833 759 521.733 737.351 481.242C740.647 484.399 766.365 497.504 780.2 502.833Z" fill="#812731"/>
<path d="M868.5 35.4327C894.5 37.3327 933.1 42.9327 950.5 47.2327L957.4 48.9327L961.3 59.9327C966.4 74.5327 973.5 98.9327 977 114.433C980.2 128.433 984.3 152.033 983.8 153.533C983.6 154.033 977.9 149.633 971 143.833C969.274 142.36 967.625 140.954 966.05 139.612C958.122 116.114 947.723 94.0422 935.8 71.0327C895.376 58.7886 857.138 50.4708 818.456 48.561C801.031 41.7599 788.473 36.5596 788.8 36.2327C790.5 34.5327 848 33.9327 868.5 35.4327Z" fill="#FBE183" fill-opacity="0.6"/>
<path d="M570.2 85.9327C590.9 90.2327 605.6 104.633 611.6 126.433C585.15 90.2358 535.943 92.4836 489.204 113.284L489.5 102.933L498 98.6327C508.1 93.6327 525 87.9327 535.8 86.0327C546 84.1327 561.8 84.1327 570.2 85.9327Z" fill="#9F95DA"/>
<path d="M405.922 174.377C406.955 172.826 408.23 171.186 409.8 169.233C418.1 158.833 439.1 137.733 449.2 129.633C453.4 126.233 462 119.933 468.2 115.733L479.5 108.133L480.112 117.578C451.98 131.629 425.366 152.049 405.922 174.377Z" fill="#9F95DA"/>
<path d="M610.9 102.933C609.1 100.433 607.9 98.2327 608.1 98.0327C609.8 96.6327 633.1 84.2327 644.1 79.0327C682.5 60.7327 717.6 48.4327 751.5 41.4327C759.2 39.8327 766.1 38.5327 766.8 38.5327C767.35 38.464 778.163 42.415 793.546 48.2393C737.378 49.6008 679.119 65.3595 610.9 102.933Z" fill="#9F95DA"/>
<path d="M970.781 154.88C980.031 162.81 984.156 166.471 984.7 167.233C986.6 169.933 987.4 200.533 986.1 222.433C984.9 242.133 982.6 265.133 981.7 266.033C984.14 222.03 979.779 186.78 970.781 154.88Z" fill="#9F95DA"/>
<g filter="url(#filter0_f_70_33)">
<path d="M743.103 197.848C750.946 212.671 761.604 224.304 771.891 229.049C779.598 232.738 783.845 232.971 790.265 230.282C795.721 227.997 800.181 222.733 802.399 216.019C805.371 206.601 804.364 188.285 799.874 173.063L797.962 166.696L809.089 162.035L820.322 157.33L820.328 160.346C820.375 161.961 820.207 167.564 819.798 172.892C817.416 206.837 805.857 232.68 784.362 251.618L778.563 256.687L767.784 256.172C761.877 255.88 753.568 254.958 749.204 254.146C737.859 251.981 716.804 243.446 706.683 236.996C698.456 231.765 686.294 221.643 682.314 216.645L680.686 214.56L709.983 202.54L739.324 190.628L743.103 197.848Z" fill="#FFD84C"/>
<path d="M658.861 223.701L670.843 218.682L673.723 222.255C678.624 228.251 693.69 240.803 702.873 246.514C715.102 254.093 732.183 260.646 747.008 263.617C753.988 264.969 759.888 266.144 760.344 266.331C760.799 266.517 757.91 267.727 753.88 268.913C726.137 277.137 697.327 272.605 670.038 255.489C662.007 250.427 644.332 236.452 641.166 232.496C639.387 230.349 639.556 230.153 643.079 229.557C645.139 229.071 652.228 226.48 658.861 223.701Z" fill="#FFD84C"/>
<path fill-rule="evenodd" clip-rule="evenodd" d="M627.114 228.07C626.167 232.114 627.419 233.601 641.013 245.639C675.232 275.697 708.052 287.101 743.419 281.468C763.872 278.057 785.139 266.383 799.572 250.403C818.663 229.328 827.506 206.006 829.664 171.526C830.824 152.68 829.74 145.589 825.814 145.221C824.261 145.117 785.967 160.276 725.555 185.077L627.778 225.151L627.114 228.07ZM670.843 218.682L658.861 223.701C652.228 226.48 645.139 229.071 643.079 229.557C639.556 230.153 639.387 230.349 641.166 232.496C644.332 236.452 662.007 250.427 670.038 255.489C697.327 272.605 726.137 277.137 753.88 268.913C757.91 267.727 760.799 266.517 760.344 266.331C759.888 266.144 753.988 264.969 747.008 263.617C732.183 260.646 715.102 254.093 702.873 246.514C693.69 240.803 678.624 228.251 673.723 222.255L670.843 218.682ZM771.891 229.049C761.604 224.304 750.946 212.671 743.103 197.848L739.324 190.628L709.983 202.54L680.686 214.56L682.314 216.645C686.294 221.643 698.456 231.765 706.683 236.996C716.804 243.446 737.859 251.981 749.204 254.146C753.568 254.958 761.877 255.88 767.784 256.172L778.563 256.687L784.362 251.618C805.857 232.68 817.416 206.837 819.798 172.892C820.207 167.564 820.375 161.961 820.328 160.346L820.322 157.33L809.089 162.035L797.962 166.696L799.874 173.063C804.364 188.285 805.371 206.601 802.399 216.019C800.181 222.733 795.721 227.997 790.265 230.282C783.845 232.971 779.598 232.738 771.891 229.049ZM794.334 202.169C794.596 194.388 791.991 179.76 789.302 173.341L787.778 169.704L767.879 178.039L747.98 186.373L751.507 192.693C756.413 201.704 765.187 212.743 770.378 216.73C776.07 221.011 783.042 223.247 786.466 221.813C790.317 220.2 794.172 210.788 794.334 202.169Z" fill="#FFD84C"/>
<path d="M789.302 173.341C791.991 179.76 794.596 194.388 794.334 202.169C794.172 210.788 790.317 220.2 786.466 221.813C783.042 223.247 776.07 221.011 770.378 216.73C765.187 212.743 756.413 201.704 751.507 192.693L747.98 186.373L767.879 178.039L787.778 169.704L789.302 173.341Z" fill="#FFD84C"/>
</g>
<path d="M743.821 202.149C750.583 214.928 759.771 224.957 768.64 229.048C775.284 232.228 778.946 232.429 784.48 230.111C789.185 228.141 793.03 223.603 794.942 217.815C797.504 209.695 796.636 193.904 792.766 180.78L791.117 175.291L800.709 171.273L810.394 167.217L810.399 169.817C810.44 171.209 810.295 176.04 809.942 180.633C807.889 209.898 797.923 232.179 779.392 248.505L774.392 252.876L765.099 252.432C760.006 252.18 752.843 251.386 749.08 250.685C739.3 248.819 721.148 241.46 712.422 235.899C705.329 231.39 694.843 222.663 691.412 218.354L690.009 216.557L715.267 206.194L740.563 195.924L743.821 202.149Z" fill="#FFD84C"/>
<path d="M671.193 224.438L681.523 220.111L684.006 223.191C688.231 228.36 701.22 239.182 709.137 244.106C719.68 250.64 734.406 256.289 747.188 258.85C753.205 260.016 758.292 261.029 758.685 261.19C759.077 261.351 756.587 262.394 753.112 263.416C729.194 270.507 704.356 266.599 680.829 251.843C673.905 247.479 658.667 235.43 655.938 232.02C654.403 230.169 654.549 230 657.587 229.486C659.363 229.067 665.474 226.833 671.193 224.438Z" fill="#FFD84C"/>
<path fill-rule="evenodd" clip-rule="evenodd" d="M643.823 228.204C643.006 231.69 644.086 232.973 655.805 243.351C685.307 269.265 713.602 279.097 744.093 274.24C761.726 271.3 780.062 261.235 792.505 247.458C808.964 229.289 816.588 209.182 818.448 179.456C819.448 163.208 818.514 157.094 815.129 156.777C813.79 156.687 780.776 169.757 728.692 191.138L644.395 225.688L643.823 228.204ZM681.523 220.111L671.193 224.438C665.474 226.833 659.363 229.067 657.587 229.486C654.549 230 654.403 230.169 655.938 232.02C658.667 235.43 673.905 247.479 680.829 251.843C704.356 266.599 729.194 270.507 753.112 263.416C756.587 262.394 759.077 261.351 758.685 261.19C758.292 261.029 753.205 260.016 747.188 258.85C734.406 256.289 719.68 250.64 709.137 244.106C701.22 239.182 688.231 228.36 684.006 223.191L681.523 220.111ZM768.64 229.048C759.771 224.957 750.583 214.928 743.821 202.149L740.563 195.924L715.267 206.194L690.009 216.557L691.412 218.354C694.843 222.663 705.329 231.39 712.422 235.899C721.148 241.46 739.3 248.819 749.08 250.685C752.843 251.386 760.006 252.18 765.099 252.432L774.392 252.876L779.392 248.505C797.923 232.179 807.889 209.898 809.942 180.633C810.295 176.04 810.44 171.209 810.399 169.817L810.394 167.217L800.709 171.273L791.117 175.291L792.766 180.78C796.636 193.904 797.504 209.695 794.942 217.815C793.03 223.603 789.185 228.141 784.48 230.111C778.946 232.429 775.284 232.228 768.64 229.048ZM787.989 205.874C788.215 199.166 785.969 186.555 783.651 181.02L782.337 177.884L765.181 185.07L748.025 192.256L751.066 197.704C755.296 205.473 762.86 214.99 767.336 218.428C772.243 222.119 778.254 224.046 781.205 222.81C784.526 221.419 787.849 213.305 787.989 205.874Z" fill="#FFD84C"/>
<path d="M783.651 181.02C785.969 186.555 788.215 199.166 787.989 205.874C787.849 213.305 784.526 221.419 781.205 222.81C778.254 224.046 772.243 222.119 767.336 218.428C762.86 214.99 755.296 205.473 751.066 197.704L748.025 192.256L765.181 185.07L782.337 177.884L783.651 181.02Z" fill="#FFD84C"/>
<defs>
<filter id="filter0_f_70_33" x="606.87" y="125.221" width="243.234" height="177.637" filterUnits="userSpaceOnUse" color-interpolation-filters="sRGB">
<feFlood flood-opacity="0" result="BackgroundImageFix"/>
<feBlend mode="normal" in="SourceGraphic" in2="BackgroundImageFix" result="shape"/>
<feGaussianBlur stdDeviation="10" result="effect1_foregroundBlur_70_33"/>
</filter>
</defs>
</svg>
