<svg width="160" height="214" viewBox="0 0 160 214" fill="none" xmlns="http://www.w3.org/2000/svg">
<g clip-path="url(#clip0_26_202)">
<path d="M5 152.088C5 170.362 38.5787 185.176 80 185.176C121.421 185.176 155 170.362 155 152.088C155 133.814 121.421 119 80 119C38.5787 119 5 133.814 5 152.088Z" fill="url(#paint0_radial_26_202)"/>
<path d="M80 209C121.421 209 155 176.941 155 152.088C155 170.362 121.421 185.176 80 185.176C38.5787 185.176 5 170.362 5 152.088C5 176.941 38.5787 209 80 209Z" fill="white"/>
<path d="M155 152.088C155 176.941 121.421 209 80 209C38.5787 209 5 176.941 5 152.088M155 152.088C155 170.362 121.421 185.176 80 185.176C38.5787 185.176 5 170.362 5 152.088M155 152.088C155 133.814 121.421 119 80 119C38.5787 119 5 133.814 5 152.088" stroke="black" stroke-width="10"/>
<path d="M154.97 77.8571C153.836 56.2943 120.705 39 80 39C39.2954 39 6.16434 56.2943 5.03002 77.8571C5.01612 78.3529 5.00702 78.8498 5.00278 79.3479C5.35304 101.279 38.7963 119 80 119C121.204 119 154.647 101.279 154.997 79.3479C154.993 78.8498 154.984 78.3528 154.97 77.8571Z" fill="url(#paint1_radial_26_202)"/>
<path d="M80 39C120.705 39 153.836 56.2943 154.97 77.8571C153.836 37.4267 120.705 5 80 5C39.2954 5 6.16434 37.4268 5.03002 77.8571C6.16434 56.2943 39.2954 39 80 39Z" fill="#FF0000"/>
<path d="M155 80.0001C155 79.7824 154.999 79.565 154.997 79.3479M5 80.0001C5 79.7824 5.00093 79.565 5.00278 79.3479M154.97 77.8571C153.836 56.2943 120.705 39 80 39C39.2954 39 6.16434 56.2943 5.03002 77.8571M154.97 77.8571C154.984 78.3528 154.993 78.8498 154.997 79.3479M154.97 77.8571C153.836 37.4267 120.705 5 80 5C39.2954 5 6.16434 37.4268 5.03002 77.8571M154.97 77.8571C154.99 78.2368 155 78.6178 155 79C155 79.1161 154.999 79.232 154.997 79.3479M5.03002 77.8571C5.01612 78.3529 5.00702 78.8498 5.00278 79.3479M5.03002 77.8571C5.01005 78.2368 5 78.6178 5 79C5 79.1161 5.00093 79.232 5.00278 79.3479M5.00278 79.3479C5.35304 101.279 38.7963 119 80 119C121.204 119 154.647 101.279 154.997 79.3479" stroke="black" stroke-width="10"/>
<path opacity="0.8" d="M110.844 26.7563C100.989 18.7558 94.9476 9.52336 97.3502 6.13506C99.7527 2.74676 109.689 6.48567 119.544 14.4862C129.399 22.4866 135.441 31.7191 133.038 35.1074C130.636 38.4957 120.699 34.7568 110.844 26.7563Z" fill="white"/>
<path d="M154.97 77.8571C153.836 56.2943 120.705 39 80 39C39.2954 39 6.16434 56.2943 5.03002 77.8571C5.01612 78.3529 5.00702 78.8498 5.00278 79.3479C5.35304 101.279 38.7963 119 80 119C121.204 119 154.647 101.279 154.997 79.3479C154.993 78.8498 154.984 78.3528 154.97 77.8571Z" fill="url(#paint2_radial_26_202)"/>
<path d="M155 80.0001C155 79.7824 154.999 79.565 154.997 79.3479M5 80.0001C5 79.7824 5.00093 79.565 5.00278 79.3479M154.97 77.8571C153.836 56.2943 120.705 39 80 39C39.2954 39 6.16434 56.2943 5.03002 77.8571M154.97 77.8571C154.984 78.3528 154.993 78.8498 154.997 79.3479M154.97 77.8571C153.836 37.4267 120.705 5 80 5C39.2954 5 6.16434 37.4268 5.03002 77.8571M154.97 77.8571C154.99 78.2368 155 78.6178 155 79C155 79.1161 154.999 79.232 154.997 79.3479M5.03002 77.8571C5.01612 78.3529 5.00702 78.8498 5.00278 79.3479M5.03002 77.8571C5.01005 78.2368 5 78.6178 5 79C5 79.1161 5.00093 79.232 5.00278 79.3479M5.00278 79.3479C5.35304 101.279 38.7963 119 80 119C121.204 119 154.647 101.279 154.997 79.3479" stroke="black" stroke-width="10"/>
<path d="M79.5 10C98.0015 10 113 19.6259 113 31.5C113 43.3741 98.0015 53 79.5 53C60.9985 53 46 43.3741 46 31.5C46 19.6259 60.9985 10 79.5 10Z" fill="white"/>
<path d="M79 41C86.732 41 93 36.9706 93 32C93 27.0294 86.732 23 79 23C71.268 23 65 27.0294 65 32C65 36.9706 71.268 41 79 41Z" fill="white"/>
<path d="M79.5 10C98.0015 10 113 19.6259 113 31.5C113 43.3741 98.0015 53 79.5 53C60.9985 53 46 43.3741 46 31.5C46 19.6259 60.9985 10 79.5 10Z" stroke="black" stroke-width="5"/>
<path d="M79 41C86.732 41 93 36.9706 93 32C93 27.0294 86.732 23 79 23C71.268 23 65 27.0294 65 32C65 36.9706 71.268 41 79 41Z" stroke="black" stroke-width="5"/>
</g>
<defs>
<radialGradient id="paint0_radial_26_202" cx="0" cy="0" r="1" gradientUnits="userSpaceOnUse" gradientTransform="translate(80 184.4) rotate(90) scale(31.8 53)">
<stop/>
<stop offset="0.5" stop-color="#808080"/>
<stop offset="1" stop-color="white"/>
</radialGradient>
<radialGradient id="paint1_radial_26_202" cx="0" cy="0" r="1" gradientUnits="userSpaceOnUse" gradientTransform="translate(80 50.5) rotate(90) scale(51 67.1053)">
<stop/>
<stop offset="1" stop-color="white"/>
</radialGradient>
<radialGradient id="paint2_radial_26_202" cx="0" cy="0" r="1" gradientUnits="userSpaceOnUse" gradientTransform="translate(80 50.5) rotate(90) scale(51 67.1053)">
<stop/>
<stop offset="1" stop-color="white"/>
</radialGradient>
<clipPath id="clip0_26_202">
<rect width="160" height="214" fill="white"/>
</clipPath>
</defs>
</svg>
