<svg width="160" height="160" viewBox="0 0 160 160" fill="none" xmlns="http://www.w3.org/2000/svg">
<g clip-path="url(#clip0_11_117)">
<path d="M155 80H106.471H53.5294H5C5 121.421 38.5786 155 80 155C121.421 155 155 121.421 155 80Z" fill="white"/>
<path d="M155 80C155 38.5786 121.421 5 80 5C38.5786 5 5 38.5786 5 80H53.5294H106.471H155Z" fill="#FF0000"/>
<path d="M155 80C155 38.5786 121.421 5 80 5C38.5786 5 5 38.5786 5 80M155 80H106.471H53.5294H5M155 80C155 121.421 121.421 155 80 155C38.5786 155 5 121.421 5 80" stroke="black" stroke-width="10"/>
<path d="M80 54C94.3594 54 106 65.6406 106 80C106 94.3594 94.3594 106 80 106C65.6406 106 54 94.3594 54 80C54 65.6406 65.6406 54 80 54Z" fill="white" stroke="black" stroke-width="5"/>
<path d="M80 91C86.0751 91 91 86.0751 91 80C91 73.9249 86.0751 69 80 69C73.9249 69 69 73.9249 69 80C69 86.0751 73.9249 91 80 91Z" fill="white" stroke="black" stroke-width="5"/>
<path opacity="0.8" d="M109.481 48.2568C99.2905 40.525 94.3125 29.9298 98.3625 24.5918C102.412 19.2538 113.957 21.1943 124.148 28.9262C134.338 36.658 139.316 47.2532 135.266 52.5912C131.216 57.9292 119.672 55.9886 109.481 48.2568Z" fill="white"/>
</g>
<defs>
<clipPath id="clip0_11_117">
<rect width="160" height="160" fill="white"/>
</clipPath>
</defs>
</svg>
