<svg width="197" height="193" viewBox="0 0 197 193" fill="none" xmlns="http://www.w3.org/2000/svg">
<path opacity="0.9" d="M120.951 16.3372C142.81 2.02214 172.684 8.72618 187.009 30.6006C198.547 48.218 196.657 71.3021 184.106 86.8598L183.839 87.1902L184.124 87.5074C201.562 106.978 199.915 136.899 180.444 154.338C164.755 168.39 142.291 170.071 125.029 159.999L124.508 159.696L124.306 160.263C121.741 167.448 117.398 174.115 111.313 179.564C91.8427 197.003 61.9221 195.356 44.4832 175.886C38.7313 169.464 35.0559 161.906 33.4113 154.035L33.3529 153.751L33.077 153.661C25.4338 151.163 18.3254 146.68 12.5737 140.259C-4.86515 120.788 -3.2179 90.8665 16.2528 73.4276C23.008 67.3774 31.0197 63.6247 39.3318 62.1163L39.8822 62.0165L39.7208 61.4807C34.6025 44.4452 39.3487 25.2243 53.4737 12.5734C72.9444 -4.86528 102.866 -3.21822 120.305 16.2525L120.591 16.5726L120.951 16.3372Z" fill="#D9D9D9" stroke="black"/>
</svg>
