<svg width="1024" height="1024" viewBox="0 0 1024 1024" fill="none" xmlns="http://www.w3.org/2000/svg">
<g clip-path="url(#clip0_58_2)">
<path fill-rule="evenodd" clip-rule="evenodd" d="M1055.59 404C1128.72 404 1188 323.859 1188 225C1188 126.141 1128.72 46 1055.59 46C1009.25 46 968.47 78.1786 944.811 126.908C931.132 155.08 923.176 188.784 923.176 225C923.176 251.013 927.281 275.73 934.663 298.032C955.334 360.486 1001.7 404 1055.59 404ZM956.279 225C956.279 284.315 1000.74 332.4 1055.59 332.4C1110.43 332.4 1154.9 284.315 1154.9 225C1154.9 165.685 1110.43 117.6 1055.59 117.6C1000.74 117.6 956.279 165.685 956.279 225Z" fill="#5C658D"/>
<path fill-rule="evenodd" clip-rule="evenodd" d="M-164 225C-164 323.859 -104.717 404 -31.5882 404C22.2981 404 68.6663 360.486 89.3373 298.032C96.7188 275.73 100.824 251.013 100.824 225C100.824 188.784 92.8675 155.08 79.1893 126.908C55.53 78.1786 14.7507 46 -31.5882 46C-104.717 46 -164 126.141 -164 225ZM67.7205 225C67.7205 284.315 23.2585 332.4 -31.5883 332.4C-86.435 332.4 -130.897 284.315 -130.897 225C-130.897 165.685 -86.435 117.6 -31.5883 117.6C23.2585 117.6 67.7205 165.685 67.7205 225Z" fill="#5C658D"/>
<path d="M-31.5883 332.4C23.2585 332.4 67.7205 284.315 67.7205 225C67.7205 165.685 23.2585 117.6 -31.5883 117.6C-86.435 117.6 -130.897 165.685 -130.897 225C-130.897 284.315 -86.435 332.4 -31.5883 332.4Z" fill="#5C658D"/>
<path d="M728.704 896.904L728.698 896.959L728.758 896.918C809.886 841.228 869 777.314 869 777.314V310.268L512 376.792L154 310.081V777.314C154 777.314 218.024 843.515 304.794 899.872C293.437 790.409 266.97 674.09 266.97 674.09H392.095L517.22 779.405L642.345 674.09H767.47C767.47 674.09 740.607 788.29 728.704 896.904Z" fill="#5C658D"/>
<path d="M512 376.792L869 310.268L934.663 298.032C927.281 275.73 923.176 251.013 923.176 225C923.176 188.784 931.132 155.08 944.811 126.908C944.811 126.908 681.989 76.788 512 76.788C342.011 76.788 79.1893 126.908 79.1893 126.908C92.8675 155.08 100.824 188.784 100.824 225C100.824 251.013 96.7188 275.73 89.3373 298.032L154 310.081L512 376.792Z" fill="#5C658D"/>
<path d="M1055.59 332.4C1000.74 332.4 956.279 284.315 956.279 225C956.279 165.685 1000.74 117.6 1055.59 117.6C1110.43 117.6 1154.9 165.685 1154.9 225C1154.9 284.315 1110.43 332.4 1055.59 332.4Z" fill="#5C658D"/>
<path d="M728.698 896.959L728.704 896.904C740.607 788.29 767.47 674.09 767.47 674.09H642.345L517.22 779.405L392.095 674.09H266.97C266.97 674.09 293.437 790.409 304.794 899.872C370.872 942.79 450.141 980 524.37 977.917C594.414 975.951 667.761 938.779 728.698 896.959Z" fill="#D65C3B"/>
<path d="M154 310V310.081M728.698 896.959L728.704 896.904C740.607 788.29 767.47 674.09 767.47 674.09H642.345L517.22 779.405L392.095 674.09H266.97C266.97 674.09 293.437 790.409 304.794 899.872M728.698 896.959L728.69 897.024M728.698 896.959C728.718 896.945 728.738 896.932 728.758 896.918M728.698 896.959C667.761 938.779 594.414 975.951 524.37 977.917C450.141 980 370.872 942.79 304.794 899.872M728.698 896.959L728.758 896.918M304.796 899.896L304.794 899.872M304.794 899.872C218.024 843.515 154 777.314 154 777.314V310.081M869 310.268V777.314C869 777.314 809.886 841.228 728.758 896.918M154 310.081L512 376.792L869 310.268M869 310.268L934.663 298.032M512 376.792L934.663 298.032M944.811 126.908C968.47 78.1786 1009.25 46 1055.59 46C1128.72 46 1188 126.141 1188 225C1188 323.859 1128.72 404 1055.59 404C1001.7 404 955.334 360.486 934.663 298.032C927.281 275.73 923.176 251.013 923.176 225C923.176 188.784 931.132 155.08 944.811 126.908ZM79.1893 126.908C55.53 78.1786 14.7507 46 -31.5882 46C-104.717 46 -164 126.141 -164 225C-164 323.859 -104.717 404 -31.5882 404C22.2981 404 68.6663 360.486 89.3373 298.032C96.7188 275.73 100.824 251.013 100.824 225C100.824 188.784 92.8675 155.08 79.1893 126.908ZM89.3373 298.032L154 310.081M79.1893 126.908C79.1893 126.908 342.011 76.788 512 76.788C681.989 76.788 944.811 126.908 944.811 126.908M1055.59 332.4C1000.74 332.4 956.279 284.315 956.279 225C956.279 165.685 1000.74 117.6 1055.59 117.6C1110.43 117.6 1154.9 165.685 1154.9 225C1154.9 284.315 1110.43 332.4 1055.59 332.4ZM-31.5883 332.4C23.2585 332.4 67.7205 284.315 67.7205 225C67.7205 165.685 23.2585 117.6 -31.5883 117.6C-86.435 117.6 -130.897 165.685 -130.897 225C-130.897 284.315 -86.435 332.4 -31.5883 332.4Z" stroke="white" stroke-width="50"/>
<path fill-rule="evenodd" clip-rule="evenodd" d="M1055.59 404C1128.72 404 1188 323.859 1188 225C1188 126.141 1128.72 46 1055.59 46C1009.25 46 968.47 78.1786 944.811 126.908C931.132 155.08 923.176 188.784 923.176 225C923.176 251.013 927.281 275.73 934.663 298.032C955.334 360.486 1001.7 404 1055.59 404ZM956.279 225C956.279 284.315 1000.74 332.4 1055.59 332.4C1110.43 332.4 1154.9 284.315 1154.9 225C1154.9 165.685 1110.43 117.6 1055.59 117.6C1000.74 117.6 956.279 165.685 956.279 225Z" fill="#5C658D"/>
<path fill-rule="evenodd" clip-rule="evenodd" d="M-164 225C-164 323.859 -104.717 404 -31.5882 404C22.2981 404 68.6663 360.486 89.3373 298.032C96.7188 275.73 100.824 251.013 100.824 225C100.824 188.784 92.8675 155.08 79.1893 126.908C55.53 78.1786 14.7507 46 -31.5882 46C-104.717 46 -164 126.141 -164 225ZM67.7205 225C67.7205 284.315 23.2585 332.4 -31.5883 332.4C-86.435 332.4 -130.897 284.315 -130.897 225C-130.897 165.685 -86.435 117.6 -31.5883 117.6C23.2585 117.6 67.7205 165.685 67.7205 225Z" fill="#5C658D"/>
<path d="M-31.5883 332.4C23.2585 332.4 67.7205 284.315 67.7205 225C67.7205 165.685 23.2585 117.6 -31.5883 117.6C-86.435 117.6 -130.897 165.685 -130.897 225C-130.897 284.315 -86.435 332.4 -31.5883 332.4Z" fill="#5C658D"/>
<path d="M728.704 896.904L728.698 896.959L728.758 896.918C809.886 841.228 869 777.314 869 777.314V310.268L512 376.792L154 310.081V777.314C154 777.314 218.024 843.515 304.794 899.872C293.437 790.409 266.97 674.09 266.97 674.09H392.095L517.22 779.405L642.345 674.09H767.47C767.47 674.09 740.607 788.29 728.704 896.904Z" fill="#5C658D"/>
<path d="M512 376.792L869 310.268L934.663 298.032C927.281 275.73 923.176 251.013 923.176 225C923.176 188.784 931.132 155.08 944.811 126.908C944.811 126.908 681.989 76.788 512 76.788C342.011 76.788 79.1893 126.908 79.1893 126.908C92.8675 155.08 100.824 188.784 100.824 225C100.824 251.013 96.7188 275.73 89.3373 298.032L154 310.081L512 376.792Z" fill="#5C658D"/>
<path d="M1055.59 332.4C1000.74 332.4 956.279 284.315 956.279 225C956.279 165.685 1000.74 117.6 1055.59 117.6C1110.43 117.6 1154.9 165.685 1154.9 225C1154.9 284.315 1110.43 332.4 1055.59 332.4Z" fill="#5C658D"/>
<path d="M728.698 896.959L728.704 896.904C740.607 788.29 767.47 674.09 767.47 674.09H642.345L517.22 779.405L392.095 674.09H266.97C266.97 674.09 293.437 790.409 304.794 899.872C370.872 942.79 450.141 980 524.37 977.917C594.414 975.951 667.761 938.779 728.698 896.959Z" fill="#D65C3B"/>
<path d="M154 310V310.081M728.698 896.959L728.704 896.904C740.607 788.29 767.47 674.09 767.47 674.09H642.345L517.22 779.405L392.095 674.09H266.97C266.97 674.09 293.437 790.409 304.794 899.872M728.698 896.959L728.69 897.024M728.698 896.959C728.718 896.945 728.738 896.932 728.758 896.918M728.698 896.959C667.761 938.779 594.414 975.951 524.37 977.917C450.141 980 370.872 942.79 304.794 899.872M728.698 896.959L728.758 896.918M304.796 899.896L304.794 899.872M304.794 899.872C218.024 843.515 154 777.314 154 777.314V310.081M869 310.268V777.314C869 777.314 809.886 841.228 728.758 896.918M154 310.081L512 376.792L869 310.268M869 310.268L934.663 298.032M512 376.792L934.663 298.032M944.811 126.908C968.47 78.1786 1009.25 46 1055.59 46C1128.72 46 1188 126.141 1188 225C1188 323.859 1128.72 404 1055.59 404C1001.7 404 955.334 360.486 934.663 298.032C927.281 275.73 923.176 251.013 923.176 225C923.176 188.784 931.132 155.08 944.811 126.908ZM79.1893 126.908C55.53 78.1786 14.7507 46 -31.5882 46C-104.717 46 -164 126.141 -164 225C-164 323.859 -104.717 404 -31.5882 404C22.2981 404 68.6663 360.486 89.3373 298.032C96.7188 275.73 100.824 251.013 100.824 225C100.824 188.784 92.8675 155.08 79.1893 126.908ZM89.3373 298.032L154 310.081M79.1893 126.908C79.1893 126.908 342.011 76.788 512 76.788C681.989 76.788 944.811 126.908 944.811 126.908M1055.59 332.4C1000.74 332.4 956.279 284.315 956.279 225C956.279 165.685 1000.74 117.6 1055.59 117.6C1110.43 117.6 1154.9 165.685 1154.9 225C1154.9 284.315 1110.43 332.4 1055.59 332.4ZM-31.5883 332.4C23.2585 332.4 67.7205 284.315 67.7205 225C67.7205 165.685 23.2585 117.6 -31.5883 117.6C-86.435 117.6 -130.897 165.685 -130.897 225C-130.897 284.315 -86.435 332.4 -31.5883 332.4Z" stroke="black" stroke-width="10"/>
<path fill-rule="evenodd" clip-rule="evenodd" d="M211.777 448.555C208.845 452.174 208.884 454.512 211.615 475.605C218.627 528.451 235.137 560.975 262.991 577.345C279.185 586.653 300.587 587.861 319.637 580.283C344.798 570.326 364.067 551.582 384.933 517.005C396.325 498.094 399.55 490.022 397.015 487.17C395.99 486.085 360.744 477.801 304.643 465.656L213.879 445.931L211.777 448.555ZM247.577 466.272L236.393 463.967C230.203 462.691 223.799 460.935 222.088 460.145C219.294 458.55 219.065 458.648 219.102 462.005C219.091 468.118 223.583 493.798 226.348 504.123C235.789 539.123 253.358 561.964 277.344 570.839C280.823 572.138 283.519 572.694 283.306 572.213C283.093 571.733 279.634 566.797 275.52 560.998C266.838 548.58 258.592 531.009 254.311 515.42C251.106 503.693 247.636 481.136 247.581 471.806L247.577 466.272ZM312.301 540.622C307.784 529.207 306.875 510.382 309.722 490.001L311.138 480.1L283.965 474.063L256.763 468.165L256.729 471.362C256.701 479.073 259.508 497.271 262.315 507.896C265.759 520.983 275.666 543.119 282.371 552.509C284.961 556.101 290.244 562.286 294.204 566.305L301.44 573.621L308.336 571.984C333.975 565.765 356.556 546.103 377.279 512.224C380.556 506.929 383.82 501.195 384.693 499.482L386.383 496.336L375.898 494.175L365.514 492.035L363.274 499.873C357.861 518.56 348.279 538.281 340.916 546.228C335.598 551.83 329.529 554.511 324.436 553.461C318.445 552.226 315.611 549.312 312.301 540.622ZM343.063 526.722C347.615 518.778 354.009 501.895 355.736 493.514L356.715 488.765L338.142 484.937L319.57 481.11L318.484 489.914C316.85 502.39 316.777 519.412 318.162 526.832C319.732 534.873 323.344 541.587 326.539 542.246C330.134 542.987 338.11 535.603 343.063 526.722Z" fill="black"/>
<path d="M236.393 463.967L247.577 466.272L247.581 471.806C247.636 481.136 251.106 503.693 254.311 515.42C258.592 531.009 266.838 548.58 275.52 560.998C279.634 566.797 283.093 571.733 283.306 572.213C283.519 572.694 280.823 572.138 277.344 570.839C253.358 561.964 235.789 539.123 226.348 504.123C223.583 493.798 219.091 468.118 219.102 462.005C219.065 458.648 219.294 458.55 222.088 460.145C223.799 460.935 230.203 462.691 236.393 463.967Z" fill="black"/>
<path d="M355.736 493.514C354.009 501.895 347.615 518.778 343.063 526.722C338.11 535.603 330.134 542.987 326.539 542.246C323.344 541.587 319.732 534.873 318.162 526.832C316.777 519.412 316.85 502.39 318.484 489.914L319.57 481.11L338.142 484.937L356.715 488.765L355.736 493.514Z" fill="black"/>
<path d="M309.722 490.001C306.875 510.382 307.784 529.207 312.301 540.622C315.611 549.312 318.445 552.226 324.436 553.461C329.529 554.511 335.598 551.83 340.916 546.228C348.279 538.281 357.861 518.56 363.274 499.873L365.514 492.035L375.898 494.175L386.383 496.336L384.693 499.482C383.82 501.195 380.556 506.929 377.279 512.224C356.556 546.103 333.975 565.765 308.336 571.984L301.44 573.621L294.204 566.305C290.244 562.286 284.961 556.101 282.371 552.509C275.666 543.119 265.759 520.983 262.315 507.896C259.508 497.271 256.701 479.073 256.729 471.362L256.763 468.165L283.965 474.063L311.138 480.1L309.722 490.001Z" fill="#FFD84C"/>
<path fill-rule="evenodd" clip-rule="evenodd" d="M824.47 448.555C827.402 452.174 827.363 454.512 824.632 475.605C817.619 528.451 801.11 560.975 773.256 577.345C757.062 586.653 735.659 587.861 716.61 580.283C691.449 570.326 672.18 551.582 651.314 517.005C639.921 498.094 636.696 490.022 639.231 487.17C640.257 486.085 675.503 477.801 731.604 465.656L822.368 445.931L824.47 448.555ZM788.67 466.272L799.853 463.967C806.044 462.691 812.448 460.935 814.159 460.145C816.953 458.55 817.182 458.648 817.145 462.005C817.156 468.118 812.663 493.798 809.899 504.123C800.458 539.123 782.889 561.964 758.903 570.839C755.424 572.138 752.728 572.694 752.941 572.213C753.154 571.733 756.613 566.797 760.726 560.998C769.409 548.58 777.654 531.009 781.936 515.42C785.14 503.693 788.611 481.136 788.666 471.806L788.67 466.272ZM723.946 540.622C728.463 529.207 729.372 510.382 726.524 490.001L725.108 480.1L752.282 474.063L779.484 468.165L779.518 471.362C779.546 479.073 776.738 497.271 773.932 507.896C770.487 520.983 760.581 543.119 753.876 552.509C751.286 556.101 746.002 562.286 742.043 566.305L734.806 573.621L727.911 571.984C702.272 565.765 679.691 546.103 658.968 512.224C655.691 506.929 652.427 501.195 651.554 499.482L649.864 496.336L660.349 494.175L670.733 492.035L672.973 499.873C678.386 518.56 687.968 538.281 695.331 546.228C700.649 551.83 706.718 554.511 711.811 553.461C717.802 552.226 720.636 549.312 723.946 540.622ZM693.184 526.722C688.632 518.778 682.238 501.895 680.511 493.514L679.532 488.765L698.104 484.937L716.677 481.11L717.763 489.914C719.397 502.39 719.47 519.412 718.085 526.832C716.515 534.873 712.903 541.587 709.707 542.246C706.113 542.987 698.137 535.603 693.184 526.722Z" fill="black"/>
<path d="M799.853 463.967L788.67 466.272L788.666 471.806C788.611 481.136 785.14 503.693 781.936 515.42C777.654 531.009 769.409 548.58 760.726 560.998C756.613 566.797 753.154 571.733 752.941 572.213C752.728 572.694 755.424 572.138 758.903 570.839C782.889 561.964 800.458 539.123 809.899 504.123C812.663 493.798 817.156 468.118 817.145 462.005C817.182 458.648 816.953 458.55 814.159 460.145C812.448 460.935 806.044 462.691 799.853 463.967Z" fill="black"/>
<path d="M680.511 493.514C682.238 501.895 688.632 518.778 693.184 526.722C698.137 535.603 706.113 542.987 709.707 542.246C712.903 541.587 716.515 534.873 718.085 526.832C719.47 519.412 719.397 502.39 717.763 489.914L716.677 481.11L698.104 484.937L679.532 488.765L680.511 493.514Z" fill="black"/>
<path d="M726.524 490.001C729.372 510.382 728.463 529.207 723.946 540.622C720.636 549.312 717.802 552.226 711.811 553.461C706.718 554.511 700.649 551.83 695.331 546.228C687.968 538.281 678.386 518.56 672.973 499.873L670.733 492.035L660.349 494.175L649.864 496.336L651.554 499.482C652.427 501.195 655.691 506.929 658.968 512.224C679.691 546.103 702.272 565.765 727.911 571.984L734.806 573.621L742.043 566.305C746.002 562.286 751.286 556.101 753.876 552.509C760.581 543.119 770.487 520.983 773.932 507.896C776.738 497.271 779.546 479.073 779.518 471.362L779.484 468.165L752.282 474.063L725.108 480.1L726.524 490.001Z" fill="#FFD84C"/>
<path d="M594.056 357.192L589.382 361.325L594.435 364.986L709.557 448.397H563.613L562.489 451.849L518.5 586.86L474.511 451.849L473.387 448.397H327.443L442.565 364.986L447.618 361.325L442.944 357.192L324.09 252.091L517.095 308.593L518.5 309.004L519.904 308.593L712.909 252.091L594.056 357.192Z" fill="#FFD84C" stroke="black" stroke-width="10"/>
</g>
<defs>
<clipPath id="clip0_58_2">
<rect width="1024" height="1024" fill="white"/>
</clipPath>
</defs>
</svg>
