<svg width="600" height="600" viewBox="0 0 600 600" fill="none" xmlns="http://www.w3.org/2000/svg">
<path fill-rule="evenodd" clip-rule="evenodd" d="M600 300C600 465.685 465.685 600 300 600C134.315 600 0 465.685 0 300C0 134.315 134.315 0 300 0C465.685 0 600 134.315 600 300ZM300 550C438.071 550 550 438.071 550 300C550 161.929 438.071 50 300 50C161.929 50 50 161.929 50 300C50 438.071 161.929 550 300 550Z" fill="url(#paint0_linear_3_44)"/>
<path d="M323.941 62.7503C302.016 66.1511 268.224 77.8412 241.673 91.4443C186.158 119.288 149.55 156.696 132.453 202.819C127.424 216.635 126.016 223.862 125.212 241.291C124.206 267.009 126.62 280.612 136.073 300.591C150.555 331.411 172.078 353.728 220.151 387.524C254.949 411.967 275.465 433.434 286.528 457.027C295.378 476.156 297.189 489.122 293.769 514.415C292.16 528.018 291.959 534.394 293.568 536.095C297.189 539.92 313.481 537.795 331.785 531.419C392.128 509.951 442.212 471.267 461.321 431.096C471.177 410.054 474.999 393.687 474.999 370.732C475.2 318.871 452.27 282.525 383.278 225.987C342.848 192.83 330.176 172 329.975 139.055C329.975 119.713 332.791 106.748 341.641 86.5557C352.905 60.4123 351.296 58.4993 323.941 62.7503ZM287.333 129.915C285.925 143.093 289.344 168.387 293.97 181.777C296.384 188.366 297.792 194.105 297.189 194.53C294.976 196.868 217.335 161.585 217.335 158.397C217.335 154.358 278.08 120.988 285.522 120.988C287.534 120.988 287.936 123.326 287.333 129.915ZM213.513 202.394C245.696 218.973 283.31 234.276 316.901 244.479C344.055 252.556 345.664 253.406 363.968 268.072C381.065 281.887 415.46 316.107 413.851 317.808C411.84 319.933 318.912 292.09 282.706 278.486C243.685 263.821 174.894 233.851 170.469 229.388C167.049 226.2 184.951 187.303 188.773 189.429C189.577 189.854 200.64 195.805 213.513 202.394ZM247.506 308.031C299.602 328.86 372.215 350.965 421.092 361.168L432.558 363.506V374.771C432.558 387.949 427.328 407.928 423.908 407.928C418.478 407.928 358.336 392.625 332.389 384.76C281.701 369.457 258.77 359.467 233.426 341.613C208.283 324.184 188.169 304.842 178.917 289.326C175.698 284.013 173.083 278.912 173.083 277.849C173.083 276.999 182.738 280.612 194.807 285.926C206.674 291.452 230.409 301.229 247.506 308.031ZM360.548 434.497C379.255 439.385 394.743 443.849 395.346 444.486C397.961 447.037 345.463 480.195 338.624 480.195C337.618 480.195 335.406 474.668 334.199 467.867C332.791 461.278 328.567 448.737 324.745 440.023C320.923 431.308 317.906 423.869 317.906 423.444C317.906 423.019 319.918 423.232 322.533 424.082C324.946 424.932 342.043 429.608 360.548 434.497Z" fill="url(#paint1_linear_3_44)"/>
<defs>
<linearGradient id="paint0_linear_3_44" x1="88.5" y1="88.5" x2="511.5" y2="511.5" gradientUnits="userSpaceOnUse">
<stop stop-color="#FF00DD"/>
<stop offset="0.25" stop-color="#1500FF"/>
<stop offset="0.5" stop-color="#00FFF2"/>
<stop offset="0.75" stop-color="#6FFF00"/>
<stop offset="1" stop-color="#FFFB00"/>
</linearGradient>
<linearGradient id="paint1_linear_3_44" x1="412.162" y1="491.619" x2="189.143" y2="126.067" gradientUnits="userSpaceOnUse">
<stop stop-color="#FF00DD"/>
<stop offset="0.246829" stop-color="#1500FF"/>
<stop offset="0.493657" stop-color="#00FFF2"/>
<stop offset="0.740486" stop-color="#6FFF00"/>
<stop offset="0.987315" stop-color="#FFFB00"/>
</linearGradient>
</defs>
</svg>
